<svg width="500" height="570" viewBox="0 0 500 570" fill="none" xmlns="http://www.w3.org/2000/svg">
<path d="M95.3309 16.2856L128.273 16.8945C128.296 29.9032 127.949 37.3524 126.509 50.9937L93.5662 49.167C94.4552 37.0528 94.8371 29.849 95.3309 16.2856Z" fill="#F9B3CB" fill-opacity="0.8"/>
<path d="M121.776 191.479L154.718 192.088C154.741 205.097 154.394 212.546 152.953 226.188L120.011 224.361C120.9 212.247 121.282 205.043 121.776 191.479Z" fill="#FFE487" fill-opacity="0.7"/>
<path d="M121.776 148.507L154.718 149.116C154.741 162.125 154.394 169.574 152.953 183.215L120.011 181.389C120.9 169.274 121.282 162.071 121.776 148.507Z" fill="#FFE487" fill-opacity="0.7"/>
<path d="M77.1511 148.507L110.093 149.116C110.117 162.125 109.769 169.574 108.329 183.215L75.3864 181.389C76.2754 169.274 76.6573 162.071 77.1511 148.507Z" fill="#FFE487" fill-opacity="0.7"/>
<path d="M32.5265 103.882L65.4689 104.491C65.4919 117.5 65.1445 124.949 63.7041 138.591L30.7617 136.764C31.6507 124.65 32.0327 117.446 32.5265 103.882Z" fill="#FFE487" fill-opacity="0.7"/>
<path d="M121.776 105.535L154.718 106.144C154.741 119.153 154.394 126.602 152.953 140.243L120.011 138.417C120.9 126.302 121.282 119.099 121.776 105.535Z" fill="#FFE487" fill-opacity="0.7"/>
<path d="M77.1511 105.535L110.093 106.144C110.117 119.153 109.769 126.602 108.329 140.243L75.3864 138.417C76.2754 126.302 76.6573 119.099 77.1511 105.535Z" fill="#FFE487" fill-opacity="0.7"/>
<path d="M32.5265 60.9103L65.4689 61.5192C65.4919 74.5279 65.1445 81.9772 63.7041 95.6185L30.7617 93.7918C31.6507 81.6776 32.0327 74.4738 32.5265 60.9103Z" fill="#65DAFF" fill-opacity="0.7"/>
<path d="M166.4 60.9103L199.343 61.5192C199.366 74.5279 199.018 81.9772 197.578 95.6185L164.636 93.7918C165.525 81.6776 165.907 74.4738 166.4 60.9103Z" fill="#65DAFF" fill-opacity="0.7"/>
<path d="M121.776 60.9103L154.718 61.5192C154.741 74.5279 154.394 81.9772 152.953 95.6185L120.011 93.7918C120.9 81.6776 121.282 74.4738 121.776 60.9103Z" fill="#65DAFF" fill-opacity="0.7"/>
<path d="M77.1511 60.9103L110.093 61.5192C110.117 74.5279 109.769 81.9772 108.329 95.6185L75.3864 93.7918C76.2754 81.6776 76.6573 74.4738 77.1511 60.9103Z" fill="#65DAFF" fill-opacity="0.7"/>
<rect y="275.044" width="287.71" height="182.503" rx="3.66404" fill="#F6F3FF"/>
<rect y="288.563" width="287.71" height="15.7719" fill="#EBE1FA"/>
<rect y="304.334" width="34.2512" height="153.212" fill="#F1EBFF"/>
<rect x="178.107" y="315.6" width="93.62" height="54.0749" fill="#EBE1FA"/>
<rect x="178.107" y="376.434" width="93.62" height="54.0749" fill="#EBE1FA"/>
<rect x="47.9514" y="313.347" width="59.3688" height="6.75937" rx="0.916011" fill="#E1D0F7"/>
<rect x="47.9514" y="430.509" width="107.321" height="2.25312" rx="0.916011" fill="#E1D0F7"/>
<rect x="47.9514" y="322.359" width="47.9517" height="4.50624" rx="0.916011" fill="#EBE1FA"/>
<rect x="47.9514" y="338.131" width="15.9839" height="87.8717" rx="1.83202" fill="#EBE1FA"/>
<rect x="70.7862" y="358.409" width="15.9839" height="67.5937" rx="1.83202" fill="#EBE1FA"/>
<rect x="139.289" y="358.409" width="15.9839" height="67.5937" rx="1.83202" fill="#EBE1FA"/>
<rect x="93.6204" y="389.953" width="15.9839" height="36.0499" rx="1.83202" fill="#EBE1FA"/>
<rect x="116.454" y="351.65" width="15.9839" height="74.353" rx="1.83202" fill="#EBE1FA"/>
<ellipse cx="6.84994" cy="281.803" rx="2.28342" ry="2.25312" fill="#E1D0F7"/>
<ellipse cx="13.7005" cy="281.803" rx="2.28342" ry="2.25312" fill="#E1D0F7"/>
<ellipse cx="20.5506" cy="281.803" rx="2.28342" ry="2.25312" fill="#E1D0F7"/>
<rect x="361.9" width="106.411" height="208.092" rx="4.03537" fill="#F1EBFF"/>
<path d="M361.9 4.03537C361.9 1.8067 363.707 0 365.936 0H464.276C466.504 0 468.311 1.8067 468.311 4.03537V13.2825H361.9V4.03537Z" fill="#F6F3FF"/>
<ellipse cx="369.444" cy="7.44434" rx="2.51483" ry="2.48146" fill="#E1D0F7"/>
<ellipse cx="376.988" cy="7.44434" rx="2.51483" ry="2.48146" fill="#E1D0F7"/>
<ellipse cx="384.533" cy="7.44434" rx="2.51483" ry="2.48146" fill="#E1D0F7"/>
<rect x="373.22" y="59.7713" width="86.0343" height="92.9775" rx="2.01768" fill="#EBE1FA"/>
<rect x="368.692" y="19.9237" width="58.8656" height="6.64125" rx="1.00884" fill="#E1D0F7"/>
<rect x="368.692" y="28.7788" width="47.5453" height="4.4275" rx="1.00884" fill="#EBE1FA"/>
<ellipse cx="402.653" cy="177.1" rx="2.26406" ry="2.21375" fill="#EBE1FA"/>
<ellipse cx="416.237" cy="177.1" rx="4.52812" ry="4.4275" fill="#E1D0F7"/>
<ellipse cx="429.822" cy="177.1" rx="2.26406" ry="2.21375" fill="#EBE1FA"/>
<rect x="384.54" y="46.4888" width="63.3937" height="115.115" rx="4.03537" fill="#F6F3FF"/>
<rect x="398.124" y="64.1987" width="33.9609" height="33.2062" rx="2.01768" fill="#EBE1FA"/>
<path d="M429.821 95.1912L400.389 66.4125" stroke="#E1D0F7" stroke-linecap="round"/>
<path d="M400.388 95.1912L429.821 66.4125" stroke="#E1D0F7" stroke-linecap="round"/>
<rect x="391.332" y="121.756" width="49.8094" height="4.4275" rx="1.00884" fill="#E1D0F7"/>
<rect x="391.332" y="128.397" width="40.7531" height="2.21375" rx="1.00884" fill="#EBE1FA"/>
<rect x="391.332" y="132.825" width="18.1125" height="2.21375" rx="1.00884" fill="#EBE1FA"/>
<rect x="411.709" y="132.825" width="27.1687" height="2.21375" rx="1.00884" fill="#EBE1FA"/>
<path fill-rule="evenodd" clip-rule="evenodd" d="M342.15 78.0177L342.421 79.3477C347.859 106.113 361.75 128.995 374.513 148.84C375.533 150.426 376.547 151.994 377.549 153.544C382.793 161.656 387.714 169.267 391.542 176.372C396.097 184.824 398.758 191.654 398.995 199.045L396.733 202.664V200.219C396.518 193.474 393.653 186.012 389.153 177.659C385.38 170.658 380.531 163.157 375.285 155.042C374.28 153.487 373.26 151.909 372.23 150.308C359.467 130.462 345.311 107.201 339.761 79.8881L339.49 78.5582L342.15 78.0177Z" fill="#1A1A1A"/>
<path d="M267.081 550.399L269.027 520.482L271.425 490.374L245.56 487.66L245.56 524.127L226.711 536.281C226.711 536.281 225.718 536.955 224.194 538.004C219.622 541.15 210.272 547.668 208.616 549.468C207.11 551.105 206.18 553.515 207.241 555.234C207.639 555.879 208.318 556.426 209.352 556.799C209.605 556.89 209.879 556.971 210.175 557.04C214.914 558.144 267.081 550.399 267.081 550.399Z" fill="#FEDDC6"/>
<path d="M267.081 550.399L268.22 532.898C268.22 532.898 263.76 536.528 260.568 538.326C250.848 543.801 235.235 546.349 230.711 542.85C227.787 540.588 226.71 536.281 226.71 536.281C226.71 536.281 210.823 547.067 208.615 549.468C206.407 551.869 205.435 555.935 210.174 557.04C214.913 558.144 267.081 550.399 267.081 550.399Z" fill="#79003A"/>
<path d="M376.147 560.683C371.323 561.319 320.162 548.51 320.162 548.51L320.737 531.088L319.953 514.803L318.473 484.041L341.092 485.851L344.149 524.468L361.72 538.407C361.72 538.407 376.476 550.695 378.439 553.301C380.402 555.906 380.972 560.047 376.147 560.683Z" fill="#FEDDC6"/>
<path d="M320.163 548.51L320.741 530.982C320.741 530.982 324.824 535.031 327.825 537.132C336.963 543.532 352.252 547.594 357.096 544.553C360.227 542.588 361.72 538.407 361.72 538.407C361.72 538.407 376.477 550.695 378.439 553.301C380.402 555.906 380.972 560.047 376.148 560.683C371.323 561.319 320.163 548.51 320.163 548.51Z" fill="#79003A"/>
<path fill-rule="evenodd" clip-rule="evenodd" d="M293.14 43.4193L291.304 43.5191C282.241 44.0112 273.865 46.4956 266.537 51.5104C259.206 56.5262 252.819 64.1447 247.848 75.064C239.306 93.8275 229.732 108.432 220.909 121.894C217.781 126.666 214.747 131.294 211.887 135.913C200.943 153.585 193.617 174.617 191.853 197.244L186.379 194.521C188.754 167.891 197.634 151.975 208.745 134.033C211.687 129.282 214.772 124.575 217.931 119.755C226.717 106.35 236.072 92.0781 244.49 73.587C249.685 62.1756 256.465 53.996 264.435 48.5426C272.407 43.088 281.465 40.432 291.101 39.9087L292.937 39.809L293.14 43.4193Z" fill="#1A1A1A"/>
<path d="M342.9 82.247C353.691 136.325 392.662 175.291 392.662 203.795C384.519 223.391 334.877 252.625 295.853 251.488C277.49 250.953 258.502 242.82 241.983 233.072C218.564 219.254 200.107 202.191 195.426 198.934C199.95 146.381 226.188 125.003 246.092 72.4488C254.745 49.6032 271.455 39.133 289.52 38.1167C321.186 36.3352 337.472 55.0408 342.9 82.247Z" fill="#1A1A1A"/>
<ellipse cx="254.234" cy="104.046" rx="9.0475" ry="9.95225" fill="#FAD4B8"/>
<ellipse cx="320.281" cy="104.046" rx="9.0475" ry="9.95225" fill="#FEDDC6"/>
<rect x="270.519" y="124.855" width="36.19" height="47.047" fill="#FAD4B8"/>
<path fill-rule="evenodd" clip-rule="evenodd" d="M320.281 78.8739L272.239 65.142L255.139 81.3151L255.863 100.031L255.154 109.796C255.144 110.066 255.139 110.338 255.139 110.61C255.139 125.441 273.868 140.21 287.71 141.125C296.667 141.718 320.281 125.441 320.281 110.61C320.281 110.338 320.277 110.066 320.267 109.796C320.267 109.796 319.779 103.888 319.558 100.031C319.192 93.6571 320.281 83.7564 320.281 83.7564V78.8739Z" fill="#FEDDC6"/>
<path d="M261.647 85.993C261.763 85.8119 261.906 85.6534 262.081 85.5278C262.99 84.8744 266.202 82.7344 270.179 82.0352C271.295 81.839 272.294 82.6482 272.501 83.7622C272.766 85.183 271.653 86.4719 270.218 86.6412C267.73 86.9346 265.896 87.6884 263.74 88.5823C262.086 89.2679 260.682 87.5004 261.647 85.993Z" fill="black"/>
<ellipse cx="269.615" cy="97.713" rx="2.71425" ry="3.619" fill="#1A1A1A"/>
<ellipse cx="269.615" cy="97.713" rx="2.71425" ry="3.619" fill="#1A1A1A"/>
<ellipse cx="269.615" cy="97.713" rx="2.71425" ry="3.619" fill="#1A1A1A"/>
<ellipse cx="269.615" cy="97.713" rx="2.71425" ry="3.619" fill="#1A1A1A"/>
<ellipse cx="298.567" cy="97.713" rx="2.71425" ry="3.619" fill="#1A1A1A"/>
<ellipse cx="298.567" cy="97.713" rx="2.71425" ry="3.619" fill="#1A1A1A"/>
<ellipse cx="298.567" cy="97.713" rx="2.71425" ry="3.619" fill="#1A1A1A"/>
<ellipse cx="298.567" cy="97.713" rx="2.71425" ry="3.619" fill="#1A1A1A"/>
<ellipse cx="307.615" cy="110.379" rx="8.14275" ry="7.238" fill="#FAC8B8" fill-opacity="0.8"/>
<ellipse cx="261.473" cy="111.284" rx="7.238" ry="6.33325" fill="#FAC8B8" fill-opacity="0.8"/>
<path d="M277.814 122.018C286.568 127.074 292.269 123.653 295.553 120.643" stroke="#79003A" stroke-width="1.08078" stroke-linecap="round"/>
<path d="M278.122 104.951C278.122 104.951 275.401 108.745 276.049 111.027C276.544 112.77 277.959 113.456 279.348 113.841C280.572 114.18 282.022 113.945 283.187 113.392" stroke="#79003A" stroke-width="0.773908" stroke-linecap="round"/>
<path fill-rule="evenodd" clip-rule="evenodd" d="M339.194 93.0639C338.594 93.4025 334.757 90.475 331.138 91.3797C327.519 92.2845 321.186 94.094 318.471 94.9987C315.757 95.9035 310.68 93.9512 307.764 92.2845C307.314 92.2164 303.996 88.6655 301.281 79.618C302.186 88.6655 306.311 92.3654 305.805 92.2845C303.657 91.9403 300.377 91.3797 296.758 90.475C294.353 88.2894 290.424 81.4275 288.615 68.761C288.615 77.8085 292.234 87.2492 294.043 89.5702C288.573 88.4186 281.531 86.2706 278.663 84.1417C275.044 82.3322 273.234 76.9037 272.951 70.5705C271.503 72.7657 267.823 79.4996 262.377 82.7678C257.154 85.9025 254.648 85.8302 247.154 86.5209C247.312 82.7678 247.508 80.3297 247.154 86.5209C247.154 61.6479 267.655 45.2375 293.139 45.2375C318.622 45.2375 339.281 65.401 339.281 90.2739C339.281 91.2109 339.252 92.1411 339.194 93.0639Z" fill="#1A1A1A"/>
<mask id="mask0_77_518" style="mask-type:alpha" maskUnits="userSpaceOnUse" x="195" y="37" width="198" height="215">
<path d="M342.9 82.247C353.691 136.325 392.662 175.291 392.662 203.795C384.519 223.391 334.877 252.625 295.853 251.488C277.49 250.953 258.502 242.82 241.983 233.072C218.564 219.254 200.107 202.191 195.426 198.934C199.95 146.381 226.188 125.003 246.092 72.4488C254.745 49.6032 271.455 39.133 289.52 38.1167C321.186 36.3352 337.472 55.0408 342.9 82.247Z" fill="#1A1A1A"/>
</mask>
<g mask="url(#mask0_77_518)">
<path d="M259.394 47.0469C265.613 59.7134 310.036 65.1108 326.028 48.8564L339.354 66.0466C326.916 61.5229 315.63 65.7717 292.575 66.0466C276.955 66.2329 262.948 61.5229 248.733 64.2372L259.394 47.0469Z" fill="#363636"/>
</g>
<path d="M319.708 113.979C319.898 113.992 320.089 113.998 320.282 113.998C325.278 113.998 329.329 109.532 329.329 104.023C329.329 98.8497 325.758 94.5964 321.186 94.0959C319.377 94.0467 318.472 94.9535 318.472 94.9535" stroke="#79003A" stroke-width="0.771984" stroke-linecap="round"/>
<path d="M255.14 85.9512L255.834 100.524L255.154 110.172C255.144 110.439 255.14 110.707 255.14 110.976C255.14 125.629 273.093 140.221 286.363 141.125C288.527 141.273 291.585 140.361 294.949 138.68" stroke="#79003A" stroke-width="0.771984" stroke-linecap="round"/>
<path fill-rule="evenodd" clip-rule="evenodd" d="M256.949 258.758C245.333 297.17 237.366 337.103 217.14 510.018C251.372 518.864 252.918 517.792 288.933 517.01L292.931 361.886L309.06 517.01C347.038 517.598 346.622 518.189 376.376 510.018C351.757 343.956 322.091 262.377 319.377 258.758H256.949Z" fill="#43BBFF"/>
<path d="M289.52 332.948L309.425 517.517" stroke="#79003A" stroke-width="0.771984"/>
<path d="M184.799 254.272C145.946 255.848 144.99 167.416 143.181 162.893C143.181 162.893 142.276 157.796 138.657 150.226C136.33 145.36 131.419 138.464 131.419 138.464C131.419 138.464 125.436 130.525 126.895 127.607C128.705 123.988 138.657 135.75 138.657 135.75C138.657 135.75 128.705 117.655 132.324 114.941C134.933 112.984 144.085 133.036 144.085 133.036C144.085 133.036 139.562 109.286 142.276 108.608C146.8 107.477 151.323 132.131 154.038 132.131C155.847 132.131 151.479 113.612 154.942 112.227C159.466 110.417 161.276 125.798 163.99 140.274C167.609 136.655 167.662 130.854 170.323 130.322C174.847 129.417 173.037 142.988 172.133 145.702C171.228 148.417 165.799 159.274 165.799 159.274C165.799 159.274 166.21 164.125 168.514 171.035C172.962 184.381 180.111 202.048 185.682 215.33L221.665 180.95L228.903 215.33L200.18 246.13C200.18 246.13 194.741 253.869 184.799 254.272Z" fill="#FEDDC6"/>
<path d="M165.799 159.274C165.799 159.274 171.228 148.417 172.133 145.702C173.037 142.988 174.847 129.417 170.323 130.322C167.662 130.854 167.609 136.655 163.99 140.274M138.657 150.226C136.33 145.36 131.419 138.464 131.419 138.464C131.419 138.464 125.436 130.525 126.895 127.607C128.705 123.988 138.657 135.75 138.657 135.75C138.657 135.75 128.705 117.655 132.324 114.941C134.933 112.984 144.085 133.036 144.085 133.036C144.085 133.036 139.562 109.286 142.276 108.608C146.8 107.477 151.323 132.131 154.038 132.131C155.847 132.131 151.479 113.612 154.942 112.227C159.466 110.417 161.276 125.798 163.99 140.274M163.99 140.274C163.99 140.274 159.557 139.756 157.427 142.95C155.618 145.665 155.618 148.379 155.618 148.379" stroke="#79003A" stroke-width="0.771984" stroke-linecap="round"/>
<path d="M189.093 230.711C189.093 228.902 186.19 217.558 185.474 215.33C184.71 212.951 182.918 208.023 180.976 203" stroke="#79003A" stroke-width="0.771984" stroke-linecap="round"/>
<path d="M399.901 246.781C404.791 273.924 329.23 313.02 325.437 316.078C318.134 321.964 313.8 325.038 305.532 330.018C303.555 330.84 301.083 328.84 301.008 327.304C298.294 327.304 296.485 323.685 296.485 323.685C296.485 323.685 293.539 323.344 291.961 321.566C289.927 320.928 288.27 320.281 287.437 318.257C286.008 314.783 293.77 311.019 293.77 311.019C293.77 311.019 293.854 308.099 294.675 306.495C296.06 303.789 301.008 301.971 301.008 301.971L318.473 294.948L334.759 278.663C344.867 269.067 356.712 258.977 366.224 252.481L339.008 220.544L364.616 199.045C364.616 199.045 378.387 212.487 389.044 226.877C393.088 232.339 398.137 236.989 399.901 246.781Z" fill="#FEDDC6"/>
<path d="M294.045 311.234C294.045 311.234 293.854 308.099 294.675 306.495C296.06 303.789 301.008 301.971 301.008 301.971M294.045 311.234C294.045 311.234 286.595 315.758 287.712 318.472C288.545 320.496 290.259 320.876 291.056 320.971M294.045 311.234L298.569 308.52M301.009 327.304C301.083 328.84 303.555 330.84 305.532 330.018C309.057 328.987 314.449 324.692 325.437 315.542M301.009 327.304C298.076 328.004 296.759 323.9 296.485 323.685M301.009 327.304L303.997 325.71M296.485 323.685C295.306 323.685 292.162 323.259 291.056 320.971M296.485 323.685C298.451 322.918 299.224 322.452 300.104 321.566M291.056 320.971C291.543 321.029 294.548 319.715 298.294 316.447" stroke="#79003A" stroke-width="0.771984" stroke-linecap="round" stroke-linejoin="round"/>
<path d="M383.286 247.923C381.439 247.923 381.079 247.874 379.234 247.923C376.143 248.006 370.938 250.021 368.377 251.631C366.289 252.648 362.517 255.394 358.281 258.758" stroke="#79003A" stroke-width="0.771984" stroke-linecap="round"/>
<path d="M200.854 193.183L240.19 161.284L270.52 150.188C270.52 169.188 306.71 170.093 306.71 150.188L337.56 161.284L378.185 207.188L341.995 239.759L324.805 214.68L319.505 258.758H256.955L249.217 214.68L221.489 236.871L200.854 193.183Z" fill="#F46A99"/>
<path d="M337.56 161.284L307 150.5C307 170.404 270.5 169.5 270.5 150.5" stroke="#79003A" stroke-linecap="round" stroke-linejoin="round"/>
<path d="M256.956 258.758L249.218 214.68C247.861 204.549 247.463 199.385 247.902 191.807" stroke="#79003A" stroke-width="0.771984" stroke-linecap="round"/>
<path d="M323.622 100.318C320.357 100.551 320.391 106.184 320.751 108.52" stroke="#79003A" stroke-width="0.771984" stroke-linecap="round"/>
<path d="M407.744 292.214L413.636 308.2C413.834 308.738 414.596 308.739 414.794 308.2L417.076 302.02C417.151 301.817 417.327 301.668 417.539 301.627L423.441 300.493C424.015 300.383 424.129 299.611 423.612 299.34L408.61 291.454C408.11 291.191 407.548 291.683 407.744 292.214Z" fill="#79003A"/>
<path d="M419.927 305.267C428.318 313.934 434.545 324.35 439.614 335.178C445.245 347.21 449.694 360.134 450.248 373.767C450.836 388.236 449.385 402.979 433.375 408.947C423.785 412.177 409.408 404.34 404.976 396.711C398.926 386.299 395.837 370.269 403.287 358.487C405.93 354.308 411.205 350.934 415.714 348.987C425.369 344.816 434.997 346.46 445.517 350.585C467.502 359.205 489.993 388.132 496.355 416.408" stroke="#79003A" stroke-width="0.771984" stroke-linecap="round" stroke-dasharray="7.72 7.72"/>
</svg>
