<?xml version="1.0" standalone="no"?>
<!DOCTYPE svg PUBLIC "-//W3C//DTD SVG 20010904//EN"
 "http://www.w3.org/TR/2001/REC-SVG-20010904/DTD/svg10.dtd">
<svg version="1.0" xmlns="http://www.w3.org/2000/svg"
 width="481.000000pt" height="481.000000pt" viewBox="0 0 481.000000 481.000000"
 preserveAspectRatio="xMidYMid meet">
<metadata>
Created by potrace 1.11, written by Peter Selinger 2001-2013
</metadata>
<g transform="translate(0.000000,481.000000) scale(0.100000,-0.100000)"
fill="#000000" stroke="none">
<path d="M135 4791 c-48 -22 -69 -44 -90 -94 -13 -32 -15 -152 -15 -969 0
-884 1 -935 19 -973 22 -48 44 -69 94 -90 32 -13 152 -15 969 -15 895 0 935 1
975 19 26 12 52 35 70 62 l28 43 3 935 c2 631 0 948 -8 972 -14 51 -47 88 -94
110 -39 18 -87 19 -976 19 -886 0 -937 -1 -975 -19z m903 -343 c8 -8 12 -56
12 -149 0 -164 -14 -152 170 -154 69 0 131 -4 137 -8 23 -14 -18 -138 -54
-167 -22 -17 -41 -20 -138 -20 -86 0 -115 -3 -125 -14 -9 -11 -10 -92 -7 -321
4 -257 8 -309 21 -330 23 -34 76 -42 156 -21 79 20 114 20 129 2 38 -45 -50
-165 -162 -223 -180 -92 -414 -45 -487 97 -28 55 -31 84 -37 450 -3 190 -7
347 -10 350 -3 3 -26 6 -52 6 -82 2 -120 24 -121 70 0 29 36 59 96 78 123 40
210 113 332 278 61 83 108 108 140 76z m627 -1188 c97 -47 99 -181 3 -240 -61
-37 -142 -16 -185 49 -57 85 8 208 111 210 16 1 48 -8 71 -19z"/>
<path d="M2735 4803 c-36 -9 -88 -57 -106 -98 -18 -38 -19 -92 -19 -975 0
-886 1 -937 19 -975 22 -48 44 -69 94 -90 32 -13 152 -15 969 -15 884 0 935 1
973 19 48 22 69 44 90 94 13 32 15 152 15 967 0 815 -2 935 -15 967 -21 50
-42 72 -90 94 -38 18 -88 19 -975 18 -514 -1 -944 -4 -955 -6z m883 -355 c8
-8 12 -56 12 -149 0 -85 4 -140 10 -144 6 -4 73 -8 148 -9 76 -1 143 -6 149
-9 25 -16 -17 -139 -58 -167 -23 -17 -44 -20 -137 -20 -80 0 -113 -4 -121 -14
-10 -12 -11 -208 -2 -589 2 -89 72 -121 181 -82 106 38 151 5 110 -79 -35 -73
-126 -141 -235 -176 -56 -18 -183 -16 -249 5 -94 30 -164 106 -180 195 -4 19
-9 190 -12 380 -4 190 -8 347 -10 349 -2 3 -25 6 -52 7 -63 4 -87 11 -106 30
-38 37 -6 91 69 114 111 35 193 94 277 198 58 72 106 133 118 152 14 20 70 26
88 8z m633 -1191 c65 -43 86 -124 49 -185 -94 -153 -320 -31 -241 131 36 74
125 99 192 54z"/>
<path d="M133 2140 c-29 -13 -52 -34 -73 -66 l-30 -48 0 -940 c0 -894 1 -943
19 -982 22 -47 59 -80 110 -94 24 -8 341 -10 972 -8 l935 3 43 28 c27 18 50
44 62 70 18 40 19 80 19 977 0 1052 4 984 -76 1045 l-39 30 -950 2 c-921 3
-951 2 -992 -17z m905 -343 c8 -7 12 -47 12 -141 0 -72 4 -137 9 -144 6 -10
46 -14 149 -16 78 -1 146 -6 152 -12 22 -22 -30 -152 -70 -174 -10 -6 -68 -10
-128 -10 -83 0 -112 -3 -122 -14 -16 -20 -8 -613 9 -644 25 -46 77 -53 181
-23 92 26 129 7 113 -57 -8 -32 -15 -42 -72 -100 -165 -167 -490 -150 -582 31
-28 54 -35 140 -38 497 -2 205 -6 297 -14 302 -6 4 -27 6 -47 6 -83 -1 -120
21 -120 70 0 26 37 57 85 72 106 33 222 119 295 219 14 19 47 61 74 93 39 48
54 59 75 56 14 -1 32 -6 39 -11z m646 -1194 c63 -46 72 -155 18 -205 -55 -52
-94 -59 -161 -32 -44 17 -81 76 -81 128 0 41 37 101 74 120 39 20 116 14 150
-11z"/>
<path d="M2720 2144 c-45 -20 -68 -41 -91 -86 -18 -35 -19 -78 -19 -972 0
-823 2 -941 15 -973 21 -50 42 -72 90 -94 38 -18 89 -19 975 -19 886 0 937 1
975 19 48 22 69 44 90 94 13 32 15 150 15 973 0 896 -1 937 -19 972 -23 45
-57 75 -101 90 -24 9 -283 12 -964 12 -806 -1 -936 -3 -966 -16z m898 -347 c8
-7 12 -47 12 -141 0 -72 4 -137 9 -144 6 -11 43 -14 147 -16 77 -1 145 -5 151
-9 25 -16 -20 -144 -60 -172 -16 -11 -51 -15 -133 -15 -83 0 -115 -4 -123 -14
-10 -12 -11 -242 -2 -599 2 -78 69 -105 177 -72 76 23 112 20 126 -11 24 -52
-57 -155 -164 -210 -183 -94 -414 -48 -488 97 -27 52 -35 156 -39 494 -2 215
-6 302 -14 307 -7 4 -28 6 -47 4 -38 -3 -99 17 -112 37 -25 39 8 85 76 107
110 35 220 116 293 215 94 127 123 156 152 153 14 -1 32 -6 39 -11z m633
-1189 c66 -37 86 -119 47 -189 -37 -66 -119 -86 -189 -47 -65 36 -86 119 -48
188 38 67 119 88 190 48z"/>
</g>
</svg>
