<svg width="128" height="128" viewBox="0 0 128 128" fill="none" xmlns="http://www.w3.org/2000/svg">
<path d="M127.556 63.7781C127.556 99.0017 99.0017 127.556 63.778 127.556C28.5544 127.556 0 99.0017 0 63.7781C0 28.5545 28.5544 6.10352e-05 63.778 6.10352e-05C99.0017 6.10352e-05 127.556 28.5545 127.556 63.7781Z" fill="#97C0FE"/>
<mask id="mask0_582_43834" style="mask-type:alpha" maskUnits="userSpaceOnUse" x="0" y="0" width="128" height="128">
<circle cx="63.778" cy="63.7781" r="63.778" fill="black"/>
<circle cx="63.778" cy="63.7781" r="63.778" fill="black" fill-opacity="0.2"/>
</mask>
<g mask="url(#mask0_582_43834)">
<path fill-rule="evenodd" clip-rule="evenodd" d="M90.8238 35.2789L90.9735 36.0212C93.9856 50.9611 101.679 63.7334 108.748 74.8106C109.313 75.6961 109.875 76.5714 110.43 77.4365C113.334 81.9645 116.059 86.2126 118.18 90.1786C120.702 94.8967 122.176 98.7088 122.307 102.834L121.055 104.854V103.49C120.935 99.7245 119.349 95.5597 116.856 90.8973C114.767 86.9894 112.081 82.8024 109.176 78.2728C108.619 77.4046 108.054 76.5239 107.484 75.6301C100.415 64.5523 92.5741 51.5688 89.5003 36.3229L89.3506 35.5806L90.8238 35.2789Z" fill="#1A1A1A"/>
<path fill-rule="evenodd" clip-rule="evenodd" d="M64.0614 16.3101L63.0477 16.3653C58.0449 16.638 53.4215 18.0144 49.3758 20.7927C45.3291 23.5716 41.8031 27.7925 39.059 33.8421C34.3436 44.2377 29.0589 52.3291 24.1879 59.7872C22.4612 62.4309 20.7865 64.9951 19.2076 67.5541C13.1663 77.3453 9.12251 88.9972 8.14858 101.533L5.12695 100.025C6.4378 85.2709 11.3398 76.4528 17.4732 66.5124C19.0972 63.8803 20.8004 61.2724 22.5442 58.6025C27.3946 51.1756 32.5587 43.2684 37.2056 33.0238C40.0734 26.7016 43.8161 22.1699 48.2158 19.1485C52.6163 16.1265 57.6167 14.655 62.9357 14.3651L63.9494 14.3098L64.0614 16.3101Z" fill="#1A1A1A"/>
<path d="M91.5314 37.8217C97.488 67.7827 119.001 89.3709 119.001 105.163C114.506 116.02 87.1023 132.216 65.5603 131.586C55.4234 131.29 44.9415 126.784 35.8225 121.383C22.8949 113.727 12.7062 104.274 10.1221 102.47C12.6193 73.3535 27.1032 61.5096 38.0909 32.3932C42.8674 19.7361 52.0917 13.9353 62.0643 13.3722C79.5448 12.3852 88.5348 22.7487 91.5314 37.8217Z" fill="#1A1A1A"/>
<ellipse cx="42.5853" cy="49.8991" rx="4.99444" ry="5.51383" fill="#FAD4B8"/>
<ellipse cx="79.0452" cy="49.8991" rx="4.99444" ry="5.51383" fill="#FEDDC6"/>
<rect x="51.5752" y="61.428" width="19.9778" height="26.0654" fill="#FAD4B8"/>
<path fill-rule="evenodd" clip-rule="evenodd" d="M79.0449 35.9529L52.5245 28.345L43.085 37.3054L43.4845 47.6747L43.0931 53.0847C43.0877 53.2345 43.085 53.3848 43.085 53.5356C43.085 61.7523 53.4235 69.9348 61.0649 70.442C66.0094 70.7702 79.0449 61.7523 79.0449 53.5356C79.0449 53.3848 79.0422 53.2345 79.0368 53.0847C79.0368 53.0847 78.7676 49.8115 78.6454 47.6747C78.4433 44.1432 79.0449 38.6579 79.0449 38.6579V35.9529Z" fill="#FEDDC6"/>
<path d="M46.6772 39.8974C46.7414 39.7968 46.8205 39.7088 46.9173 39.639C47.4195 39.2767 49.1905 38.0928 51.3838 37.7049C52.0018 37.5956 52.5544 38.0437 52.669 38.6607C52.8152 39.448 52.1982 40.1623 51.403 40.2569C50.0343 40.4197 49.0237 40.836 47.837 41.3297C46.9216 41.7106 46.1437 40.7334 46.6772 39.8974Z" fill="black"/>
<ellipse cx="51.0765" cy="46.3903" rx="1.49833" ry="2.00503" fill="#1A1A1A"/>
<ellipse cx="51.0765" cy="46.3903" rx="1.49833" ry="2.00503" fill="#1A1A1A"/>
<ellipse cx="51.0765" cy="46.3903" rx="1.49833" ry="2.00503" fill="#1A1A1A"/>
<ellipse cx="51.0765" cy="46.3903" rx="1.49833" ry="2.00503" fill="#1A1A1A"/>
<ellipse cx="67.0579" cy="46.3903" rx="1.49833" ry="2.00503" fill="#1A1A1A"/>
<ellipse cx="67.0579" cy="46.3903" rx="1.49833" ry="2.00503" fill="#1A1A1A"/>
<ellipse cx="67.0579" cy="46.3903" rx="1.49833" ry="2.00503" fill="#1A1A1A"/>
<ellipse cx="67.0579" cy="46.3903" rx="1.49833" ry="2.00503" fill="#1A1A1A"/>
<ellipse cx="72.0516" cy="53.4079" rx="4.495" ry="4.01006" fill="#FAC8B8" fill-opacity="0.8"/>
<ellipse cx="46.5805" cy="53.9091" rx="3.99555" ry="3.5088" fill="#FAC8B8" fill-opacity="0.8"/>
<path d="M55.6025 59.8558C60.4348 62.6574 63.5819 60.7617 65.3948 59.0943" stroke="#79003A" stroke-width="0.595197" stroke-linecap="round"/>
<path d="M55.7717 50.4003C55.7717 50.4003 54.2696 52.5023 54.6273 53.7666C54.9005 54.7321 55.6819 55.1126 56.4489 55.3257C57.1242 55.5133 57.9247 55.3835 58.5678 55.0771" stroke="#79003A" stroke-width="0.4262" stroke-linecap="round"/>
<path fill-rule="evenodd" clip-rule="evenodd" d="M89.4848 43.8146C89.1539 44.0022 87.0356 42.3803 85.0379 42.8815C83.0401 43.3828 79.5439 44.3853 78.0455 44.8865C76.5472 45.3878 73.7446 44.3062 72.1348 43.3828C71.8863 43.345 70.0545 41.3777 68.5562 36.3652C69.0557 41.3777 71.3325 43.4276 71.0534 43.3828C69.8673 43.1921 68.0568 42.8815 66.059 42.3803C64.7315 41.1694 62.5629 37.3677 61.564 30.3501C61.564 35.3627 63.5618 40.5931 64.5607 41.879C61.541 41.241 57.6537 40.0509 56.0701 38.8715C54.0723 37.8689 53.0735 34.8614 52.9174 31.3526C52.118 32.5688 50.0864 36.2996 47.0801 38.1103C44.1968 39.847 42.8135 39.8069 38.6768 40.1896C38.7639 38.1103 38.8719 36.7595 38.6768 40.1896C38.6768 26.4092 49.9936 17.3174 64.0612 17.3174C78.1288 17.3174 89.5329 28.4885 89.5329 42.2689C89.5329 42.788 89.5167 43.3034 89.4848 43.8146Z" fill="#1A1A1A"/>
<mask id="mask1_582_43834" style="mask-type:alpha" maskUnits="userSpaceOnUse" x="10" y="13" width="110" height="119">
<path d="M91.5324 37.8217C97.4889 67.7827 119.002 89.3709 119.002 105.163C114.507 116.02 87.1033 132.216 65.5613 131.586C55.4244 131.29 44.9425 126.784 35.8234 121.383C22.8958 113.727 12.7072 104.274 10.123 102.47C12.6203 73.3535 27.1041 61.5096 38.0919 32.3932C42.8684 19.7361 52.0926 13.9353 62.0652 13.3722C79.5458 12.3852 88.5358 22.7487 91.5324 37.8217Z" fill="#1A1A1A"/>
</mask>
<g mask="url(#mask1_582_43834)">
<path d="M45.4332 18.3198C48.8663 25.3374 73.3885 28.3277 82.2166 19.3223L89.5732 28.8462C82.707 26.3399 76.4769 28.6939 63.7498 28.8462C55.1275 28.9494 47.395 26.3399 39.5479 27.8437L45.4332 18.3198Z" fill="#363636"/>
</g>
<path d="M79.0312 55.0421C79.1336 55.0493 79.2368 55.053 79.3407 55.053C82.0373 55.053 84.2233 52.5879 84.2233 49.5471C84.2233 46.6922 82.2963 44.3447 79.829 44.0685C78.8525 44.0413 78.3643 44.5418 78.3643 44.5418" stroke="#79003A" stroke-width="0.42514" stroke-linecap="round"/>
<path d="M43.2109 39.6732L43.5939 47.7951L43.2187 53.1723C43.2135 53.3212 43.2109 53.4705 43.2109 53.6204C43.2109 61.7873 53.1195 69.9201 60.4433 70.4242C61.6381 70.5065 63.3259 69.9982 65.1822 69.061" stroke="#79003A" stroke-width="0.42514" stroke-linecap="round"/>
<path d="M13.1836 99.3416L34.9524 81.6968L51.7379 75.5594C51.7379 86.069 71.766 86.5695 71.766 75.5594L88.8392 81.6968L111.322 107.088L91.2935 125.105L81.7802 111.233L78.8469 135.614H44.2309L39.9485 111.233L24.6033 123.507L13.1836 99.3416Z" fill="#F46A99"/>
<path d="M88.6177 81.5135L71.5963 75.5594C71.5963 86.5493 51.2666 86.0497 51.2666 75.5594" stroke="#79003A" stroke-width="0.550712" stroke-linecap="round" stroke-linejoin="round"/>
<path d="M43.943 135.614L39.6427 111.024C38.8884 105.372 38.6671 102.491 38.9113 98.2631" stroke="#79003A" stroke-width="0.42514" stroke-linecap="round"/>
<path d="M80.5614 47.7292C78.9847 47.8542 79.0015 50.8718 79.1751 52.1235" stroke="#79003A" stroke-width="0.42514" stroke-linecap="round"/>
</g>
</svg>
