<svg width="129" height="128" viewBox="0 0 129 128" fill="none" xmlns="http://www.w3.org/2000/svg">
<path d="M128.198 63.778C128.198 99.0017 99.6433 127.556 64.4196 127.556C29.196 127.556 0.641602 99.0017 0.641602 63.778C0.641602 28.5544 29.196 0 64.4196 0C99.6433 0 128.198 28.5544 128.198 63.778Z" fill="#D4B3FF"/>
<mask id="mask0_582_43795" style="mask-type:alpha" maskUnits="userSpaceOnUse" x="0" y="0" width="129" height="128">
<circle cx="64.4196" cy="63.778" r="63.778" fill="#D9D9D9"/>
</mask>
<g mask="url(#mask0_582_43795)">
<path d="M92.0929 37.8492C98.0771 67.8407 106.567 95.665 106.567 111.473C102.052 122.341 87.6431 132.339 66.001 131.709C55.8169 131.412 45.2863 126.902 36.1248 121.496C23.1371 113.832 24.8657 113.279 22.2695 111.473C24.7784 82.327 27.365 61.5612 38.4039 32.4152C43.2026 19.7452 52.4697 13.9386 62.4887 13.3749C80.0505 12.3869 89.0823 22.7609 92.0929 37.8492Z" fill="#1A1A1A"/>
<ellipse cx="42.92" cy="49.9389" rx="5.01767" ry="5.51943" fill="#FAD4B8"/>
<ellipse cx="79.5479" cy="49.9389" rx="5.01767" ry="5.51943" fill="#FEDDC6"/>
<rect x="51.9512" y="61.4795" width="20.0707" height="26.0919" fill="#FAD4B8"/>
<path fill-rule="evenodd" clip-rule="evenodd" d="M79.5481 35.9785L52.9043 28.3629L43.4209 37.3324L43.8223 47.7122L43.429 53.1277C43.4236 53.2776 43.4209 53.4281 43.4209 53.579C43.4209 61.8041 53.8075 69.9949 61.4845 70.5026C66.452 70.8311 79.5481 61.8041 79.5481 53.579C79.5481 53.4281 79.5454 53.2776 79.54 53.1277C79.54 53.1277 79.2695 49.8512 79.1467 47.7122C78.9437 44.1771 79.5481 38.6863 79.5481 38.6863V35.9785Z" fill="#FEDDC6"/>
<path d="M47.031 39.9268C47.0953 39.8263 47.1745 39.7384 47.2714 39.6688C47.7755 39.3064 49.5568 38.1195 51.7625 37.7318C52.3815 37.623 52.9353 38.0717 53.0504 38.6895C53.1973 39.4776 52.5803 40.1923 51.7842 40.2862C50.4044 40.449 49.3871 40.867 48.1913 41.3628C47.2742 41.743 46.4955 40.7627 47.031 39.9268Z" fill="black"/>
<ellipse cx="51.4487" cy="46.4265" rx="1.5053" ry="2.00707" fill="#1A1A1A"/>
<ellipse cx="51.4487" cy="46.4265" rx="1.5053" ry="2.00707" fill="#1A1A1A"/>
<ellipse cx="51.4487" cy="46.4265" rx="1.5053" ry="2.00707" fill="#1A1A1A"/>
<ellipse cx="51.4487" cy="46.4265" rx="1.5053" ry="2.00707" fill="#1A1A1A"/>
<ellipse cx="67.5063" cy="46.4265" rx="1.5053" ry="2.00707" fill="#1A1A1A"/>
<ellipse cx="67.5063" cy="46.4265" rx="1.5053" ry="2.00707" fill="#1A1A1A"/>
<ellipse cx="67.5063" cy="46.4265" rx="1.5053" ry="2.00707" fill="#1A1A1A"/>
<ellipse cx="67.5063" cy="46.4265" rx="1.5053" ry="2.00707" fill="#1A1A1A"/>
<ellipse cx="72.5237" cy="53.4512" rx="4.5159" ry="4.01413" fill="#FAC8B8" fill-opacity="0.8"/>
<ellipse cx="46.9341" cy="53.953" rx="4.01413" ry="3.51237" fill="#FAC8B8" fill-opacity="0.8"/>
<path d="M55.9971 59.9057C60.8518 62.7101 64.0135 60.8125 65.8349 59.1434" stroke="#79003A" stroke-width="0.59939" stroke-linecap="round"/>
<path d="M56.1679 50.4406C56.1679 50.4406 54.6588 52.5447 55.0182 53.8103C55.2926 54.7768 56.0777 55.1576 56.8482 55.371C57.5267 55.5588 58.3309 55.4288 58.977 55.1222" stroke="#79003A" stroke-width="0.429203" stroke-linecap="round"/>
<path fill-rule="evenodd" clip-rule="evenodd" d="M90.0375 43.8482C89.705 44.036 87.5769 42.4124 85.5699 42.9141C83.5628 43.4159 80.0503 44.4194 78.545 44.9212C77.0397 45.423 74.2241 44.3403 72.6068 43.4159C72.3572 43.3781 70.5169 41.4088 69.0116 36.3912C69.5133 41.4088 71.8007 43.4608 71.5204 43.4159C70.3288 43.225 68.5098 42.9141 66.5027 42.4124C65.1691 41.2003 62.9904 37.3947 61.9868 30.37C61.9868 35.3876 63.9939 40.6234 64.9974 41.9106C61.9638 41.2719 58.0583 40.0807 56.4674 38.9C54.4603 37.8965 53.4568 34.8859 53.3 31.3735C52.4969 32.591 50.4559 36.3255 47.4356 38.1381C44.5388 39.8765 43.1491 39.8364 38.9932 40.2195C39.0808 38.1381 39.1892 36.7859 38.9932 40.2195C38.9932 26.4251 50.3626 17.324 64.4957 17.324C78.6287 17.324 90.0858 28.5065 90.0858 42.3009C90.0858 42.8205 90.0695 43.3364 90.0375 43.8482Z" fill="#1A1A1A"/>
<mask id="mask1_582_43795" style="mask-type:alpha" maskUnits="userSpaceOnUse" x="36" y="13" width="58" height="44">
<path d="M92.0941 37.8492C98.0783 67.8406 84.1097 52.1316 68.3018 52.1316C68.3018 52.1316 27.3662 61.5611 38.405 32.4152C43.2037 19.7452 52.4709 13.9385 62.4898 13.3749C80.0517 12.3869 89.0835 22.7608 92.0941 37.8492Z" fill="#1A1A1A"/>
</mask>
<g mask="url(#mask1_582_43795)">
<path d="M45.7809 18.3275C49.23 25.3522 73.8662 28.3456 82.7353 19.331L90.1262 28.8646C83.228 26.3558 76.969 28.7121 64.1827 28.8646C55.5203 28.9679 47.7518 26.3558 39.8682 27.8611L45.7809 18.3275Z" fill="#363636"/>
</g>
<path d="M79.2323 55.4474C79.3375 55.4547 79.4435 55.4584 79.5504 55.4584C82.3216 55.4584 84.5681 52.9813 84.5681 49.9258C84.5681 47.057 82.5878 44.6982 80.0522 44.4206C79.0486 44.3933 78.5469 44.8962 78.5469 44.8962" stroke="#79003A" stroke-width="0.428136" stroke-linecap="round"/>
<path d="M43.4229 39.9036L43.8076 47.9855L43.4307 53.3361C43.4255 53.4842 43.4229 53.6329 43.4229 53.782C43.4229 61.9085 53.3795 70.0012 60.7387 70.5028C61.9394 70.5846 63.6354 70.0788 65.5006 69.1463" stroke="#79003A" stroke-width="0.428136" stroke-linecap="round"/>
<path d="M13.3164 99.3734L35.1314 81.6824L51.9524 75.529C51.9524 86.0661 72.0231 86.5679 72.0231 75.529L89.1324 81.6824L111.663 107.14L91.592 125.204L82.0584 111.296L79.119 135.741H44.4296L40.1381 111.296L24.7603 123.602L13.3164 99.3734Z" fill="white"/>
<path d="M89.1325 81.6825L72.184 75.7018C72.184 86.7407 51.9414 86.2389 51.9414 75.7018" stroke="#79003A" stroke-width="0.554592" stroke-linecap="round" stroke-linejoin="round"/>
<path d="M44.4305 135.741L40.139 111.296C39.3863 105.677 39.1654 102.813 39.4092 98.6103" stroke="#79003A" stroke-width="0.428136" stroke-linecap="round"/>
<path d="M81.402 47.8712C79.5911 48.0005 79.6104 51.1245 79.8097 52.4203" stroke="#79003A" stroke-width="0.428136" stroke-linecap="round"/>
<path d="M79.9482 98.7173H68.3018V107.868L74.125 112.305L79.9482 107.868V98.7173Z" fill="white" stroke="#79003A" stroke-width="0.554592"/>
<mask id="path-25-outside-1_582_43795" maskUnits="userSpaceOnUse" x="42.3447" y="40.0398" width="37" height="13" fill="black">
<rect fill="white" x="42.3447" y="40.0398" width="37" height="13"/>
<path fill-rule="evenodd" clip-rule="evenodd" d="M55.1807 46.5725H55.1895C55.1815 43.8781 52.7167 41.5944 49.5444 41.5944C46.367 41.5944 43.8993 43.8856 43.8993 46.5857C43.8993 49.2858 46.367 51.577 49.5444 51.577C52.6117 51.577 55.0176 49.4419 55.1807 46.8649V46.5725ZM49.5444 41.0398C52.9635 41.0398 55.7361 43.5156 55.7441 46.5725H60.253C60.261 43.5156 63.0336 41.0398 66.4527 41.0398C69.8363 41.0398 72.5868 43.4646 72.6512 46.4776L77.6464 44.9994C77.7932 44.9559 77.9475 45.0397 77.991 45.1866C78.0344 45.3334 77.9506 45.4877 77.8037 45.5311L72.6298 47.0623C72.3596 49.9021 69.6972 52.1316 66.4527 52.1316C63.2329 52.1316 60.5863 49.936 60.2821 47.1271H55.715C55.4108 49.936 52.7642 52.1316 49.5444 52.1316C46.1204 52.1316 43.3447 49.6486 43.3447 46.5857C43.3447 43.5228 46.1204 41.0398 49.5444 41.0398ZM72.0978 46.5857C72.0978 49.2858 69.6301 51.577 66.4527 51.577C63.2752 51.577 60.8076 49.2858 60.8076 46.5857C60.8076 43.8856 63.2752 41.5944 66.4527 41.5944C69.6301 41.5944 72.0978 43.8856 72.0978 46.5857Z"/>
</mask>
<path fill-rule="evenodd" clip-rule="evenodd" d="M55.1807 46.5725H55.1895C55.1815 43.8781 52.7167 41.5944 49.5444 41.5944C46.367 41.5944 43.8993 43.8856 43.8993 46.5857C43.8993 49.2858 46.367 51.577 49.5444 51.577C52.6117 51.577 55.0176 49.4419 55.1807 46.8649V46.5725ZM49.5444 41.0398C52.9635 41.0398 55.7361 43.5156 55.7441 46.5725H60.253C60.261 43.5156 63.0336 41.0398 66.4527 41.0398C69.8363 41.0398 72.5868 43.4646 72.6512 46.4776L77.6464 44.9994C77.7932 44.9559 77.9475 45.0397 77.991 45.1866C78.0344 45.3334 77.9506 45.4877 77.8037 45.5311L72.6298 47.0623C72.3596 49.9021 69.6972 52.1316 66.4527 52.1316C63.2329 52.1316 60.5863 49.936 60.2821 47.1271H55.715C55.4108 49.936 52.7642 52.1316 49.5444 52.1316C46.1204 52.1316 43.3447 49.6486 43.3447 46.5857C43.3447 43.5228 46.1204 41.0398 49.5444 41.0398ZM72.0978 46.5857C72.0978 49.2858 69.6301 51.577 66.4527 51.577C63.2752 51.577 60.8076 49.2858 60.8076 46.5857C60.8076 43.8856 63.2752 41.5944 66.4527 41.5944C69.6301 41.5944 72.0978 43.8856 72.0978 46.5857Z" fill="white"/>
<path d="M55.1895 46.5725V47.1271H55.7458L55.7441 46.5708L55.1895 46.5725ZM55.1807 46.5725V46.0179H54.6261V46.5725H55.1807ZM55.1807 46.8649L55.7342 46.9L55.7353 46.8825V46.8649H55.1807ZM55.7441 46.5725L55.1895 46.5739L55.191 47.1271H55.7441V46.5725ZM60.253 46.5725V47.1271H60.8062L60.8076 46.5739L60.253 46.5725ZM72.6512 46.4776L72.0968 46.4895L72.1123 47.2155L72.8086 47.0094L72.6512 46.4776ZM77.6464 44.9994L77.489 44.4676L77.6464 44.9994ZM77.991 45.1866L77.4592 45.3439L77.4592 45.3439L77.991 45.1866ZM77.8037 45.5311L77.6464 44.9994L77.8037 45.5311ZM72.6298 47.0623L72.4724 46.5305L72.1132 46.6368L72.0777 47.0098L72.6298 47.0623ZM60.2821 47.1271L60.8335 47.0674L60.7799 46.5725H60.2821V47.1271ZM55.715 47.1271V46.5725H55.2172L55.1636 47.0674L55.715 47.1271ZM55.1895 46.0179H55.1807V47.1271H55.1895V46.0179ZM49.5444 42.149C52.4685 42.149 54.628 44.2399 54.6349 46.5742L55.7441 46.5708C55.735 43.5164 52.9649 41.0398 49.5444 41.0398V42.149ZM44.4539 46.5857C44.4539 44.2467 46.6154 42.149 49.5444 42.149V41.0398C46.1185 41.0398 43.3447 43.5245 43.3447 46.5857H44.4539ZM49.5444 51.0224C46.6154 51.0224 44.4539 48.9248 44.4539 46.5857H43.3447C43.3447 49.6469 46.1185 52.1316 49.5444 52.1316V51.0224ZM54.6272 46.8299C54.4856 49.067 52.3695 51.0224 49.5444 51.0224V52.1316C52.854 52.1316 55.5496 49.8168 55.7342 46.9L54.6272 46.8299ZM54.6261 46.5725V46.8649H55.7353V46.5725H54.6261ZM56.2987 46.5711C56.2898 43.1523 53.2098 40.4852 49.5444 40.4852V41.5944C52.7172 41.5944 55.1825 43.879 55.1895 46.5739L56.2987 46.5711ZM60.253 46.0179H55.7441V47.1271H60.253V46.0179ZM66.4527 40.4852C62.7873 40.4852 59.7073 43.1523 59.6984 46.5711L60.8076 46.5739C60.8146 43.879 63.2799 41.5944 66.4527 41.5944V40.4852ZM73.2057 46.4658C73.1337 43.097 70.0808 40.4852 66.4527 40.4852V41.5944C69.5919 41.5944 72.04 43.8322 72.0968 46.4895L73.2057 46.4658ZM72.8086 47.0094L77.8037 45.5311L77.489 44.4676L72.4939 45.9458L72.8086 47.0094ZM77.8037 45.5311C77.6569 45.5746 77.5026 45.4908 77.4592 45.3439L78.5228 45.0292C78.3924 44.5886 77.9295 44.3372 77.489 44.4676L77.8037 45.5311ZM77.4592 45.3439C77.4157 45.1971 77.4995 45.0428 77.6464 44.9994L77.9611 46.0629C78.4017 45.9326 78.6531 45.4697 78.5227 45.0292L77.4592 45.3439ZM77.6464 44.9994L72.4724 46.5305L72.7872 47.5941L77.9611 46.0629L77.6464 44.9994ZM66.4527 52.6862C69.9342 52.6862 72.8802 50.2856 73.1819 47.1149L72.0777 47.0098C71.839 49.5187 69.4602 51.577 66.4527 51.577V52.6862ZM59.7308 47.1868C60.0703 50.3221 62.9972 52.6862 66.4527 52.6862V51.577C63.4685 51.577 61.1024 49.5498 60.8335 47.0674L59.7308 47.1868ZM55.715 47.6817H60.2821V46.5725H55.715V47.6817ZM49.5444 52.6862C52.9999 52.6862 55.9268 50.3221 56.2663 47.1868L55.1636 47.0674C54.8948 49.5498 52.5286 51.577 49.5444 51.577V52.6862ZM42.7901 46.5857C42.7901 50.0114 45.8739 52.6862 49.5444 52.6862V51.577C46.367 51.577 43.8993 49.2858 43.8993 46.5857H42.7901ZM49.5444 40.4852C45.8739 40.4852 42.7901 43.16 42.7901 46.5857H43.8993C43.8993 43.8856 46.367 41.5944 49.5444 41.5944V40.4852ZM66.4527 52.1316C69.8786 52.1316 72.6524 49.6469 72.6524 46.5857H71.5432C71.5432 48.9248 69.3817 51.0224 66.4527 51.0224V52.1316ZM60.253 46.5857C60.253 49.6469 63.0268 52.1316 66.4527 52.1316V51.0224C63.5237 51.0224 61.3622 48.9248 61.3622 46.5857H60.253ZM66.4527 41.0398C63.0268 41.0398 60.253 43.5245 60.253 46.5857H61.3622C61.3622 44.2467 63.5237 42.149 66.4527 42.149V41.0398ZM72.6524 46.5857C72.6524 43.5245 69.8786 41.0398 66.4527 41.0398V42.149C69.3817 42.149 71.5432 44.2467 71.5432 46.5857H72.6524Z" fill="#7E7E7E" mask="url(#path-25-outside-1_582_43795)"/>
<path d="M75.5117 95.9444C75.5117 95.6381 75.76 95.3898 76.0663 95.3898H77.7301C78.0364 95.3898 78.2847 95.6381 78.2847 95.9444V98.44H75.5117V95.9444Z" fill="#3655A4"/>
<rect x="76.0664" y="94.8351" width="1.66378" height="8.31888" rx="0.554592" fill="#3655A4"/>
</g>
</svg>
