<svg width="128" height="128" viewBox="0 0 128 128" fill="none" xmlns="http://www.w3.org/2000/svg">
<path d="M127.839 63.7781C127.839 99.0017 99.2849 127.556 64.0612 127.556C28.8376 127.556 0.283203 99.0017 0.283203 63.7781C0.283203 28.5545 28.8376 6.10352e-05 64.0612 6.10352e-05C99.2849 6.10352e-05 127.839 28.5545 127.839 63.7781Z" fill="#C5FFBB"/>
<mask id="mask0_582_43763" style="mask-type:alpha" maskUnits="userSpaceOnUse" x="0" y="0" width="128" height="128">
<circle cx="64.0612" cy="63.7781" r="63.778" fill="#D9D9D9"/>
</mask>
<g mask="url(#mask0_582_43763)">
<path d="M91.7364 37.8493C97.7206 67.8407 75.9855 70.4332 74.5992 70.4332C80.977 70.4332 85.691 78.4748 76.5403 83.7434C67.7108 88.8271 67.6668 82.0796 67.6668 82.0796C54.6791 74.4159 71.0949 72.2393 68.4988 70.4332C51.0291 73.4835 27.0085 61.5612 38.0474 32.4153C42.8461 19.7453 52.1132 13.9386 62.1322 13.375C79.694 12.387 88.7258 22.761 91.7364 37.8493Z" fill="#1A1A1A"/>
<ellipse cx="42.5636" cy="49.939" rx="5.01767" ry="5.51943" fill="#FAD4B8"/>
<ellipse cx="79.1925" cy="49.939" rx="5.01767" ry="5.51943" fill="#FEDDC6"/>
<rect x="51.5947" y="61.4796" width="20.0707" height="26.0919" fill="#FAD4B8"/>
<path fill-rule="evenodd" clip-rule="evenodd" d="M79.1926 35.9786L52.5488 28.363L43.0654 37.3325L43.4668 47.7123L43.0736 53.1278C43.0682 53.2777 43.0654 53.4281 43.0654 53.5791C43.0654 61.8041 53.452 69.995 61.129 70.5027C66.0965 70.8312 79.1926 61.8041 79.1926 53.5791C79.1926 53.4281 79.1899 53.2777 79.1845 53.1278C79.1845 53.1278 78.914 49.8513 78.7912 47.7123C78.5882 44.1772 79.1926 38.6864 79.1926 38.6864V35.9786Z" fill="#FEDDC6"/>
<path d="M46.6745 39.9268C46.7389 39.8264 46.8181 39.7385 46.9149 39.6688C47.419 39.3064 49.2003 38.1196 51.4061 37.7318C52.025 37.623 52.5789 38.0718 52.694 38.6896C52.8408 39.4776 52.2238 40.1924 51.4278 40.2863C50.048 40.449 49.0307 40.867 47.8348 41.3628C46.9178 41.743 46.1391 40.7628 46.6745 39.9268Z" fill="black"/>
<ellipse cx="51.0932" cy="46.4266" rx="1.5053" ry="2.00707" fill="#1A1A1A"/>
<ellipse cx="51.0932" cy="46.4266" rx="1.5053" ry="2.00707" fill="#1A1A1A"/>
<ellipse cx="51.0932" cy="46.4266" rx="1.5053" ry="2.00707" fill="#1A1A1A"/>
<ellipse cx="51.0932" cy="46.4266" rx="1.5053" ry="2.00707" fill="#1A1A1A"/>
<ellipse cx="67.1498" cy="46.4266" rx="1.5053" ry="2.00707" fill="#1A1A1A"/>
<ellipse cx="67.1498" cy="46.4266" rx="1.5053" ry="2.00707" fill="#1A1A1A"/>
<ellipse cx="67.1498" cy="46.4266" rx="1.5053" ry="2.00707" fill="#1A1A1A"/>
<ellipse cx="67.1498" cy="46.4266" rx="1.5053" ry="2.00707" fill="#1A1A1A"/>
<ellipse cx="72.1673" cy="53.4513" rx="4.5159" ry="4.01413" fill="#FAC8B8" fill-opacity="0.8"/>
<ellipse cx="46.5776" cy="53.953" rx="4.01413" ry="3.51237" fill="#FAC8B8" fill-opacity="0.8"/>
<path d="M55.6406 59.9058C60.4954 62.7102 63.6571 60.8125 65.4785 59.1435" stroke="#79003A" stroke-width="0.59939" stroke-linecap="round"/>
<path d="M55.8114 50.4407C55.8114 50.4407 54.3024 52.5448 54.6618 53.8104C54.9362 54.7768 55.7213 55.1577 56.4918 55.371C57.1703 55.5588 57.9744 55.4289 58.6206 55.1222" stroke="#79003A" stroke-width="0.429203" stroke-linecap="round"/>
<path fill-rule="evenodd" clip-rule="evenodd" d="M89.681 43.8482C89.3486 44.036 87.2205 42.4124 85.2134 42.9142C83.2064 43.416 79.6939 44.4195 78.1886 44.9213C76.6833 45.423 73.8676 44.3403 72.2503 43.416C72.0007 43.3782 70.1604 41.4089 68.6551 36.3912C69.1569 41.4089 71.4443 43.4609 71.164 43.416C69.9723 43.2251 68.1534 42.9142 66.1463 42.4124C64.8126 41.2003 62.6339 37.3948 61.6304 30.37C61.6304 35.3877 63.6375 40.6234 64.641 41.9107C61.6073 41.272 57.7019 40.0807 56.111 38.9001C54.1039 37.8965 53.1004 34.8859 52.9436 31.3736C52.1405 32.591 50.0994 36.3256 47.0792 38.1381C44.1824 39.8766 42.7927 39.8365 38.6367 40.2195C38.7243 38.1381 38.8327 36.7859 38.6367 40.2195C38.6367 26.4252 50.0062 17.3241 64.1392 17.3241C78.2723 17.3241 89.7293 28.5066 89.7293 42.3009C89.7293 42.8205 89.7131 43.3365 89.681 43.8482Z" fill="#1A1A1A"/>
<mask id="mask1_582_43763" style="mask-type:alpha" maskUnits="userSpaceOnUse" x="28" y="13" width="69" height="110">
<path d="M91.7367 37.8493C92.393 41.1384 93.1784 45.7539 93.1784 49.3587C98.1697 89.5666 96.2287 92.4074 96.2287 106.482C91.7128 117.35 81.2677 96.8521 59.6256 96.2217C49.4415 95.9251 44.9301 126.902 35.7687 121.496C22.781 113.832 31.1646 117.716 28.5685 115.91C30.8147 89.8149 24.0942 64.233 34.4833 41.0399C35.698 38.328 36.8921 35.4664 38.0477 32.4153C42.8464 19.7453 52.1135 13.9386 62.1325 13.375C79.6943 12.387 88.7261 22.761 91.7367 37.8493Z" fill="#1A1A1A"/>
</mask>
<g mask="url(#mask1_582_43763)">
<path d="M45.4254 18.3276C48.8745 25.3523 73.5108 28.3456 82.3798 19.3311L89.7707 28.8647C82.8726 26.3558 76.6135 28.7122 63.8272 28.8647C55.1648 28.968 47.3963 26.3558 39.5127 27.8611L45.4254 18.3276Z" fill="#363636"/>
</g>
<path d="M78.8739 55.4475C78.9791 55.4547 79.0851 55.4584 79.192 55.4584C81.9632 55.4584 84.2097 52.9814 84.2097 49.9259C84.2097 47.057 82.2294 44.6982 79.6938 44.4206C78.6902 44.3933 78.1885 44.8963 78.1885 44.8963" stroke="#79003A" stroke-width="0.428136" stroke-linecap="round"/>
<path d="M43.0654 39.9036L43.4502 47.9855L43.0732 53.3361C43.068 53.4842 43.0654 53.6329 43.0654 53.782C43.0654 61.9085 53.0221 70.0012 60.3813 70.5028C61.5819 70.5846 63.2779 70.0788 65.1432 69.1463" stroke="#79003A" stroke-width="0.428136" stroke-linecap="round"/>
<path d="M12.959 99.3735L34.774 81.6825L51.595 75.5291C51.595 86.0662 71.6657 86.5679 71.6657 75.5291L88.775 81.6825L111.305 107.14L91.2346 125.204L81.701 111.296L78.7616 135.741H44.0722L39.7807 111.296L24.4029 123.603L12.959 99.3735Z" fill="#277A83"/>
<path d="M88.7751 81.6825L71.8266 75.7018C71.8266 86.7407 51.584 86.2389 51.584 75.7018" stroke="#79003A" stroke-width="0.554592" stroke-linecap="round" stroke-linejoin="round"/>
<path d="M44.0731 135.741L39.7816 111.296C39.0289 105.677 38.808 102.813 39.0518 98.6103" stroke="#79003A" stroke-width="0.428136" stroke-linecap="round"/>
<path d="M81.0445 47.8712C79.2337 48.0006 79.253 51.1246 79.4523 52.4204" stroke="#79003A" stroke-width="0.428136" stroke-linecap="round"/>
<path d="M61.6887 98.9783C61.4766 99.082 61.2442 99.1633 60.9916 99.2219C61.2442 99.2806 61.4766 99.3618 61.6887 99.4656L64.1456 100.731C64.2494 100.781 64.3238 100.844 64.369 100.921C64.4141 100.997 64.4366 101.081 64.4366 101.171V102.362L59.0693 99.5603V98.8835L64.4366 96.0882V97.2794C64.4366 97.3696 64.4141 97.4531 64.369 97.5298C64.3238 97.602 64.2494 97.6652 64.1456 97.7193L61.6887 98.9783Z" fill="black"/>
<path d="M67.8896 103.804C67.8129 104.012 67.6888 104.167 67.5173 104.271C67.3504 104.375 67.1789 104.427 67.0029 104.427H66.2922L70.245 94.3149C70.3172 94.1253 70.4277 93.981 70.5766 93.8817C70.7255 93.7779 70.8992 93.726 71.0978 93.726H71.8152L67.8896 103.804Z" fill="black"/>
<path d="M79.0346 98.8835V99.5603L73.6673 102.362V101.171C73.6673 101.081 73.6899 100.997 73.735 100.921C73.7801 100.844 73.8546 100.781 73.9584 100.731L76.4153 99.4656C76.6274 99.3618 76.8597 99.2806 77.1124 99.2219C76.8597 99.1633 76.6274 99.082 76.4153 98.9783L73.9584 97.7193C73.8546 97.6652 73.7801 97.602 73.735 97.5298C73.6899 97.4531 73.6673 97.3696 73.6673 97.2794V96.0882L79.0346 98.8835Z" fill="black"/>
</g>
</svg>
