<svg width="128" height="128" viewBox="0 0 128 128" fill="none" xmlns="http://www.w3.org/2000/svg">
<path d="M127.556 63.778C127.556 99.0017 99.0017 127.556 63.778 127.556C28.5544 127.556 0 99.0017 0 63.778C0 28.5544 28.5544 0 63.778 0C99.0017 0 127.556 28.5544 127.556 63.778Z" fill="#FFB09E"/>
<mask id="mask0_582_43727" style="mask-type:alpha" maskUnits="userSpaceOnUse" x="0" y="0" width="128" height="128">
<circle cx="63.778" cy="63.778" r="63.778" fill="#D9D9D9"/>
</mask>
<g mask="url(#mask0_582_43727)">
<path d="M91.4515 37.8492C93.4478 70.1558 91.7843 76.2563 98.4394 97.3308C113.691 111.75 98.4522 131.791 76.8101 131.161C66.626 130.864 38.554 126.307 29.3925 120.901C16.4048 113.237 29.2159 101.355 26.6198 99.5491C31.8884 99.5491 28.2833 64.0553 37.7625 32.4152C41.6508 19.4368 51.8284 13.9385 61.8473 13.3749C79.4092 12.3869 90.5026 22.4927 91.4515 37.8492Z" fill="#1A1A1A"/>
<ellipse cx="42.2774" cy="49.9389" rx="5.01767" ry="5.51943" fill="#FAD4B8"/>
<ellipse cx="78.9073" cy="49.9389" rx="5.01767" ry="5.51943" fill="#FEDDC6"/>
<rect x="51.3096" y="61.4795" width="20.0707" height="26.0919" fill="#FAD4B8"/>
<path fill-rule="evenodd" clip-rule="evenodd" d="M78.9075 35.9784L52.2637 28.3628L42.7803 37.3323L43.1817 47.7121L42.7884 53.1276C42.783 53.2775 42.7803 53.4279 42.7803 53.5789C42.7803 61.8039 53.1668 69.9948 60.8439 70.5025C65.8114 70.831 78.9075 61.8039 78.9075 53.5789C78.9075 53.4279 78.9047 53.2775 78.8993 53.1276C78.8993 53.1276 78.6289 49.8511 78.5061 47.7121C78.3031 44.177 78.9075 38.6862 78.9075 38.6862V35.9784Z" fill="#FEDDC6"/>
<path d="M46.3893 39.9266C46.4537 39.8261 46.5329 39.7382 46.6298 39.6686C47.1339 39.3062 48.9151 38.1194 51.1209 37.7316C51.7399 37.6228 52.2937 38.0715 52.4088 38.6894C52.5557 39.4774 51.9387 40.1922 51.1426 40.286C49.7628 40.4488 48.7455 40.8668 47.5497 41.3626C46.6326 41.7428 45.8539 40.7626 46.3893 39.9266Z" fill="black"/>
<ellipse cx="50.808" cy="46.4265" rx="1.5053" ry="2.00707" fill="#1A1A1A"/>
<ellipse cx="50.808" cy="46.4265" rx="1.5053" ry="2.00707" fill="#1A1A1A"/>
<ellipse cx="50.808" cy="46.4265" rx="1.5053" ry="2.00707" fill="#1A1A1A"/>
<ellipse cx="50.808" cy="46.4265" rx="1.5053" ry="2.00707" fill="#1A1A1A"/>
<ellipse cx="66.8647" cy="46.4265" rx="1.5053" ry="2.00707" fill="#1A1A1A"/>
<ellipse cx="66.8647" cy="46.4265" rx="1.5053" ry="2.00707" fill="#1A1A1A"/>
<ellipse cx="66.8647" cy="46.4265" rx="1.5053" ry="2.00707" fill="#1A1A1A"/>
<ellipse cx="66.8647" cy="46.4265" rx="1.5053" ry="2.00707" fill="#1A1A1A"/>
<ellipse cx="71.8821" cy="53.4511" rx="4.5159" ry="4.01413" fill="#FAC8B8" fill-opacity="0.8"/>
<ellipse cx="46.2925" cy="53.9528" rx="4.01413" ry="3.51237" fill="#FAC8B8" fill-opacity="0.8"/>
<path d="M55.3555 59.9058C60.2102 62.7102 63.3719 60.8125 65.1933 59.1435" stroke="#79003A" stroke-width="0.59939" stroke-linecap="round"/>
<path d="M55.5253 50.4404C55.5253 50.4404 54.0163 52.5445 54.3756 53.8101C54.6501 54.7766 55.4351 55.1575 56.2057 55.3708C56.8841 55.5586 57.6883 55.4287 58.3344 55.122" stroke="#79003A" stroke-width="0.429203" stroke-linecap="round"/>
<path fill-rule="evenodd" clip-rule="evenodd" d="M89.3959 43.8481C89.0634 44.0359 86.9353 42.4123 84.9283 42.9141C82.9212 43.4158 79.4087 44.4194 77.9034 44.9211C76.3981 45.4229 73.5825 44.3402 71.9652 43.4158C71.7156 43.3781 69.8753 41.4088 68.37 36.3911C68.8717 41.4088 71.1591 43.4607 70.8788 43.4158C69.6872 43.225 67.8682 42.9141 65.8611 42.4123C64.5275 41.2002 62.3488 37.3946 61.3452 30.3699C61.3452 35.3876 63.3523 40.6233 64.3558 41.9105C61.3222 41.2719 57.4167 40.0806 55.8258 38.8999C53.8187 37.8964 52.8152 34.8858 52.6584 31.3734C51.8553 32.5909 49.8143 36.3254 46.794 38.138C43.8972 39.8764 42.5075 39.8363 38.3516 40.2194C38.4392 38.138 38.5476 36.7858 38.3516 40.2194C38.3516 26.4251 49.721 17.324 63.8541 17.324C77.9871 17.324 89.4442 28.5065 89.4442 42.3008C89.4442 42.8204 89.4279 43.3363 89.3959 43.8481Z" fill="#1A1A1A"/>
<mask id="mask1_582_43727" style="mask-type:alpha" maskUnits="userSpaceOnUse" x="32" y="13" width="61" height="119">
<path d="M91.4514 37.8491C97.4356 67.8406 65.3595 84.0184 65.3595 99.8264C60.8436 110.694 87.0016 132.339 65.3595 131.709C55.1754 131.412 44.6448 126.902 35.4833 121.496C22.4956 113.832 50.2901 69.4661 47.694 67.6601C50.2028 38.5141 26.7235 61.5611 37.7624 32.4151C42.5611 19.7451 51.8282 13.9385 61.8472 13.3748C79.409 12.3868 88.4408 22.7608 91.4514 37.8491Z" fill="#1A1A1A"/>
</mask>
<g mask="url(#mask1_582_43727)">
<path d="M45.1393 18.3274C48.5884 25.3521 73.2246 28.3455 82.0937 19.3309L89.4846 28.8645C82.5864 26.3557 76.3274 28.712 63.5411 28.8645C54.8787 28.9678 47.1102 26.3557 39.2266 27.861L45.1393 18.3274Z" fill="#363636"/>
</g>
<path d="M78.5897 55.4474C78.6949 55.4546 78.801 55.4583 78.9078 55.4583C81.679 55.4583 83.9255 52.9813 83.9255 49.9257C83.9255 47.0569 81.9452 44.6981 79.4096 44.4205C78.4061 44.3932 77.9043 44.8962 77.9043 44.8962" stroke="#79003A" stroke-width="0.428136" stroke-linecap="round"/>
<path d="M42.7812 39.9034L43.166 47.9853L42.789 53.3359C42.7839 53.484 42.7812 53.6327 42.7812 53.7818C42.7812 61.9083 52.7379 70.001 60.0971 70.5026C61.2978 70.5844 62.9937 70.0787 64.859 69.1461" stroke="#79003A" stroke-width="0.428136" stroke-linecap="round"/>
<path d="M12.6748 99.3734L34.4898 81.6823L51.3108 75.5289C51.3108 86.066 71.3815 86.5678 71.3815 75.5289L88.4908 81.6823L111.021 107.14L90.9504 125.204L81.4168 111.296L78.4774 135.741H43.788L39.4965 111.296L24.1187 123.602L12.6748 99.3734Z" fill="#E1D0F7"/>
<path d="M41.3168 92.8941L42.8999 78.6057L47.1052 77.0674V92.8941C47.1052 88.1801 47.1052 96.6424 47.1052 92.8941C50.1443 92.8941 73.6281 92.8983 75.1469 92.8941L75.6584 77.0674L79.9358 78.6057L79.8609 93.1714L82.6338 98.1628L81.4164 111.296L78.477 135.741H43.7876L39.4961 111.296C38.1354 102.11 38.5751 101.685 38.821 98.4401L41.3168 92.8941Z" fill="#815A3B"/>
<path d="M88.4909 81.6823L71.5424 75.7017C71.5424 86.7405 51.2998 86.2388 51.2998 75.7017" stroke="#79003A" stroke-width="0.554592" stroke-linecap="round" stroke-linejoin="round"/>
<path d="M43.7879 135.741L39.4965 111.295C38.7437 105.677 38.5228 102.813 38.7666 98.6101" stroke="#79003A" stroke-width="0.428136" stroke-linecap="round"/>
<path d="M80.7603 47.8711C78.9495 48.0004 78.9688 51.1244 79.1681 52.4202" stroke="#79003A" stroke-width="0.428136" stroke-linecap="round"/>
<path d="M90.6607 36.6301C68.3159 29.7039 51.6388 28.2895 38.4183 33.4925C37.5582 33.831 36.6372 33.0697 36.8503 32.1702L38.4059 25.6021C38.5964 24.7977 37.8681 24.0516 37.0484 24.1585C34.5823 24.4803 30.37 24.5829 29.948 21.6289C29.116 15.8057 24.7114 16.2528 25.7888 12.4781C26.6907 9.31806 31.9254 7.60421 33.7544 7.09557C34.1436 6.98734 34.4539 6.69377 34.5819 6.31061C35.0789 4.82283 36.492 1.06098 38.5442 -0.554744C42.139 -3.38487 48.9865 1.98823 52.3644 5.03598C53.1057 5.70479 54.4871 5.18419 54.7166 4.21254C55.3763 1.42043 57.2228 -2.61477 62.3916 -3.32771C74.5781 -5.00859 80.4727 5.82178 82.1309 9.5705C82.4137 10.21 83.1987 10.481 83.8452 10.2146C89.2123 8.00319 94.4693 11.6215 95.3899 16.6376C96.0408 20.1845 95.0368 20.9763 91.1053 24.5639C90.8366 24.8091 90.7051 25.1715 90.7543 25.5319L92.1024 35.4185C92.2125 36.2259 91.439 36.8714 90.6607 36.6301Z" fill="white"/>
<path d="M51.5771 20.5198L55.4593 19.6879C56.218 17.089 55.9489 15.6318 55.4593 13.0328C56.1332 15.6566 56.5235 17.1978 57.1231 19.4106C64.5352 18.6364 69.2693 19.1389 77.643 20.5198C78.454 19.1945 77.9425 17.1922 77.643 14.4193C79.3654 17.4255 80.2873 19.113 80.6932 22.1836L85.4072 18.3015C83.811 21.0932 83.1542 22.5811 85.4072 24.1247C87.2271 24.888 86.2391 24.6793 88.4575 24.1247C88.2043 26.7442 89.2796 29.1627 90.7393 32.5679C91.0162 33.1436 91.2723 33.7486 91.5077 34.3846C91.2437 33.7471 90.986 33.1434 90.7393 32.5679C85.5603 21.8003 73.0919 21.2985 51.5771 20.5198Z" fill="#D9D9D9" fill-opacity="0.2"/>
</g>
</svg>
