<svg width="70" height="71" viewBox="0 0 70 71" fill="none" xmlns="http://www.w3.org/2000/svg">
<path d="M62.175 37.8365C62.4373 42.3526 60.3686 46.6938 56.6684 49.3452L58.9118 53.6864C59.582 54.9975 59.6694 56.5417 59.0867 57.9111C58.5331 59.2805 57.3968 60.3585 55.9983 60.8247L53.6965 61.5531C52.7381 61.8759 51.7034 61.8953 50.7336 61.6085C49.7637 61.3218 48.906 60.7428 48.2773 59.9506L42.1005 52.6666C39.5074 52.2296 37.06 51.1224 34.9913 49.4617C33.5346 49.8987 32.0778 50.1318 30.621 50.1318C28.057 50.1318 25.4931 49.3452 23.337 47.8301C21.7928 48.2963 20.2195 48.5002 18.617 48.4711C16.3153 48.5002 14.0427 48.0341 11.9158 47.16C9.86852 46.2465 8.11921 44.7761 6.86737 42.9163C5.61553 41.0566 4.91157 38.8825 4.83579 36.642C4.6027 34.5442 4.95233 32.4173 5.85554 30.4943C5.0106 28.3091 4.92319 25.92 5.65159 23.7057C6.72961 20.9378 8.76912 18.636 11.3039 17.1792C12.9938 12.2553 17.7429 8.96294 22.9583 9.31257C27.62 4.9422 34.7583 4.47602 39.9444 8.23454C41.1681 7.91405 42.4501 7.73923 43.7321 7.73923C47.6946 7.65183 51.4531 9.39997 53.9296 12.5175C59.8733 14.0617 64.1271 19.3644 64.3602 25.5412C64.5059 28.7753 63.6318 31.9511 61.8545 34.6607C62.0585 35.7096 62.175 36.7585 62.175 37.8365ZM47.6071 33.7284C49.2679 33.9323 50.579 35.1852 50.579 36.8459C50.579 37.6186 50.272 38.3597 49.7256 38.9061C49.1792 39.4525 48.4381 39.7595 47.6654 39.7595H45.8299C44.8975 42.3817 43.2659 44.6834 41.1099 46.4316C41.8383 46.6938 42.5958 46.8395 43.3533 47.0434C58.3 46.8395 56.5518 37.72 56.5518 37.5743C56.4745 35.5729 55.6053 33.6843 54.1355 32.3237C52.6657 30.9632 50.7157 30.2423 48.7143 30.3195C47.9416 30.3195 47.2005 30.0125 46.6541 29.4661C46.1077 28.9197 45.8007 28.1786 45.8007 27.4059C45.8007 26.6332 46.1077 25.8921 46.6541 25.3457C47.2005 24.7993 47.9416 24.4923 48.7143 24.4923C52.298 24.5797 55.736 25.92 58.4165 28.28C58.5622 27.435 58.6496 26.561 58.6496 25.6869C58.4748 22.074 56.8432 18.9274 50.2876 18.3155C46.6457 9.69133 37.4679 14.4696 37.4679 17.1501C37.3805 17.8202 38.0797 19.2479 38.1963 19.3353C38.969 19.3353 39.7101 19.6422 40.2565 20.1887C40.8029 20.7351 41.1099 21.4761 41.1099 22.2489C41.1099 23.8513 39.7987 25.1624 38.1963 25.1624C36.6521 25.1042 35.1953 24.5215 34.0299 23.5308C32.6313 24.434 31.0289 24.9876 29.3681 25.1624C27.7074 25.3081 26.338 24.1427 26.2506 22.5402C26.1969 22.1596 26.2216 21.7721 26.3231 21.4014C26.4247 21.0307 26.6009 20.6846 26.841 20.3845C27.0811 20.0843 27.38 19.8365 27.7194 19.656C28.0588 19.4756 28.4315 19.3665 28.8146 19.3353C29.2807 19.277 31.5533 18.9274 31.5533 17.0918C31.5533 15.1689 32.2817 13.3333 33.5346 11.8765C30.8541 11.1481 27.9696 12.1096 25.056 15.635C19.695 14.7901 17.5099 15.5185 15.9074 21.2C13.1395 22.5694 11.6827 23.5308 11.0417 26.4444C14.1884 25.8034 17.4225 26.0657 20.4234 27.1728C21.8802 27.7264 22.696 29.358 22.1425 30.9313C21.5889 32.4464 19.899 33.2039 18.3839 32.6503C16.257 31.718 13.8679 31.6597 11.6827 32.4755C10.7504 33.2622 10.7504 34.8938 10.7504 36.1758C10.7504 38.3318 11.8284 40.3422 13.6639 41.5076C15.2081 42.2943 16.9271 42.7022 18.6462 42.6731C18.2091 41.9155 17.8304 41.1289 17.5099 40.3131C17.2805 39.5645 17.3504 38.7561 17.7048 38.058C18.0592 37.3599 18.6705 36.8264 19.4102 36.5698C20.1498 36.3132 20.9602 36.3534 21.6708 36.682C22.3815 37.0107 22.9369 37.602 23.2205 38.3318C24.3859 41.6533 27.3578 43.9259 30.8541 44.3047C34.8457 44.1007 38.4002 41.7407 40.1484 38.0987C40.8185 34.078 44.0526 33.7284 47.6071 33.7284ZM53.4343 55.4928L51.6279 51.7052L49.5592 52.1713L52.4728 55.8133L53.4343 55.4928ZM39.8862 30.4069C39.9115 29.6626 39.6508 28.9368 39.1577 28.3787C38.6646 27.8206 37.9766 27.4725 37.2348 27.4059C35.1662 27.2894 33.1558 27.9886 31.6116 29.358C29.9508 31.0479 29.0768 33.3787 29.1642 35.7387C29.1642 36.5115 29.4711 37.2526 30.0175 37.799C30.564 38.3454 31.305 38.6523 32.0778 38.6523C33.7385 38.6523 34.9913 37.3412 34.9913 35.7387C34.9913 34.9521 35.1953 34.1654 35.6615 33.5244C36.0111 33.2331 36.4481 33.0874 36.9143 33.0874C38.5168 33.1748 39.8862 31.9802 39.8862 30.4069Z" fill="#172C49"/>
</svg>
