<svg width="70" height="70" viewBox="0 0 70 70" fill="none" xmlns="http://www.w3.org/2000/svg">
<path d="M62.381 21.8887C64.7118 24.2195 64.7118 28.0072 62.381 30.0467L54.223 38.2047L31.497 15.4788L39.6551 7.32076C41.9859 4.9899 45.7736 4.9899 47.8131 7.32076L53.0575 12.5652L61.7983 3.82446L65.8773 7.90348L57.1365 16.6442L62.381 21.8887ZM45.4822 38.7874L41.4032 34.7084L33.2452 42.8664L27.1267 36.7479L35.2847 28.5899L31.2057 24.5109L23.0476 32.6689L18.6773 28.5899L10.5193 36.7479C8.18839 39.0788 8.18839 42.8664 10.5193 44.9059L15.7637 50.1504L4.10938 61.8047L8.18839 65.8837L19.8427 54.2294L25.0872 59.4738C27.418 61.8047 31.2057 61.8047 33.2452 59.4738L41.4032 51.3158L37.3242 47.2368L45.4822 38.7874Z" fill="#172C49"/>
</svg>
