<svg width="175" height="175" viewBox="0 0 175 175" fill="none" xmlns="http://www.w3.org/2000/svg">
<path d="M174.168 87.084C174.168 135.179 135.179 174.168 87.084 174.168C38.9888 174.168 0 135.179 0 87.084C0 38.9888 38.9888 0 87.084 0C135.179 0 174.168 38.9888 174.168 87.084Z" fill="#FFB09E"/>
<mask id="mask0_550_39938" style="mask-type:alpha" maskUnits="userSpaceOnUse" x="0" y="0" width="175" height="175">
<circle cx="87.084" cy="87.084" r="87.084" fill="#D9D9D9"/>
</mask>
<g mask="url(#mask0_550_39938)">
<path d="M124.871 51.6802C127.597 95.7923 125.326 104.122 134.413 132.898C155.237 152.586 134.43 179.951 104.88 179.09C90.9739 178.685 52.6437 172.462 40.1345 165.081C22.4008 154.617 39.8933 138.393 36.3485 135.927C43.5424 135.927 38.6199 87.4626 51.5631 44.2605C56.8722 26.5395 70.7689 19.032 84.449 18.2624C108.428 16.9134 123.576 30.7121 124.871 51.6802Z" fill="#1A1A1A"/>
<ellipse cx="57.7282" cy="68.1877" rx="6.85123" ry="7.53636" fill="#FAD4B8"/>
<ellipse cx="107.743" cy="68.1877" rx="6.85123" ry="7.53636" fill="#FEDDC6"/>
<rect x="70.0601" y="83.9455" width="27.4049" height="35.6264" fill="#FAD4B8"/>
<path fill-rule="evenodd" clip-rule="evenodd" d="M107.743 49.1259L71.3629 38.7274L58.4141 50.9745L58.9622 65.1473L58.4252 72.5418C58.4178 72.7465 58.4141 72.9519 58.4141 73.158C58.4141 84.3887 72.5961 95.5726 83.0785 96.2658C89.8612 96.7144 107.743 84.3887 107.743 73.158C107.743 72.9519 107.739 72.7465 107.732 72.5418C107.732 72.5418 107.363 68.068 107.195 65.1473C106.918 60.3205 107.743 52.8231 107.743 52.8231V49.1259Z" fill="#FEDDC6"/>
<path d="M63.3419 54.5169C63.4297 54.3797 63.5379 54.2597 63.6702 54.1646C64.3584 53.6698 66.7906 52.0492 69.8024 51.5198C70.6476 51.3712 71.4038 51.9839 71.561 52.8275V52.8275C71.7615 53.9035 70.919 54.8795 69.8321 55.0077C67.9481 55.2299 66.559 55.8007 64.9262 56.4776C63.674 56.9967 62.6108 55.6583 63.3419 54.5169V54.5169Z" fill="black"/>
<ellipse cx="69.3752" cy="63.3918" rx="2.05537" ry="2.74049" fill="#1A1A1A"/>
<ellipse cx="69.3752" cy="63.3918" rx="2.05537" ry="2.74049" fill="#1A1A1A"/>
<ellipse cx="69.3752" cy="63.3918" rx="2.05537" ry="2.74049" fill="#1A1A1A"/>
<ellipse cx="69.3752" cy="63.3918" rx="2.05537" ry="2.74049" fill="#1A1A1A"/>
<ellipse cx="91.3" cy="63.3918" rx="2.05537" ry="2.74049" fill="#1A1A1A"/>
<ellipse cx="91.3" cy="63.3918" rx="2.05537" ry="2.74049" fill="#1A1A1A"/>
<ellipse cx="91.3" cy="63.3918" rx="2.05537" ry="2.74049" fill="#1A1A1A"/>
<ellipse cx="91.3" cy="63.3918" rx="2.05537" ry="2.74049" fill="#1A1A1A"/>
<ellipse cx="98.151" cy="72.9835" rx="6.16611" ry="5.48099" fill="#FAC8B8" fill-opacity="0.8"/>
<ellipse cx="63.21" cy="73.6686" rx="5.48099" ry="4.79586" fill="#FAC8B8" fill-opacity="0.8"/>
<path d="M75.5845 81.7966C82.2132 85.6258 86.5304 83.0347 89.0173 80.7558" stroke="#79003A" stroke-width="0.818421" stroke-linecap="round"/>
<path d="M75.8172 68.8727C75.8172 68.8727 73.7567 71.7457 74.2474 73.4738C74.6221 74.7934 75.6941 75.3135 76.7462 75.6047C77.6726 75.8612 78.7706 75.6838 79.6529 75.2651" stroke="#79003A" stroke-width="0.586044" stroke-linecap="round"/>
<path fill-rule="evenodd" clip-rule="evenodd" d="M122.064 59.8712C121.61 60.1277 118.705 57.9108 115.964 58.5959C113.224 59.281 108.428 60.6513 106.372 61.3364C104.317 62.0215 100.472 60.5432 98.264 59.281C97.9232 59.2294 95.4104 56.5405 93.355 49.6893C94.0401 56.5405 97.1634 59.3423 96.7806 59.281C95.1535 59.0204 92.6699 58.5959 89.9294 57.9108C88.1084 56.2558 85.1335 51.0595 83.7633 41.4678C83.7633 48.319 86.5038 55.468 87.874 57.2257C83.7318 56.3536 78.3992 54.727 76.2269 53.1149C73.4864 51.7447 72.1162 47.6339 71.9021 42.8381C70.8056 44.5004 68.0186 49.5996 63.8947 52.0745C59.9394 54.4482 58.0418 54.3935 52.3672 54.9165C52.4868 52.0745 52.6349 50.2282 52.3672 54.9165C52.3672 36.0814 67.8913 23.6546 87.1889 23.6546C106.486 23.6546 122.13 38.9234 122.13 57.7585C122.13 58.468 122.108 59.1725 122.064 59.8712Z" fill="#1A1A1A"/>
<mask id="mask1_550_39938" style="mask-type:alpha" maskUnits="userSpaceOnUse" x="43" y="18" width="83" height="162">
<path d="M124.871 51.6802C133.042 92.6311 89.2449 114.721 89.2449 136.305C83.0788 151.145 118.796 180.699 89.2449 179.838C75.3393 179.433 60.9605 173.274 48.4513 165.893C30.7175 155.429 68.6688 94.8507 65.1239 92.3847C68.5496 52.5882 36.4904 84.057 51.5631 44.2605C58.1153 26.9605 70.7689 19.032 84.449 18.2624C108.428 16.9134 120.761 31.0782 124.871 51.6802Z" fill="#1A1A1A"/>
</mask>
<g mask="url(#mask1_550_39938)">
<path d="M61.6358 25.0248C66.3453 34.6165 99.9842 38.7037 112.094 26.395L122.186 39.4124C112.767 35.9868 104.221 39.2042 86.7621 39.4124C74.9342 39.5534 64.327 35.9868 53.5625 38.0421L61.6358 25.0248Z" fill="#363636"/>
</g>
<path d="M107.309 75.7091C107.453 75.719 107.597 75.724 107.743 75.724C111.527 75.724 114.595 72.3419 114.595 68.1697C114.595 64.2526 111.891 61.0318 108.428 60.6528C107.058 60.6155 106.373 61.3022 106.373 61.3022" stroke="#79003A" stroke-width="0.584586" stroke-linecap="round"/>
<path d="M58.4141 54.4852L58.9395 65.5203L58.4247 72.8262C58.4176 73.0284 58.4141 73.2314 58.4141 73.435C58.4141 84.5311 72.0091 95.581 82.0575 96.266C83.6969 96.3777 86.0127 95.6871 88.5595 94.4138" stroke="#79003A" stroke-width="0.584586" stroke-linecap="round"/>
<path d="M17.3069 135.687L47.0936 111.531L70.0614 103.129C70.0614 117.517 97.4663 118.202 97.4663 103.129L120.828 111.531L151.591 146.292L124.186 170.956L111.169 151.966L107.155 185.344H59.7895L53.9298 151.966L32.9327 168.77L17.3069 135.687Z" fill="#E1D0F7"/>
<path d="M56.4157 126.84L58.5773 107.33L64.3193 105.229V126.84C64.3193 120.403 64.3193 131.958 64.3193 126.84C68.469 126.84 100.534 126.845 102.608 126.84L103.307 105.229L109.147 107.33L109.045 127.218L112.831 134.034L111.169 151.966L107.155 185.344H59.7894L53.9297 151.966C52.0718 139.423 52.6721 138.842 53.0079 134.412L56.4157 126.84Z" fill="#815A3B"/>
<path d="M120.827 111.531L97.6856 103.365C97.6856 118.438 70.0459 117.752 70.0459 103.365" stroke="#79003A" stroke-width="0.757252" stroke-linecap="round" stroke-linejoin="round"/>
<path d="M59.7898 185.344L53.9301 151.966C52.9023 144.294 52.6007 140.383 52.9336 134.645" stroke="#79003A" stroke-width="0.584586" stroke-linecap="round"/>
<path d="M110.273 65.3643C107.8 65.5409 107.826 69.8065 108.099 71.5758" stroke="#79003A" stroke-width="0.584586" stroke-linecap="round"/>
<path d="M123.79 50.0158C93.2802 40.5585 70.5089 38.6273 52.4574 45.7315C51.2829 46.1937 50.0254 45.1543 50.3163 43.9261L52.4404 34.9579C52.7006 33.8596 51.7061 32.8407 50.5869 32.9868C47.2196 33.4261 41.468 33.5662 40.8918 29.5328C39.7558 21.5816 33.7417 22.1921 35.2127 17.0381C36.4442 12.7233 43.5918 10.3831 46.0892 9.68863C46.6206 9.54084 47.0443 9.14001 47.2191 8.61684C47.8976 6.58538 49.8271 1.44887 52.6293 -0.757278C57.5376 -4.6216 66.8874 2.71496 71.4997 6.87642C72.5118 7.78963 74.398 7.07878 74.7115 5.75208C75.6122 1.93967 78.1334 -3.57009 85.191 -4.54354C101.831 -6.83866 109.879 7.94936 112.143 13.068C112.53 13.9411 113.602 14.3112 114.484 13.9475C121.813 10.9279 128.991 15.8684 130.248 22.7175C131.136 27.5605 129.766 28.6416 124.397 33.5402C124.03 33.875 123.851 34.3699 123.918 34.862L125.759 48.3614C125.909 49.4638 124.853 50.3452 123.79 50.0158Z" fill="white"/>
<path d="M70.4243 28.0183L75.7251 26.8824C76.761 23.3337 76.3936 21.3441 75.7251 17.7954C76.6453 21.378 77.1782 23.4824 77.9968 26.5038C88.1176 25.4466 94.5816 26.1327 106.015 28.0183C107.123 26.2087 106.424 23.4746 106.015 19.6885C108.367 23.7932 109.626 26.0974 110.18 30.2901L116.617 24.9893C114.437 28.8012 113.54 30.8328 116.617 32.9404C119.102 33.9826 117.753 33.6977 120.782 32.9404C120.436 36.5172 121.904 39.8195 123.897 44.469C124.275 45.2551 124.625 46.0812 124.946 46.9496C124.586 46.0791 124.234 45.2548 123.897 44.469C116.826 29.7667 99.801 29.0816 70.4243 28.0183Z" fill="#D9D9D9" fill-opacity="0.2"/>
</g>
</svg>
