<svg width="175" height="175" viewBox="0 0 175 175" fill="none" xmlns="http://www.w3.org/2000/svg">
<path d="M174.168 87.084C174.168 135.179 135.179 174.168 87.084 174.168C38.9888 174.168 0 135.179 0 87.084C0 38.9888 38.9888 0 87.084 0C135.179 0 174.168 38.9888 174.168 87.084Z" fill="#97C0FE"/>
<mask id="mask0_550_40102" style="mask-type:alpha" maskUnits="userSpaceOnUse" x="0" y="0" width="175" height="175">
<circle cx="87.084" cy="87.084" r="87.084" fill="black"/>
<circle cx="87.084" cy="87.084" r="87.084" fill="black" fill-opacity="0.2"/>
</mask>
<g mask="url(#mask0_550_40102)">
<path fill-rule="evenodd" clip-rule="evenodd" d="M124.012 48.1705L124.216 49.1841C128.329 69.5834 138.834 87.023 148.486 102.148C149.257 103.357 150.024 104.552 150.782 105.733C154.748 111.916 158.469 117.717 161.364 123.132C164.808 129.574 166.821 134.779 167 140.412L165.29 143.17V141.307C165.127 136.166 162.961 130.479 159.557 124.113C156.704 118.777 153.037 113.06 149.07 106.875C148.31 105.69 147.538 104.487 146.759 103.267C137.107 88.1412 126.401 70.4131 122.204 49.5961L122 48.5824L124.012 48.1705Z" fill="#1A1A1A"/>
<path fill-rule="evenodd" clip-rule="evenodd" d="M87.4704 22.27L86.0863 22.3455C79.2553 22.7178 72.9424 24.5972 67.4183 28.3908C61.893 32.1852 57.0784 37.9485 53.3316 46.2087C46.893 60.403 39.6772 71.4512 33.0263 81.6347C30.6686 85.2445 28.3819 88.7457 26.226 92.2398C17.9771 105.609 12.4556 121.519 11.1258 138.636L7 136.576C8.78986 116.431 15.4832 104.39 23.8579 90.8174C26.0754 87.2235 28.4009 83.6627 30.7818 80.0171C37.4047 69.8762 44.4559 59.0796 50.801 45.0914C54.7167 36.4588 59.8271 30.2711 65.8344 26.1457C71.8431 22.0194 78.6706 20.0101 85.9333 19.6143L87.3174 19.5388L87.4704 22.27Z" fill="#1A1A1A"/>
<path d="M124.978 51.6425C133.111 92.552 162.485 122.029 162.485 143.592C156.347 158.416 118.93 180.531 89.516 179.671C75.6748 179.266 61.3626 173.113 48.9112 165.739C31.2596 155.286 17.3478 142.378 13.8193 139.915C17.2291 100.158 37.0057 83.9865 52.0087 44.2304C58.5306 26.948 71.1255 19.0275 84.7424 18.2587C108.611 16.911 120.886 31.0615 124.978 51.6425Z" fill="#1A1A1A"/>
<ellipse cx="58.1457" cy="68.1333" rx="6.81952" ry="7.52871" fill="#FAD4B8"/>
<ellipse cx="107.928" cy="68.1333" rx="6.81952" ry="7.52871" fill="#FEDDC6"/>
<rect x="70.4209" y="83.8751" width="27.2781" height="35.5903" fill="#FAD4B8"/>
<path fill-rule="evenodd" clip-rule="evenodd" d="M107.928 49.0908L71.7168 38.7029L58.8279 50.9376L59.3734 65.096L58.8389 72.483C58.8316 72.6874 58.8279 72.8927 58.8279 73.0986C58.8279 84.3178 72.9443 95.4904 83.3782 96.183C90.1295 96.6311 107.928 84.3178 107.928 73.0986C107.928 72.8927 107.925 72.6874 107.917 72.483C107.917 72.483 107.55 68.0137 107.383 65.096C107.107 60.274 107.928 52.7843 107.928 52.7843V49.0908Z" fill="#FEDDC6"/>
<path d="M63.7328 54.4768C63.8205 54.3394 63.9284 54.2192 64.0606 54.1239C64.7462 53.6292 67.1645 52.0127 70.1593 51.4831C71.0031 51.3339 71.7577 51.9457 71.9141 52.7882V52.7882C72.1137 53.8631 71.2712 54.8384 70.1855 54.9676C68.3166 55.1899 66.9367 55.7583 65.3163 56.4325C64.0664 56.9526 63.0043 55.6183 63.7328 54.4768V54.4768Z" fill="black"/>
<ellipse cx="69.739" cy="63.3423" rx="2.04586" ry="2.73771" fill="#1A1A1A"/>
<ellipse cx="69.739" cy="63.3423" rx="2.04586" ry="2.73771" fill="#1A1A1A"/>
<ellipse cx="69.739" cy="63.3423" rx="2.04586" ry="2.73771" fill="#1A1A1A"/>
<ellipse cx="69.739" cy="63.3423" rx="2.04586" ry="2.73771" fill="#1A1A1A"/>
<ellipse cx="91.561" cy="63.3423" rx="2.04586" ry="2.73771" fill="#1A1A1A"/>
<ellipse cx="91.561" cy="63.3423" rx="2.04586" ry="2.73771" fill="#1A1A1A"/>
<ellipse cx="91.561" cy="63.3423" rx="2.04586" ry="2.73771" fill="#1A1A1A"/>
<ellipse cx="91.561" cy="63.3423" rx="2.04586" ry="2.73771" fill="#1A1A1A"/>
<ellipse cx="98.3802" cy="72.9242" rx="6.13757" ry="5.47543" fill="#FAC8B8" fill-opacity="0.8"/>
<ellipse cx="63.6016" cy="73.6087" rx="5.45562" ry="4.791" fill="#FAC8B8" fill-opacity="0.8"/>
<path d="M75.9187 81.7284C82.5168 85.5537 86.8139 82.9652 89.2893 80.6886" stroke="#79003A" stroke-width="0.812695" stroke-linecap="round"/>
<path d="M76.1509 68.8177C76.1509 68.8177 74.0999 71.6877 74.5884 73.4141C74.9614 74.7323 76.0283 75.2519 77.0756 75.5428C77.9977 75.799 79.0906 75.6218 79.9688 75.2035" stroke="#79003A" stroke-width="0.581943" stroke-linecap="round"/>
<path fill-rule="evenodd" clip-rule="evenodd" d="M122.184 59.8253C121.732 60.0815 118.839 57.8668 116.112 58.5513C113.384 59.2357 108.61 60.6045 106.564 61.289C104.518 61.9734 100.691 60.4966 98.4934 59.2357C98.1542 59.1842 95.653 56.498 93.6072 49.6537C94.2891 56.498 97.3979 59.2969 97.0169 59.2357C95.3974 58.9754 92.9252 58.5513 90.1974 57.8668C88.3848 56.2135 85.4237 51.0225 84.0598 41.4406C84.0598 48.2848 86.7876 55.4266 88.1515 57.1824C84.0285 56.3112 78.7206 54.6863 76.5584 53.0758C73.8306 51.707 72.4666 47.6004 72.2535 42.8094C71.1621 44.4701 68.3881 49.5641 64.2832 52.0365C60.3462 54.4078 58.4575 54.3531 52.8091 54.8756C52.9281 52.0365 53.0755 50.1921 52.8091 54.8756C52.8091 36.0597 68.2614 23.6454 87.4696 23.6454C106.678 23.6454 122.249 38.8988 122.249 57.7147C122.249 58.4235 122.227 59.1272 122.184 59.8253Z" fill="#1A1A1A"/>
<mask id="mask1_550_40102" style="mask-type:alpha" maskUnits="userSpaceOnUse" x="13" y="18" width="150" height="162">
<path d="M124.978 51.6425C133.111 92.552 162.485 122.029 162.485 143.592C156.347 158.416 118.93 180.531 89.516 179.671C75.6748 179.266 61.3626 173.113 48.9112 165.739C31.2596 155.286 17.3478 142.378 13.8193 139.915C17.2291 100.158 37.0057 83.9865 52.0087 44.2304C58.5306 26.948 71.1255 19.0275 84.7423 18.2587C108.611 16.911 120.886 31.0615 124.978 51.6425Z" fill="#1A1A1A"/>
</mask>
<g mask="url(#mask1_550_40102)">
<path d="M62.0345 25.0142C66.7222 34.5962 100.205 38.6792 112.259 26.3831L122.304 39.3872C112.929 35.9651 104.422 39.1792 87.0444 39.3872C75.2713 39.5281 64.7132 35.9651 53.9985 38.0184L62.0345 25.0142Z" fill="#363636"/>
</g>
<path d="M107.911 75.1556C108.05 75.1655 108.191 75.1705 108.333 75.1705C112.015 75.1705 115 71.8047 115 67.6527C115 63.7544 112.369 60.5492 109 60.172C107.667 60.1349 107 60.8183 107 60.8183" stroke="#79003A" stroke-width="0.580496" stroke-linecap="round"/>
<path d="M59 54.1705L59.5229 65.2604L59.0106 72.6026C59.0035 72.8058 59 73.0098 59 73.2144C59 84.3656 72.5294 95.4704 82.5294 96.1587C84.1609 96.271 86.4655 95.577 89 94.2973" stroke="#79003A" stroke-width="0.580496" stroke-linecap="round"/>
<path d="M18 135.643L47.7236 111.551L70.6429 103.171C70.6429 117.521 97.9898 118.204 97.9898 103.171L121.302 111.551L152 146.221L124.653 170.821L111.663 151.879L107.658 185.171H60.3927L54.5455 151.879L33.5927 168.64L18 135.643Z" fill="#F46A99"/>
<path d="M121 111.3L97.7586 103.171C97.7586 118.176 70 117.494 70 103.171" stroke="#79003A" stroke-width="0.751954" stroke-linecap="round" stroke-linejoin="round"/>
<path d="M60 185.171L54.1282 151.594C53.0983 143.877 52.7961 139.943 53.1296 134.171" stroke="#79003A" stroke-width="0.580496" stroke-linecap="round"/>
<path d="M110 65.1705C107.847 65.3411 107.87 69.4614 108.107 71.1705" stroke="#79003A" stroke-width="0.580496" stroke-linecap="round"/>
</g>
</svg>
