<svg width="61" height="61" viewBox="0 0 61 61" fill="none" xmlns="http://www.w3.org/2000/svg">
<path fill-rule="evenodd" clip-rule="evenodd" d="M30.5001 2.5415C15.0595 2.5415 2.54175 15.0592 2.54175 30.4998C2.54175 45.9405 15.0595 58.4582 30.5001 58.4582C45.9407 58.4582 58.4584 45.9405 58.4584 30.4998C58.4584 15.0592 45.9407 2.5415 30.5001 2.5415ZM42.6187 25.7723C42.8419 25.5173 43.0118 25.2201 43.1184 24.8984C43.225 24.5767 43.2662 24.2369 43.2396 23.8991C43.213 23.5612 43.119 23.2321 42.9633 22.9311C42.8076 22.6301 42.5933 22.3632 42.3329 22.1462C42.0726 21.9293 41.7715 21.7666 41.4473 21.6677C41.1231 21.5688 40.7825 21.5358 40.4453 21.5705C40.1082 21.6053 39.7814 21.7071 39.4842 21.8699C39.187 22.0328 38.9254 22.2535 38.7147 22.519L27.7856 35.6315L22.1304 29.9737C21.651 29.5107 21.009 29.2545 20.3426 29.2603C19.6761 29.2661 19.0387 29.5334 18.5674 30.0047C18.0962 30.4759 17.8289 31.1134 17.8231 31.7798C17.8173 32.4462 18.0735 33.0883 18.5365 33.5676L26.1615 41.1926C26.4112 41.4422 26.7102 41.637 27.0394 41.7647C27.3686 41.8923 27.7208 41.9499 28.0735 41.9339C28.4262 41.9179 28.7717 41.8285 29.088 41.6716C29.4042 41.5147 29.6843 41.2935 29.9104 41.0223L42.6187 25.7723Z" fill="#27AE60"/>
</svg>
