<svg width="175" height="175" viewBox="0 0 175 175" fill="none" xmlns="http://www.w3.org/2000/svg">
<path d="M174.504 87.084C174.504 135.179 135.515 174.168 87.4199 174.168C39.3248 174.168 0.335938 135.179 0.335938 87.084C0.335938 38.9888 39.3248 0 87.4199 0C135.515 0 174.504 38.9888 174.504 87.084Z" fill="#9ED3FF"/>
<mask id="mask0_550_39827" style="mask-type:alpha" maskUnits="userSpaceOnUse" x="0" y="0" width="175" height="175">
<circle cx="87.4199" cy="87.084" r="87.084" fill="#D9D9D9"/>
</mask>
<g mask="url(#mask0_550_39827)">
<path d="M123.335 51.5C130.682 88.3198 104.687 92.8304 108.836 94.5C115.831 97.315 120.835 108.5 120.835 118C128.473 142.506 129.543 173.902 116.336 176.5C94.6591 180.764 98.3527 136.18 100.966 111C97.3473 105.148 99.9971 98.231 101.263 95.5946C101.458 95.1889 101.072 94.7059 100.637 94.8201C87.9696 98.1405 80.4091 98.1067 67.6338 94.7144C67.2715 94.6182 66.9201 94.9339 66.9767 95.3044C67.3484 97.7349 68.0833 105.192 64.3352 111C63.4423 139.249 63.113 195.843 43.3158 173C29.5968 164.905 34.0027 141.734 43.8355 119.5C40.3912 111.272 50.2893 95.164 57.8355 93C62.623 91.627 36.3353 80 51.8987 44.2605C59.2846 27.2997 71.1045 19.032 84.7846 18.2624C108.764 16.9133 119.225 30.898 123.335 51.5Z" fill="#1A1A1A"/>
<ellipse cx="58.0646" cy="68.1876" rx="6.85123" ry="7.53636" fill="#FAD4B8"/>
<ellipse cx="108.078" cy="68.1876" rx="6.85123" ry="7.53636" fill="#FEDDC6"/>
<rect x="70.3965" y="83.9454" width="27.4049" height="35.6264" fill="#FAD4B8"/>
<path fill-rule="evenodd" clip-rule="evenodd" d="M108.079 49.1259L71.6988 38.7274L58.75 50.9745L59.2981 65.1473L58.7611 72.5418C58.7537 72.7465 58.75 72.9519 58.75 73.158C58.75 84.3887 72.9321 95.5726 83.4144 96.2658C90.1972 96.7144 108.079 84.3887 108.079 73.158C108.079 72.9519 108.075 72.7465 108.068 72.5418C108.068 72.5418 107.699 68.068 107.531 65.1473C107.254 60.3205 108.079 52.8231 108.079 52.8231V49.1259Z" fill="#FEDDC6"/>
<path d="M63.6778 54.5168C63.7657 54.3796 63.8738 54.2596 64.0061 54.1645C64.6944 53.6697 67.1266 52.0492 70.1384 51.5197C70.9835 51.3711 71.7397 51.9839 71.8969 52.8275V52.8275C72.0974 53.9034 71.255 54.8794 70.168 55.0076C68.284 55.2298 66.895 55.8006 65.2621 56.4775C64.01 56.9967 62.9467 55.6583 63.6778 54.5168V54.5168Z" fill="black"/>
<ellipse cx="69.7116" cy="63.3917" rx="2.05537" ry="2.74049" fill="#1A1A1A"/>
<ellipse cx="69.7116" cy="63.3917" rx="2.05537" ry="2.74049" fill="#1A1A1A"/>
<ellipse cx="69.7116" cy="63.3917" rx="2.05537" ry="2.74049" fill="#1A1A1A"/>
<ellipse cx="69.7116" cy="63.3917" rx="2.05537" ry="2.74049" fill="#1A1A1A"/>
<ellipse cx="91.6355" cy="63.3917" rx="2.05537" ry="2.74049" fill="#1A1A1A"/>
<ellipse cx="91.6355" cy="63.3917" rx="2.05537" ry="2.74049" fill="#1A1A1A"/>
<ellipse cx="91.6355" cy="63.3917" rx="2.05537" ry="2.74049" fill="#1A1A1A"/>
<ellipse cx="91.6355" cy="63.3917" rx="2.05537" ry="2.74049" fill="#1A1A1A"/>
<ellipse cx="98.4869" cy="72.9834" rx="6.16611" ry="5.48099" fill="#FAC8B8" fill-opacity="0.8"/>
<ellipse cx="63.5459" cy="73.6686" rx="5.48099" ry="4.79586" fill="#FAC8B8" fill-opacity="0.8"/>
<path d="M75.9204 81.7966C82.5492 85.6258 86.8663 83.0347 89.3532 80.7558" stroke="#79003A" stroke-width="0.818421" stroke-linecap="round"/>
<path d="M76.1531 68.8727C76.1531 68.8727 74.0927 71.7457 74.5834 73.4738C74.9581 74.7934 76.03 75.3135 77.0821 75.6047C78.0085 75.8612 79.1065 75.6838 79.9888 75.2651" stroke="#79003A" stroke-width="0.586044" stroke-linecap="round"/>
<path fill-rule="evenodd" clip-rule="evenodd" d="M122.4 59.8712C121.946 60.1277 119.041 57.9108 116.3 58.5959C113.56 59.281 108.763 60.6513 106.708 61.3364C104.653 62.0215 100.808 60.5432 98.5999 59.281C98.2591 59.2294 95.7463 56.5405 93.6909 49.6893C94.3761 56.5405 97.4993 59.3423 97.1166 59.281C95.4895 59.0204 93.0058 58.5959 90.2653 57.9108C88.4443 56.2558 85.4695 51.0595 84.0992 41.4678C84.0992 48.319 86.8397 55.468 88.2099 57.2257C84.0677 56.3536 78.7351 54.727 76.5629 53.1149C73.8224 51.7447 72.4521 47.6339 72.238 42.8381C71.1415 44.5004 68.3545 49.5996 64.2306 52.0745C60.2753 54.4482 58.3778 54.3935 52.7031 54.9165C52.8227 52.0745 52.9708 50.2282 52.7031 54.9165C52.7031 36.0814 68.2273 23.6546 87.5248 23.6546C106.822 23.6546 122.466 38.9234 122.466 57.7585C122.466 58.468 122.444 59.1725 122.4 59.8712Z" fill="#1A1A1A"/>
<mask id="mask1_550_39827" style="mask-type:alpha" maskUnits="userSpaceOnUse" x="48" y="18" width="79" height="162">
<path d="M84.7839 18.2624C71.1037 19.032 58.4502 26.9605 51.898 44.2605C36.8252 84.057 85.2603 25.2035 81.8347 65C81.8347 65 75.6741 179.433 89.5797 179.838C119.13 180.699 87.1686 79.8393 93.3348 65C93.3348 43.4154 133.377 92.6311 125.206 51.6802C121.095 31.0782 108.763 16.9134 84.7839 18.2624Z" fill="#1A1A1A"/>
</mask>
<g mask="url(#mask1_550_39827)">
<path d="M61.9708 25.0247C66.6803 34.6164 100.319 38.7036 112.429 26.395L122.521 39.4123C113.102 35.9867 104.556 39.2041 87.097 39.4123C75.2692 39.5534 64.6619 35.9867 53.8975 38.0421L61.9708 25.0247Z" fill="#363636"/>
</g>
<path d="M107.645 75.7091C107.788 75.719 107.933 75.724 108.079 75.724C111.863 75.724 114.93 72.3419 114.93 68.1697C114.93 64.2526 112.227 61.0318 108.764 60.6528C107.394 60.6155 106.709 61.3022 106.709 61.3022" stroke="#79003A" stroke-width="0.584586" stroke-linecap="round"/>
<path d="M58.75 54.4852L59.2754 65.5203L58.7606 72.8262C58.7536 73.0284 58.75 73.2314 58.75 73.435C58.75 84.5311 72.345 95.581 82.3935 96.266C84.0328 96.3777 86.3486 95.6871 88.8954 94.4138" stroke="#79003A" stroke-width="0.584586" stroke-linecap="round"/>
<path d="M17.6426 135.687L47.4292 111.531L70.3971 103.129C70.3971 117.517 97.802 118.202 97.802 103.129L121.163 111.531L151.927 146.292L124.522 170.956L111.504 151.966L107.491 185.344H60.1252L54.2655 151.966L33.2684 168.77L17.6426 135.687Z" fill="#FED150"/>
<path d="M121.163 111.531L98.0215 103.365C98.0215 118.438 70.3818 117.752 70.3818 103.365" stroke="#79003A" stroke-width="0.757252" stroke-linecap="round" stroke-linejoin="round"/>
<path d="M60.1252 185.344L54.2655 151.966C53.2377 144.294 52.9362 140.383 53.269 134.645" stroke="#79003A" stroke-width="0.584586" stroke-linecap="round"/>
<path d="M110.608 65.3643C108.136 65.5409 108.162 69.8065 108.434 71.5758" stroke="#79003A" stroke-width="0.584586" stroke-linecap="round"/>
<path d="M67.3483 10.53L53.4602 35.3823C53.383 35.5205 53.2846 35.6457 53.1687 35.7534L41.6362 46.4621C40.497 47.5199 41.5201 49.487 43.0531 49.2288C78.8133 43.2034 117.833 57.8827 131.685 52.9447C132.54 52.6398 132.764 51.6043 132.23 50.8701L121.186 35.685C121.141 35.6223 121.1 35.5562 121.064 35.4873L108.241 10.5727C108.007 10.1182 107.555 9.81164 107.046 9.75974C92.1452 8.23896 83.4352 8.23253 68.5178 9.7628C68.0278 9.81306 67.5886 10.1 67.3483 10.53Z" fill="#ACCB6F"/>
<path d="M56.751 35.9694C67.4484 33.1498 111.652 40.1343 119.603 36.7267" stroke="black" stroke-width="0.378626"/>
<path d="M99.5759 38.7972C99.4246 38.7258 99.2441 38.7905 99.1727 38.9418L98.0089 41.407C97.9375 41.5583 98.0022 41.7388 98.1535 41.8102C98.3048 41.8816 98.4853 41.8169 98.5567 41.6656L99.5912 39.4743L101.783 40.5088C101.934 40.5802 102.114 40.5155 102.186 40.3642C102.257 40.2129 102.192 40.0324 102.041 39.961L99.5759 38.7972ZM101.886 32.5414C103.112 35.2379 103.699 37.4032 103.862 39.024C104.027 40.662 103.752 41.6834 103.339 42.1636C103.141 42.3939 102.912 42.5 102.667 42.5076C102.415 42.5154 102.109 42.4189 101.768 42.174C101.084 41.6813 100.329 40.6347 99.7317 38.9688L99.1615 39.1733C99.7799 40.8977 100.59 42.0727 101.414 42.6657C101.829 42.9637 102.263 43.1262 102.686 43.1131C103.117 43.0997 103.5 42.9051 103.798 42.5588C104.377 41.886 104.634 40.6515 104.465 38.9635C104.294 37.2582 103.681 35.0275 102.437 32.2907L101.886 32.5414Z" fill="#505050"/>
<path d="M109.464 39.808C109.312 39.7366 109.132 39.8013 109.06 39.9526L107.897 42.4178C107.825 42.5691 107.89 42.7496 108.041 42.821C108.193 42.8925 108.373 42.8277 108.444 42.6764L109.479 40.4851L111.67 41.5196C111.822 41.591 112.002 41.5263 112.073 41.375C112.145 41.2237 112.08 41.0432 111.929 40.9718L109.464 39.808ZM111.005 32.325C112.7 35.5263 113.569 38.0219 113.889 39.854C114.213 41.7072 113.965 42.8079 113.541 43.3064C113.339 43.5437 113.092 43.6531 112.813 43.6539C112.524 43.6547 112.176 43.5383 111.796 43.2709C111.035 42.7353 110.214 41.6383 109.619 39.9797L109.049 40.1842C109.67 41.9158 110.552 43.1357 111.447 43.7663C111.896 44.082 112.364 44.2609 112.814 44.2597C113.274 44.2584 113.688 44.0684 114.002 43.6991C114.61 42.9845 114.817 41.6438 114.486 39.7497C114.151 37.8344 113.254 35.2768 111.541 32.0415L111.005 32.325Z" fill="#505050"/>
<path d="M83.0901 145.942C83.0901 145.942 84.3651 143.575 88.6492 142.998C92.9332 142.421 96.7142 144.087 96.7142 144.087L99.6872 141.663C99.6872 141.663 98.3613 143.211 98.901 144.089C99.4408 144.967 100.881 145.953 100.881 145.953L96.7142 144.087C96.7142 144.087 93.0332 147.223 89.5468 147.668C86.0604 148.113 83.0901 145.942 83.0901 145.942Z" fill="#0F68C2"/>
<path d="M96.7142 144.087C96.7142 144.087 92.9332 142.421 88.6492 142.998C84.3651 143.575 83.0901 145.942 83.0901 145.942C83.0901 145.942 86.0604 148.113 89.5468 147.668C93.0332 147.223 96.7142 144.087 96.7142 144.087ZM96.7142 144.087L99.6872 141.663C99.6872 141.663 98.3613 143.211 98.901 144.089C99.4408 144.967 100.881 145.953 100.881 145.953L96.7142 144.087Z" stroke="#0F68C2" stroke-width="0.42359" stroke-linejoin="round"/>
<path d="M95.375 135.969C95.375 135.969 96.6485 133.601 100.932 133.022C105.216 132.442 108.998 134.106 108.998 134.106L111.969 131.681C111.969 131.681 110.644 133.229 111.185 134.106C111.725 134.984 113.166 135.969 113.166 135.969L108.998 134.106C108.998 134.106 105.319 137.244 101.833 137.691C98.3466 138.139 95.375 135.969 95.375 135.969Z" fill="#0F68C2"/>
<path d="M108.998 134.106C108.998 134.106 105.216 132.442 100.932 133.022C96.6485 133.601 95.375 135.969 95.375 135.969C95.375 135.969 98.3466 138.139 101.833 137.691C105.319 137.244 108.998 134.106 108.998 134.106ZM108.998 134.106L111.969 131.681C111.969 131.681 110.644 133.229 111.185 134.106C111.725 134.984 113.166 135.969 113.166 135.969L108.998 134.106Z" stroke="#0F68C2" stroke-width="0.42359" stroke-linejoin="round"/>
<path d="M58.5261 145.612C58.5261 145.612 59.9053 143.304 64.2107 142.919C68.5162 142.533 72.2192 144.366 72.2192 144.366L75.2973 142.077C75.2973 142.077 73.9037 143.564 74.4039 144.465C74.904 145.366 76.2988 146.415 76.2988 146.415L72.2192 144.366C72.2192 144.366 68.4022 147.335 64.8995 147.624C61.3968 147.913 58.5261 145.612 58.5261 145.612Z" fill="#0F68C2"/>
<path d="M72.2192 144.366C72.2192 144.366 68.5162 142.533 64.2107 142.919C59.9053 143.304 58.5261 145.612 58.5261 145.612C58.5261 145.612 61.3968 147.913 64.8995 147.624C68.4022 147.335 72.2192 144.366 72.2192 144.366ZM72.2192 144.366L75.2973 142.077C75.2973 142.077 73.9037 143.564 74.4039 144.465C74.904 145.366 76.2988 146.415 76.2988 146.415L72.2192 144.366Z" stroke="#0F68C2" stroke-width="0.42359" stroke-linejoin="round"/>
<path d="M69.9699 135.929C69.9699 135.929 71.5576 133.759 75.8803 133.775C80.203 133.792 83.7195 135.961 83.7195 135.961L86.9971 133.968C86.9971 133.968 85.4713 135.319 85.8855 136.263C86.2996 137.206 87.5908 138.381 87.5908 138.381L83.7195 135.961C83.7195 135.961 79.643 138.562 76.1285 138.524C72.6141 138.487 69.9699 135.929 69.9699 135.929Z" fill="#0F68C2"/>
<path d="M83.7195 135.961C83.7195 135.961 80.203 133.792 75.8803 133.775C71.5576 133.759 69.9699 135.929 69.9699 135.929C69.9699 135.929 72.6141 138.487 76.1285 138.524C79.643 138.562 83.7195 135.961 83.7195 135.961ZM83.7195 135.961L86.9971 133.968C86.9971 133.968 85.4713 135.319 85.8855 136.263C86.2996 137.206 87.5908 138.381 87.5908 138.381L83.7195 135.961Z" stroke="#0F68C2" stroke-width="0.42359" stroke-linejoin="round"/>
</g>
</svg>
