<svg width="128" height="128" viewBox="0 0 128 128" fill="none" xmlns="http://www.w3.org/2000/svg">
<path d="M127.556 63.778C127.556 99.0017 99.0017 127.556 63.778 127.556C28.5544 127.556 0 99.0017 0 63.778C0 28.5544 28.5544 0 63.778 0C99.0017 0 127.556 28.5544 127.556 63.778Z" fill="#FFF59E"/>
<mask id="mask0_582_43645" style="mask-type:alpha" maskUnits="userSpaceOnUse" x="0" y="0" width="128" height="128">
<circle cx="63.778" cy="63.778" r="63.778" fill="black"/>
<circle cx="63.778" cy="63.778" r="63.778" fill="black" fill-opacity="0.2"/>
</mask>
<g mask="url(#mask0_582_43645)">
<path d="M91.4525 37.8492C93.4488 70.1558 72.9289 67.9375 72.9289 67.9375C88.1802 82.3569 98.4532 131.791 76.8111 131.161C66.627 130.864 38.555 126.307 29.3935 120.901C16.4058 113.237 45.1994 70.7104 49.3588 67.9375C49.3588 67.9375 28.2843 64.0553 37.7635 32.4152C41.6517 19.4369 51.8293 13.9386 61.8483 13.3749C79.4101 12.3869 90.5036 22.4928 91.4525 37.8492Z" fill="#1A1A1A"/>
<ellipse cx="42.2794" cy="49.9389" rx="5.01767" ry="5.51943" fill="#FAD4B8"/>
<ellipse cx="78.9083" cy="49.9389" rx="5.01767" ry="5.51943" fill="#FEDDC6"/>
<rect x="51.3105" y="61.4796" width="20.0707" height="26.0919" fill="#FAD4B8"/>
<path fill-rule="evenodd" clip-rule="evenodd" d="M78.9084 35.9785L52.2646 28.3629L42.7812 37.3324L43.1827 47.7122L42.7894 53.1277C42.784 53.2776 42.7812 53.4281 42.7812 53.579C42.7812 61.8041 53.1678 69.9949 60.8448 70.5026C65.8123 70.8311 78.9084 61.8041 78.9084 53.579C78.9084 53.4281 78.9057 53.2776 78.9003 53.1277C78.9003 53.1277 78.6299 49.8512 78.507 47.7122C78.304 44.1771 78.9084 38.6863 78.9084 38.6863V35.9785Z" fill="#FEDDC6"/>
<path d="M46.3903 39.9268C46.4547 39.8264 46.5339 39.7385 46.6308 39.6688C47.1348 39.3064 48.9161 38.1196 51.1219 37.7318C51.7409 37.623 52.2947 38.0718 52.4098 38.6896C52.5566 39.4776 51.9396 40.1924 51.1436 40.2863C49.7638 40.449 48.7465 40.867 47.5506 41.3628C46.6336 41.743 45.8549 40.7628 46.3903 39.9268Z" fill="black"/>
<ellipse cx="50.809" cy="46.4266" rx="1.5053" ry="2.00707" fill="#1A1A1A"/>
<ellipse cx="50.809" cy="46.4266" rx="1.5053" ry="2.00707" fill="#1A1A1A"/>
<ellipse cx="50.809" cy="46.4266" rx="1.5053" ry="2.00707" fill="#1A1A1A"/>
<ellipse cx="50.809" cy="46.4266" rx="1.5053" ry="2.00707" fill="#1A1A1A"/>
<ellipse cx="66.8657" cy="46.4266" rx="1.5053" ry="2.00707" fill="#1A1A1A"/>
<ellipse cx="66.8657" cy="46.4266" rx="1.5053" ry="2.00707" fill="#1A1A1A"/>
<ellipse cx="66.8657" cy="46.4266" rx="1.5053" ry="2.00707" fill="#1A1A1A"/>
<ellipse cx="66.8657" cy="46.4266" rx="1.5053" ry="2.00707" fill="#1A1A1A"/>
<ellipse cx="71.8841" cy="53.4513" rx="4.5159" ry="4.01413" fill="#FAC8B8" fill-opacity="0.8"/>
<ellipse cx="46.2934" cy="53.953" rx="4.01413" ry="3.51237" fill="#FAC8B8" fill-opacity="0.8"/>
<path d="M55.3564 59.9057C60.2112 62.7101 63.3729 60.8125 65.1943 59.1434" stroke="#79003A" stroke-width="0.59939" stroke-linecap="round"/>
<path d="M55.5273 50.4406C55.5273 50.4406 54.0182 52.5447 54.3776 53.8103C54.652 54.7768 55.4371 55.1576 56.2076 55.371C56.8861 55.5588 57.6902 55.4288 58.3364 55.1222" stroke="#79003A" stroke-width="0.429203" stroke-linecap="round"/>
<path fill-rule="evenodd" clip-rule="evenodd" d="M89.3968 43.8482C89.0644 44.036 86.9363 42.4124 84.9292 42.9141C82.9222 43.4159 79.4097 44.4194 77.9044 44.9212C76.3991 45.423 73.5835 44.3403 71.9662 43.4159C71.7165 43.3781 69.8762 41.4088 68.3709 36.3912C68.8727 41.4088 71.1601 43.4608 70.8798 43.4159C69.6881 43.225 67.8692 42.9141 65.8621 42.4124C64.5285 41.2003 62.3497 37.3947 61.3462 30.37C61.3462 35.3876 63.3533 40.6234 64.3568 41.9106C61.3231 41.2719 57.4177 40.0807 55.8268 38.9C53.8197 37.8965 52.8162 34.8859 52.6594 31.3735C51.8563 32.591 49.8152 36.3255 46.795 38.1381C43.8982 39.8765 42.5085 39.8364 38.3525 40.2195C38.4401 38.1381 38.5486 36.7859 38.3525 40.2195C38.3525 26.4251 49.722 17.324 63.855 17.324C77.9881 17.324 89.4451 28.5065 89.4451 42.3009C89.4451 42.8205 89.4289 43.3364 89.3968 43.8482Z" fill="#1A1A1A"/>
<mask id="mask1_582_43645" style="mask-type:alpha" maskUnits="userSpaceOnUse" x="32" y="13" width="61" height="119">
<path d="M91.4524 37.8492C97.4366 67.8407 65.3605 84.0186 65.3605 99.8265C60.8446 110.694 87.0026 132.339 65.3605 131.709C55.1764 131.412 44.6458 126.902 35.4843 121.496C22.4966 113.832 50.2911 69.4662 47.695 67.6602C50.2038 38.5143 26.7245 61.5612 37.7633 32.4152C42.562 19.7452 51.8292 13.9386 61.8481 13.3749C79.41 12.3869 88.4418 22.7609 91.4524 37.8492Z" fill="#1A1A1A"/>
</mask>
<g mask="url(#mask1_582_43645)">
<path d="M45.1402 18.3276C48.5893 25.3523 73.2256 28.3456 82.0947 19.3311L89.4856 28.8647C82.5874 26.3558 76.3283 28.7122 63.5421 28.8647C54.8796 28.968 47.1112 26.3558 39.2275 27.8611L45.1402 18.3276Z" fill="#363636"/>
</g>
<path d="M78.5897 55.4474C78.6949 55.4547 78.801 55.4584 78.9078 55.4584C81.679 55.4584 83.9255 52.9813 83.9255 49.9258C83.9255 47.057 81.9452 44.6982 79.4096 44.4206C78.4061 44.3933 77.9043 44.8962 77.9043 44.8962" stroke="#79003A" stroke-width="0.428136" stroke-linecap="round"/>
<path d="M42.7803 39.9036L43.1651 47.9854L42.7881 53.3361C42.7829 53.4842 42.7803 53.6328 42.7803 53.782C42.7803 61.9084 52.7369 70.0011 60.0961 70.5027C61.2968 70.5846 62.9928 70.0788 64.858 69.1462" stroke="#79003A" stroke-width="0.428136" stroke-linecap="round"/>
<path d="M12.6748 99.3734L34.4898 81.6824L51.3108 75.529C51.3108 86.0661 71.3815 86.5679 71.3815 75.529L88.4908 81.6824L111.021 107.14L90.9504 125.204L81.4168 111.296L78.4774 135.741H43.788L39.4965 111.296L24.1187 123.602L12.6748 99.3734Z" fill="#96CDB5"/>
<path d="M41.3168 92.8941L42.8999 78.6057L47.1052 77.0673V92.8941C47.1052 88.1801 47.1052 96.6423 47.1052 92.8941C50.1443 92.8941 73.6281 92.8983 75.1469 92.8941L75.6584 77.0673L79.9358 78.6057L79.8609 93.1714L82.6338 98.1627L81.4164 111.296L78.477 135.741H43.7876L39.4961 111.296C38.1354 102.11 38.5751 101.684 38.821 98.44L41.3168 92.8941Z" fill="#ECCA9D"/>
<path d="M88.4909 81.6825L71.5424 75.7018C71.5424 86.7407 51.2998 86.2389 51.2998 75.7018" stroke="#79003A" stroke-width="0.554592" stroke-linecap="round" stroke-linejoin="round"/>
<path d="M43.7879 135.741L39.4965 111.296C38.7437 105.677 38.5228 102.813 38.7666 98.6104" stroke="#79003A" stroke-width="0.428136" stroke-linecap="round"/>
<path d="M80.7603 47.8712C78.9495 48.0005 78.9688 51.1245 79.1681 52.4203" stroke="#79003A" stroke-width="0.428136" stroke-linecap="round"/>
</g>
<path d="M37.4348 28.0068L37.4348 30.5025C59.9743 30.8514 71.1299 33.3329 91.7821 37.927L92.0627 37.9895V34.3846C92.0627 34.3846 97.8857 31.6117 92.0627 23.0155C89.7133 19.5472 84.3392 15.0406 77.0881 11.9181C79.0291 8.8734 73.4729 6.65503 73.4729 10.5372C63.1587 7.08454 49.8993 6.71189 36.3264 14.9739C31.3951 17.9756 29.7425 26.5976 37.4348 28.0068Z" fill="#E97C7C"/>
<path d="M47.1406 27.175C64.0016 27.171 73.526 29.1976 89.5669 34.1074" stroke="#BE5B5B" stroke-width="0.554592"/>
</svg>
