<svg width="128" height="128" viewBox="0 0 128 128" fill="none" xmlns="http://www.w3.org/2000/svg">
<path d="M127.556 63.778C127.556 99.0017 99.0017 127.556 63.778 127.556C28.5544 127.556 0 99.0017 0 63.778C0 28.5544 28.5544 0 63.778 0C99.0017 0 127.556 28.5544 127.556 63.778Z" fill="#9ED3FF"/>
<mask id="mask0_582_43683" style="mask-type:alpha" maskUnits="userSpaceOnUse" x="0" y="0" width="128" height="128">
<circle cx="63.778" cy="63.778" r="63.778" fill="#D9D9D9"/>
</mask>
<g mask="url(#mask0_582_43683)">
<path d="M90.0806 37.7172C95.4611 64.6831 76.4229 67.9865 79.4613 69.2093C84.5844 71.2709 88.2497 79.4625 88.2497 86.4201C93.843 104.368 94.6266 127.361 84.9541 129.264C69.0788 132.387 71.7839 99.7346 73.6977 81.2934C71.0476 77.0079 72.9882 71.9418 73.9154 70.0109C74.058 69.7138 73.7753 69.3601 73.4565 69.4437C64.1796 71.8755 58.6425 71.8508 49.2861 69.3663C49.0208 69.2959 48.7635 69.5271 48.805 69.7984C49.0771 71.5785 49.6154 77.0401 46.8704 81.2934C46.2164 101.982 45.9753 143.43 31.4763 126.701C21.4289 120.772 24.6557 103.802 31.8569 87.5186C29.3344 81.4929 36.5835 69.6956 42.1102 68.1107C45.6164 67.1052 26.364 58.5898 37.7622 32.4151C43.1714 19.9935 51.828 13.9385 61.847 13.3748C79.4088 12.3868 87.07 22.6288 90.0806 37.7172Z" fill="#1A1A1A"/>
<ellipse cx="42.2784" cy="49.9387" rx="5.01767" ry="5.51943" fill="#FAD4B8"/>
<ellipse cx="78.9063" cy="49.9387" rx="5.01767" ry="5.51943" fill="#FEDDC6"/>
<rect x="51.3096" y="61.4794" width="20.0707" height="26.0919" fill="#FAD4B8"/>
<path fill-rule="evenodd" clip-rule="evenodd" d="M78.9075 35.9785L52.2637 28.3629L42.7803 37.3324L43.1817 47.7122L42.7884 53.1277C42.783 53.2776 42.7803 53.4281 42.7803 53.579C42.7803 61.8041 53.1668 69.9949 60.8439 70.5026C65.8114 70.8311 78.9075 61.8041 78.9075 53.579C78.9075 53.4281 78.9047 53.2776 78.8993 53.1277C78.8993 53.1277 78.6289 49.8512 78.5061 47.7122C78.3031 44.1771 78.9075 38.6863 78.9075 38.6863V35.9785Z" fill="#FEDDC6"/>
<path d="M46.3893 39.9267C46.4537 39.8262 46.5329 39.7384 46.6298 39.6687C47.1339 39.3063 48.9151 38.1195 51.1209 37.7317C51.7399 37.6229 52.2937 38.0717 52.4088 38.6895C52.5557 39.4775 51.9387 40.1923 51.1426 40.2862C49.7628 40.4489 48.7455 40.8669 47.5497 41.3627C46.6326 41.7429 45.8539 40.7627 46.3893 39.9267Z" fill="black"/>
<ellipse cx="50.808" cy="46.4264" rx="1.5053" ry="2.00707" fill="#1A1A1A"/>
<ellipse cx="50.808" cy="46.4264" rx="1.5053" ry="2.00707" fill="#1A1A1A"/>
<ellipse cx="50.808" cy="46.4264" rx="1.5053" ry="2.00707" fill="#1A1A1A"/>
<ellipse cx="50.808" cy="46.4264" rx="1.5053" ry="2.00707" fill="#1A1A1A"/>
<ellipse cx="66.8647" cy="46.4264" rx="1.5053" ry="2.00707" fill="#1A1A1A"/>
<ellipse cx="66.8647" cy="46.4264" rx="1.5053" ry="2.00707" fill="#1A1A1A"/>
<ellipse cx="66.8647" cy="46.4264" rx="1.5053" ry="2.00707" fill="#1A1A1A"/>
<ellipse cx="66.8647" cy="46.4264" rx="1.5053" ry="2.00707" fill="#1A1A1A"/>
<ellipse cx="71.8821" cy="53.4511" rx="4.5159" ry="4.01413" fill="#FAC8B8" fill-opacity="0.8"/>
<ellipse cx="46.2925" cy="53.9529" rx="4.01413" ry="3.51237" fill="#FAC8B8" fill-opacity="0.8"/>
<path d="M55.3555 59.9056C60.2102 62.7101 63.3719 60.8124 65.1933 59.1434" stroke="#79003A" stroke-width="0.59939" stroke-linecap="round"/>
<path d="M55.5263 50.4406C55.5263 50.4406 54.0172 52.5447 54.3766 53.8103C54.651 54.7767 55.4361 55.1576 56.2066 55.3709C56.8851 55.5587 57.6893 55.4288 58.3354 55.1221" stroke="#79003A" stroke-width="0.429203" stroke-linecap="round"/>
<path fill-rule="evenodd" clip-rule="evenodd" d="M89.3959 43.8481C89.0634 44.0359 86.9353 42.4123 84.9283 42.9141C82.9212 43.4158 79.4087 44.4194 77.9034 44.9211C76.3981 45.4229 73.5825 44.3402 71.9652 43.4158C71.7156 43.3781 69.8753 41.4088 68.37 36.3911C68.8717 41.4088 71.1591 43.4607 70.8788 43.4158C69.6872 43.225 67.8682 42.9141 65.8611 42.4123C64.5275 41.2002 62.3488 37.3946 61.3452 30.3699C61.3452 35.3876 63.3523 40.6233 64.3558 41.9105C61.3222 41.2719 57.4167 40.0806 55.8258 38.8999C53.8187 37.8964 52.8152 34.8858 52.6584 31.3734C51.8553 32.5909 49.8143 36.3254 46.794 38.138C43.8972 39.8764 42.5075 39.8363 38.3516 40.2194C38.4392 38.138 38.5476 36.7858 38.3516 40.2194C38.3516 26.4251 49.721 17.324 63.8541 17.324C77.9871 17.324 89.4442 28.5065 89.4442 42.3008C89.4442 42.8204 89.4279 43.3363 89.3959 43.8481Z" fill="#1A1A1A"/>
<mask id="mask1_582_43683" style="mask-type:alpha" maskUnits="userSpaceOnUse" x="35" y="13" width="58" height="119">
<path d="M61.8454 13.3749C51.8264 13.9386 42.5593 19.7452 37.7606 32.4152C26.7218 61.5612 62.1943 18.4584 59.6855 47.6043C59.6855 47.6043 55.1737 131.412 65.3578 131.709C86.9999 132.339 63.592 58.4723 68.1079 47.6043C68.1079 31.7964 97.4339 67.8407 91.4497 37.8492C88.4391 22.7609 79.4073 12.3869 61.8454 13.3749Z" fill="#1A1A1A"/>
</mask>
<g mask="url(#mask1_582_43683)">
<path d="M45.1383 18.3274C48.5874 25.3521 73.2237 28.3455 82.0927 19.3309L89.4836 28.8645C82.5854 26.3557 76.3264 28.712 63.5401 28.8645C54.8777 28.9678 47.1092 26.3557 39.2256 27.861L45.1383 18.3274Z" fill="#363636"/>
</g>
<path d="M78.5907 55.4474C78.6959 55.4546 78.8019 55.4583 78.9088 55.4583C81.68 55.4583 83.9265 52.9813 83.9265 49.9257C83.9265 47.0569 81.9462 44.6981 79.4106 44.4205C78.407 44.3932 77.9053 44.8962 77.9053 44.8962" stroke="#79003A" stroke-width="0.428136" stroke-linecap="round"/>
<path d="M42.7812 39.9036L43.166 47.9854L42.789 53.3361C42.7839 53.4842 42.7812 53.6328 42.7812 53.782C42.7812 61.9084 52.7379 70.0011 60.0971 70.5027C61.2978 70.5846 62.9937 70.0788 64.859 69.1462" stroke="#79003A" stroke-width="0.428136" stroke-linecap="round"/>
<path d="M12.6748 99.3735L34.4898 81.6825L51.3108 75.5291C51.3108 86.0662 71.3815 86.5679 71.3815 75.5291L88.4908 81.6825L111.021 107.14L90.9504 125.204L81.4168 111.296L78.4774 135.741H43.788L39.4965 111.296L24.1187 123.603L12.6748 99.3735Z" fill="#FED150"/>
<path d="M88.4909 81.6824L71.5424 75.7018C71.5424 86.7407 51.2998 86.2389 51.2998 75.7018" stroke="#79003A" stroke-width="0.554592" stroke-linecap="round" stroke-linejoin="round"/>
<path d="M43.7879 135.741L39.4965 111.296C38.7437 105.677 38.5228 102.813 38.7666 98.6102" stroke="#79003A" stroke-width="0.428136" stroke-linecap="round"/>
<path d="M80.7603 47.8711C78.9495 48.0004 78.9688 51.1244 79.1681 52.4202" stroke="#79003A" stroke-width="0.428136" stroke-linecap="round"/>
<path d="M49.0778 7.71185L38.9066 25.9131C38.85 26.0142 38.778 26.1059 38.693 26.1848L30.247 34.0276C29.4127 34.8023 30.162 36.243 31.2847 36.0538C57.4745 31.641 86.0518 42.3918 96.1965 38.7753C96.8228 38.552 96.9865 37.7936 96.5955 37.2559L88.5073 26.1347C88.4739 26.0888 88.4441 26.0404 88.4182 25.9899L79.0264 7.7431C78.8551 7.41025 78.5239 7.18574 78.1515 7.14773C67.2384 6.03395 60.8595 6.02925 49.9343 7.14998C49.5755 7.18679 49.2538 7.39697 49.0778 7.71185Z" fill="#ACCB6F"/>
<path d="M41.3174 26.3431C49.1519 24.278 81.5253 29.3934 87.3485 26.8977" stroke="black" stroke-width="0.277296"/>
<path d="M72.6805 28.414C72.5697 28.3617 72.4375 28.4091 72.3852 28.5199L71.5329 30.3254C71.4806 30.4362 71.528 30.5684 71.6388 30.6207C71.7495 30.673 71.8818 30.6256 71.9341 30.5148L72.6917 28.91L74.2965 29.6676C74.4073 29.7199 74.5395 29.6725 74.5918 29.5617C74.6441 29.4509 74.5967 29.3187 74.4859 29.2664L72.6805 28.414ZM74.3721 23.8325C75.2699 25.8073 75.7003 27.3931 75.8195 28.5802C75.94 29.7798 75.7391 30.5278 75.4364 30.8796C75.2913 31.0482 75.1241 31.1259 74.9446 31.1314C74.7595 31.1372 74.5354 31.0665 74.2861 30.8871C73.7846 30.5263 73.2321 29.7598 72.7946 28.5398L72.377 28.6895C72.8299 29.9524 73.4234 30.813 74.027 31.2473C74.3303 31.4655 74.6485 31.5845 74.9584 31.5749C75.274 31.5651 75.5545 31.4226 75.7727 31.169C76.1968 30.6762 76.3852 29.7721 76.261 28.5358C76.1355 27.287 75.6872 25.6532 74.776 23.6488L74.3721 23.8325Z" fill="#505050"/>
<path d="M79.9219 29.1543C79.8111 29.102 79.6789 29.1494 79.6266 29.2602L78.7743 31.0657C78.722 31.1765 78.7694 31.3087 78.8802 31.361C78.991 31.4133 79.1232 31.3659 79.1755 31.2551L79.9331 29.6502L81.5379 30.4079C81.6487 30.4602 81.7809 30.4127 81.8332 30.302C81.8856 30.1912 81.8381 30.0589 81.7273 30.0066L79.9219 29.1543ZM81.051 23.6739C82.2923 26.0185 82.9283 27.8463 83.1629 29.188C83.4003 30.5452 83.2187 31.3514 82.9079 31.7165C82.7599 31.8902 82.579 31.9704 82.3746 31.9709C82.1631 31.9715 81.9081 31.8863 81.63 31.6905C81.0728 31.2982 80.4716 30.4948 80.036 29.28L79.6184 29.4298C80.0732 30.698 80.7186 31.5915 81.3746 32.0533C81.703 32.2845 82.0462 32.4155 82.3758 32.4146C82.7125 32.4137 83.0155 32.2745 83.2457 32.0041C83.6912 31.4807 83.8426 30.4988 83.6 29.1116C83.3547 27.7089 82.6976 25.8358 81.4431 23.4664L81.051 23.6739Z" fill="#505050"/>
<path d="M60.6074 106.884C60.6074 106.884 61.5412 105.15 64.6787 104.728C67.8162 104.305 70.5853 105.526 70.5853 105.526L72.7627 103.751C72.7627 103.751 71.7916 104.884 72.1869 105.527C72.5822 106.17 73.637 106.892 73.637 106.892L70.5853 105.526C70.5853 105.526 67.8895 107.822 65.3361 108.148C62.7828 108.474 60.6074 106.884 60.6074 106.884Z" fill="#0F68C2"/>
<path d="M70.5853 105.526C70.5853 105.526 67.8162 104.305 64.6787 104.728C61.5412 105.15 60.6074 106.884 60.6074 106.884C60.6074 106.884 62.7828 108.474 65.3361 108.148C67.8895 107.822 70.5853 105.526 70.5853 105.526ZM70.5853 105.526L72.7627 103.751C72.7627 103.751 71.7916 104.884 72.1869 105.527C72.5822 106.17 73.637 106.892 73.637 106.892L70.5853 105.526Z" stroke="#0F68C2" stroke-width="0.310226" stroke-linejoin="round"/>
<path d="M69.6045 99.5805C69.6045 99.5805 70.5372 97.8463 73.6744 97.4219C76.8117 96.9974 79.5815 98.2162 79.5815 98.2162L81.7578 96.4396C81.7578 96.4396 80.7875 97.5735 81.1831 98.2162C81.5788 98.8589 82.634 99.5805 82.634 99.5805L79.5815 98.2162C79.5815 98.2162 76.8871 100.514 74.3339 100.842C71.7808 101.169 69.6045 99.5805 69.6045 99.5805Z" fill="#0F68C2"/>
<path d="M79.5815 98.2162C79.5815 98.2162 76.8117 96.9974 73.6744 97.4219C70.5372 97.8463 69.6045 99.5805 69.6045 99.5805C69.6045 99.5805 71.7808 101.169 74.3339 100.842C76.8871 100.514 79.5815 98.2162 79.5815 98.2162ZM79.5815 98.2162L81.7578 96.4396C81.7578 96.4396 80.7875 97.5735 81.1831 98.2162C81.5788 98.8589 82.634 99.5805 82.634 99.5805L79.5815 98.2162Z" stroke="#0F68C2" stroke-width="0.310226" stroke-linejoin="round"/>
<path d="M42.618 106.643C42.618 106.643 43.628 104.952 46.7812 104.67C49.9345 104.387 52.6464 105.73 52.6464 105.73L54.9007 104.053C54.9007 104.053 53.8801 105.142 54.2464 105.802C54.6127 106.462 55.6342 107.231 55.6342 107.231L52.6464 105.73C52.6464 105.73 49.851 107.904 47.2857 108.116C44.7203 108.328 42.618 106.643 42.618 106.643Z" fill="#0F68C2"/>
<path d="M52.6464 105.73C52.6464 105.73 49.9345 104.387 46.7812 104.67C43.628 104.952 42.618 106.643 42.618 106.643C42.618 106.643 44.7203 108.328 47.2857 108.116C49.851 107.904 52.6464 105.73 52.6464 105.73ZM52.6464 105.73L54.9007 104.053C54.9007 104.053 53.8801 105.142 54.2464 105.802C54.6127 106.462 55.6342 107.231 55.6342 107.231L52.6464 105.73Z" stroke="#0F68C2" stroke-width="0.310226" stroke-linejoin="round"/>
<path d="M50.9987 99.5505C50.9987 99.5505 52.1615 97.9615 55.3273 97.9735C58.4932 97.9856 61.0685 99.5745 61.0685 99.5745L63.469 98.1148C63.469 98.1148 62.3515 99.1041 62.6549 99.7953C62.9582 100.486 63.9038 101.347 63.9038 101.347L61.0685 99.5745C61.0685 99.5745 58.083 101.479 55.5091 101.452C52.9352 101.424 50.9987 99.5505 50.9987 99.5505Z" fill="#0F68C2"/>
<path d="M61.0685 99.5745C61.0685 99.5745 58.4932 97.9856 55.3273 97.9735C52.1615 97.9615 50.9987 99.5505 50.9987 99.5505C50.9987 99.5505 52.9352 101.424 55.5091 101.452C58.083 101.479 61.0685 99.5745 61.0685 99.5745ZM61.0685 99.5745L63.469 98.1148C63.469 98.1148 62.3515 99.1041 62.6549 99.7953C62.9582 100.486 63.9038 101.347 63.9038 101.347L61.0685 99.5745Z" stroke="#0F68C2" stroke-width="0.310226" stroke-linejoin="round"/>
</g>
</svg>
