<svg width="62" height="54" viewBox="0 0 62 54" fill="none" xmlns="http://www.w3.org/2000/svg">
<rect x="0.4" y="0.4" width="61.2" height="53.2" fill="#D9D9D9" stroke="black" stroke-width="0.8"/>
<rect x="11.4" y="12.4" width="43.2" height="34.2" fill="white" stroke="black" stroke-width="0.8"/>
<rect x="25.4" y="30.4" width="24.2" height="10.2" fill="#CCE2F6" stroke="black" stroke-width="0.8"/>
<path d="M37.7273 35.5502C37.7273 36.067 37.634 36.5136 37.4474 36.89C37.2608 37.2663 37.0048 37.5566 36.6794 37.7608C36.3541 37.9649 35.9825 38.067 35.5646 38.067C35.1467 38.067 34.7751 37.9649 34.4498 37.7608C34.1244 37.5566 33.8684 37.2663 33.6818 36.89C33.4952 36.5136 33.4019 36.067 33.4019 35.5502C33.4019 35.0335 33.4952 34.5869 33.6818 34.2105C33.8684 33.8341 34.1244 33.5439 34.4498 33.3397C34.7751 33.1356 35.1467 33.0335 35.5646 33.0335C35.9825 33.0335 36.3541 33.1356 36.6794 33.3397C37.0048 33.5439 37.2608 33.8341 37.4474 34.2105C37.634 34.5869 37.7273 35.0335 37.7273 35.5502ZM37.1531 35.5502C37.1531 35.126 37.0821 34.7679 36.9402 34.4761C36.7998 34.1842 36.6093 33.9633 36.3684 33.8134C36.1292 33.6635 35.8612 33.5885 35.5646 33.5885C35.2679 33.5885 34.9992 33.6635 34.7584 33.8134C34.5191 33.9633 34.3285 34.1842 34.1866 34.4761C34.0463 34.7679 33.9761 35.126 33.9761 35.5502C33.9761 35.9745 34.0463 36.3325 34.1866 36.6244C34.3285 36.9163 34.5191 37.1372 34.7584 37.2871C34.9992 37.437 35.2679 37.512 35.5646 37.512C35.8612 37.512 36.1292 37.437 36.3684 37.2871C36.6093 37.1372 36.7998 36.9163 36.9402 36.6244C37.0821 36.3325 37.1531 35.9745 37.1531 35.5502ZM39.1746 36.6603L39.1651 35.9617H39.2799L40.8876 34.3254H41.5861L39.8732 36.0574H39.8254L39.1746 36.6603ZM38.6483 38V33.1005H39.2129V38H38.6483ZM40.9833 38L39.5478 36.1818L39.9498 35.7895L41.701 38H40.9833Z" fill="black"/>
<rect x="0.4" y="0.4" width="61.2" height="5.2" fill="white" stroke="black" stroke-width="0.8"/>
</svg>
