<svg width="175" height="175" viewBox="0 0 175 175" fill="none" xmlns="http://www.w3.org/2000/svg">
<path d="M174.336 87.084C174.336 135.179 135.347 174.168 87.2519 174.168C39.1568 174.168 0.167969 135.179 0.167969 87.084C0.167969 38.9888 39.1568 0 87.2519 0C135.347 0 174.336 38.9888 174.336 87.084Z" fill="#FFF59E"/>
<mask id="mask0_550_39972" style="mask-type:alpha" maskUnits="userSpaceOnUse" x="0" y="0" width="175" height="175">
<circle cx="87.2519" cy="87.084" r="87.084" fill="black"/>
<circle cx="87.2519" cy="87.084" r="87.084" fill="black" fill-opacity="0.2"/>
</mask>
<g mask="url(#mask0_550_39972)">
<path d="M125.039 51.6802C127.765 95.7923 99.7466 92.7633 99.7466 92.7633C120.571 112.452 134.598 179.951 105.047 179.09C91.1419 178.685 52.8117 172.462 40.3024 165.081C22.5687 154.617 61.8842 96.5496 67.5634 92.7633C67.5634 92.7633 38.7879 87.4626 51.731 44.2605C57.0401 26.5395 70.9368 19.032 84.6169 18.2624C108.596 16.9134 123.744 30.7121 125.039 51.6802Z" fill="#1A1A1A"/>
<ellipse cx="57.8966" cy="68.1877" rx="6.85123" ry="7.53636" fill="#FAD4B8"/>
<ellipse cx="107.911" cy="68.1877" rx="6.85123" ry="7.53636" fill="#FEDDC6"/>
<rect x="70.2285" y="83.9455" width="27.4049" height="35.6264" fill="#FAD4B8"/>
<path fill-rule="evenodd" clip-rule="evenodd" d="M107.911 49.1259L71.5309 38.7274L58.582 50.9745L59.1301 65.1473L58.5931 72.5418C58.5858 72.7465 58.582 72.9519 58.582 73.158C58.582 84.3887 72.7641 95.5726 83.2465 96.2658C90.0292 96.7144 107.911 84.3887 107.911 73.158C107.911 72.9519 107.907 72.7465 107.9 72.5418C107.9 72.5418 107.531 68.068 107.363 65.1473C107.086 60.3205 107.911 52.8231 107.911 52.8231V49.1259Z" fill="#FEDDC6"/>
<path d="M63.5103 54.5169C63.5982 54.3797 63.7063 54.2597 63.8386 54.1646C64.5269 53.6698 66.9591 52.0492 69.9709 51.5198C70.816 51.3712 71.5723 51.9839 71.7294 52.8275V52.8275C71.9299 53.9035 71.0875 54.8795 70.0005 55.0077C68.1165 55.2299 66.7275 55.8007 65.0947 56.4776C63.8425 56.9967 62.7792 55.6583 63.5103 54.5169V54.5169Z" fill="black"/>
<ellipse cx="69.5437" cy="63.3918" rx="2.05537" ry="2.74049" fill="#1A1A1A"/>
<ellipse cx="69.5437" cy="63.3918" rx="2.05537" ry="2.74049" fill="#1A1A1A"/>
<ellipse cx="69.5437" cy="63.3918" rx="2.05537" ry="2.74049" fill="#1A1A1A"/>
<ellipse cx="69.5437" cy="63.3918" rx="2.05537" ry="2.74049" fill="#1A1A1A"/>
<ellipse cx="91.468" cy="63.3918" rx="2.05537" ry="2.74049" fill="#1A1A1A"/>
<ellipse cx="91.468" cy="63.3918" rx="2.05537" ry="2.74049" fill="#1A1A1A"/>
<ellipse cx="91.468" cy="63.3918" rx="2.05537" ry="2.74049" fill="#1A1A1A"/>
<ellipse cx="91.468" cy="63.3918" rx="2.05537" ry="2.74049" fill="#1A1A1A"/>
<ellipse cx="98.3194" cy="72.9835" rx="6.16611" ry="5.48099" fill="#FAC8B8" fill-opacity="0.8"/>
<ellipse cx="63.3784" cy="73.6686" rx="5.48099" ry="4.79586" fill="#FAC8B8" fill-opacity="0.8"/>
<path d="M75.7529 81.7966C82.3817 85.6258 86.6988 83.0347 89.1857 80.7558" stroke="#79003A" stroke-width="0.818421" stroke-linecap="round"/>
<path d="M75.9857 68.8727C75.9857 68.8727 73.9252 71.7457 74.4159 73.4738C74.7906 74.7934 75.8625 75.3135 76.9146 75.6047C77.841 75.8612 78.9391 75.6838 79.8213 75.2651" stroke="#79003A" stroke-width="0.586044" stroke-linecap="round"/>
<path fill-rule="evenodd" clip-rule="evenodd" d="M122.233 59.8712C121.779 60.1277 118.873 57.9108 116.133 58.5959C113.392 59.281 108.596 60.6513 106.541 61.3364C104.485 62.0215 100.641 60.5432 98.4324 59.281C98.0916 59.2294 95.5788 56.5405 93.5235 49.6893C94.2086 56.5405 97.3319 59.3423 96.9491 59.281C95.322 59.0204 92.8383 58.5959 90.0978 57.9108C88.2768 56.2558 85.302 51.0595 83.9317 41.4678C83.9317 48.319 86.6722 55.468 88.0425 57.2257C83.9002 56.3536 78.5677 54.727 76.3954 53.1149C73.6549 51.7447 72.2846 47.6339 72.0705 42.8381C70.974 44.5004 68.1871 49.5996 64.0631 52.0745C60.1078 54.4482 58.2103 54.3935 52.5356 54.9165C52.6552 52.0745 52.8033 50.2282 52.5356 54.9165C52.5356 36.0814 68.0598 23.6546 87.3573 23.6546C106.655 23.6546 122.299 38.9234 122.299 57.7585C122.299 58.468 122.276 59.1725 122.233 59.8712Z" fill="#1A1A1A"/>
<mask id="mask1_550_39972" style="mask-type:alpha" maskUnits="userSpaceOnUse" x="43" y="18" width="84" height="162">
<path d="M125.039 51.6802C133.21 92.6311 89.4128 114.721 89.4128 136.305C83.2467 151.145 118.963 180.699 89.4128 179.838C75.5072 179.433 61.1285 173.274 48.6192 165.893C30.8855 155.429 68.8367 94.8507 65.2919 92.3847C68.7175 52.5882 36.6583 84.057 51.7311 44.2605C58.2833 26.9605 70.9368 19.032 84.617 18.2624C108.596 16.9134 120.929 31.0782 125.039 51.6802Z" fill="#1A1A1A"/>
</mask>
<g mask="url(#mask1_550_39972)">
<path d="M61.8038 25.0248C66.5133 34.6165 100.152 38.7037 112.262 26.395L122.354 39.4124C112.935 35.9868 104.389 39.2042 86.9301 39.4124C75.1022 39.5534 64.4949 35.9868 53.7305 38.0421L61.8038 25.0248Z" fill="#363636"/>
</g>
<path d="M107.477 75.7091C107.621 75.719 107.765 75.724 107.911 75.724C111.695 75.724 114.762 72.3419 114.762 68.1697C114.762 64.2526 112.059 61.0318 108.596 60.6528C107.226 60.6155 106.541 61.3022 106.541 61.3022" stroke="#79003A" stroke-width="0.584586" stroke-linecap="round"/>
<path d="M58.582 54.4852L59.1074 65.5203L58.5927 72.8262C58.5856 73.0284 58.582 73.2314 58.582 73.435C58.582 84.5311 72.177 95.581 82.2255 96.266C83.8649 96.3777 86.1806 95.6871 88.7275 94.4138" stroke="#79003A" stroke-width="0.584586" stroke-linecap="round"/>
<path d="M17.4746 135.687L47.2613 111.531L70.2291 103.129C70.2291 117.517 97.634 118.202 97.634 103.129L120.995 111.531L151.759 146.292L124.354 170.956L111.337 151.966L107.323 185.344H59.9572L54.0976 151.966L33.1004 168.77L17.4746 135.687Z" fill="#96CDB5"/>
<path d="M56.5836 126.84L58.7453 107.33L64.4873 105.229V126.84C64.4873 120.403 64.4873 131.958 64.4873 126.84C68.637 126.84 100.702 126.845 102.776 126.84L103.475 105.229L109.315 107.33L109.213 127.218L112.999 134.034L111.337 151.966L107.323 185.344H59.9574L54.0977 151.966C52.2397 139.423 52.8401 138.842 53.1759 134.412L56.5836 126.84Z" fill="#ECCA9D"/>
<path d="M120.995 111.531L97.8536 103.365C97.8536 118.438 70.2139 117.752 70.2139 103.365" stroke="#79003A" stroke-width="0.757252" stroke-linecap="round" stroke-linejoin="round"/>
<path d="M59.9577 185.344L54.0981 151.966C53.0702 144.294 52.7687 140.383 53.1015 134.645" stroke="#79003A" stroke-width="0.584586" stroke-linecap="round"/>
<path d="M110.441 65.3643C107.968 65.5409 107.994 69.8065 108.266 71.5758" stroke="#79003A" stroke-width="0.584586" stroke-linecap="round"/>
</g>
<path d="M51.2826 38.2412L51.2825 41.6488C82.0585 42.1252 97.2905 45.5136 125.49 51.7865L125.873 51.8717V46.9496C125.873 46.9496 133.824 43.1634 125.873 31.426C122.665 26.6902 115.327 20.5368 105.426 16.2733C108.076 12.116 100.49 9.08701 100.49 14.3878C86.4065 9.67347 68.3018 9.16465 49.7691 20.4458C43.0359 24.5444 40.7792 36.317 51.2826 38.2412Z" fill="#E97C7C"/>
<path d="M64.5342 37.1054C87.5565 37.0999 100.561 39.8671 122.464 46.571" stroke="#BE5B5B" stroke-width="0.757252"/>
</svg>
