<svg width="175" height="175" viewBox="0 0 175 175" fill="none" xmlns="http://www.w3.org/2000/svg">
<path d="M174.504 87.084C174.504 135.179 135.515 174.168 87.4199 174.168C39.3248 174.168 0.335938 135.179 0.335938 87.084C0.335938 38.9888 39.3248 0 87.4199 0C135.515 0 174.504 38.9888 174.504 87.084Z" fill="#C5FFBB"/>
<mask id="mask0_550_39906" style="mask-type:alpha" maskUnits="userSpaceOnUse" x="0" y="0" width="175" height="175">
<circle cx="87.4199" cy="87.084" r="87.084" fill="#D9D9D9"/>
</mask>
<g mask="url(#mask0_550_39906)">
<path d="M125.207 51.6802C133.378 92.6312 103.7 96.171 101.807 96.171C110.516 96.171 116.952 107.151 104.458 114.345C92.4018 121.286 92.3417 112.073 92.3417 112.073C74.608 101.609 97.0226 98.637 93.4777 96.171C69.6242 100.336 36.826 84.057 51.8987 44.2605C58.451 26.9606 71.1045 19.032 84.7846 18.2624C108.764 16.9134 121.096 31.0782 125.207 51.6802Z" fill="#1A1A1A"/>
<ellipse cx="58.0641" cy="68.1877" rx="6.85123" ry="7.53636" fill="#FAD4B8"/>
<ellipse cx="108.079" cy="68.1877" rx="6.85123" ry="7.53636" fill="#FEDDC6"/>
<rect x="70.3965" y="83.9455" width="27.4049" height="35.6264" fill="#FAD4B8"/>
<path fill-rule="evenodd" clip-rule="evenodd" d="M108.079 49.1259L71.6988 38.7274L58.75 50.9745L59.2981 65.1473L58.7611 72.5418C58.7537 72.7465 58.75 72.9519 58.75 73.158C58.75 84.3887 72.9321 95.5726 83.4144 96.2659C90.1972 96.7144 108.079 84.3887 108.079 73.158C108.079 72.9519 108.075 72.7465 108.068 72.5418C108.068 72.5418 107.699 68.068 107.531 65.1473C107.254 60.3205 108.079 52.8232 108.079 52.8232V49.1259Z" fill="#FEDDC6"/>
<path d="M63.6783 54.5169C63.7662 54.3797 63.8743 54.2597 64.0066 54.1646C64.6948 53.6698 67.1271 52.0492 70.1389 51.5198C70.984 51.3712 71.7402 51.9839 71.8974 52.8275V52.8275C72.0979 53.9035 71.2555 54.8795 70.1685 55.0077C68.2845 55.2299 66.8955 55.8007 65.2626 56.4776C64.0104 56.9967 62.9472 55.6583 63.6783 54.5169V54.5169Z" fill="black"/>
<ellipse cx="69.7111" cy="63.3918" rx="2.05537" ry="2.74049" fill="#1A1A1A"/>
<ellipse cx="69.7111" cy="63.3918" rx="2.05537" ry="2.74049" fill="#1A1A1A"/>
<ellipse cx="69.7111" cy="63.3918" rx="2.05537" ry="2.74049" fill="#1A1A1A"/>
<ellipse cx="69.7111" cy="63.3918" rx="2.05537" ry="2.74049" fill="#1A1A1A"/>
<ellipse cx="91.6355" cy="63.3918" rx="2.05537" ry="2.74049" fill="#1A1A1A"/>
<ellipse cx="91.6355" cy="63.3918" rx="2.05537" ry="2.74049" fill="#1A1A1A"/>
<ellipse cx="91.6355" cy="63.3918" rx="2.05537" ry="2.74049" fill="#1A1A1A"/>
<ellipse cx="91.6355" cy="63.3918" rx="2.05537" ry="2.74049" fill="#1A1A1A"/>
<ellipse cx="98.4869" cy="72.9835" rx="6.16611" ry="5.48099" fill="#FAC8B8" fill-opacity="0.8"/>
<ellipse cx="63.5459" cy="73.6686" rx="5.48099" ry="4.79586" fill="#FAC8B8" fill-opacity="0.8"/>
<path d="M75.9204 81.7966C82.5492 85.6258 86.8663 83.0347 89.3532 80.7558" stroke="#79003A" stroke-width="0.818421" stroke-linecap="round"/>
<path d="M76.1531 68.8728C76.1531 68.8728 74.0927 71.7458 74.5834 73.4738C74.9581 74.7935 76.03 75.3135 77.0821 75.6048C78.0085 75.8612 79.1065 75.6838 79.9888 75.2651" stroke="#79003A" stroke-width="0.586044" stroke-linecap="round"/>
<path fill-rule="evenodd" clip-rule="evenodd" d="M122.4 59.8713C121.946 60.1277 119.041 57.9108 116.3 58.5959C113.56 59.2811 108.763 60.6513 106.708 61.3364C104.653 62.0215 100.808 60.5432 98.5999 59.2811C98.2591 59.2295 95.7463 56.5406 93.6909 49.6893C94.3761 56.5406 97.4993 59.3424 97.1166 59.2811C95.4895 59.0205 93.0058 58.5959 90.2653 57.9108C88.4443 56.2558 85.4695 51.0596 84.0992 41.4678C84.0992 48.3191 86.8397 55.4681 88.2099 57.2257C84.0677 56.3536 78.7351 54.7271 76.5629 53.1149C73.8224 51.7447 72.4521 47.634 72.238 42.8381C71.1415 44.5004 68.3545 49.5997 64.2306 52.0746C60.2753 54.4483 58.3778 54.3935 52.7031 54.9166C52.8227 52.0746 52.9708 50.2283 52.7031 54.9166C52.7031 36.0815 68.2273 23.6546 87.5248 23.6546C106.822 23.6546 122.466 38.9235 122.466 57.7586C122.466 58.4681 122.444 59.1725 122.4 59.8713Z" fill="#1A1A1A"/>
<mask id="mask1_550_39906" style="mask-type:alpha" maskUnits="userSpaceOnUse" x="38" y="18" width="94" height="149">
<path d="M125.207 51.6802C126.103 56.1712 127.176 62.4733 127.176 67.3954C133.991 122.296 131.34 126.175 131.34 145.392C125.174 160.232 110.912 132.244 81.3618 131.383C67.4562 130.978 61.2963 173.274 48.787 165.893C31.0533 155.429 42.5005 160.732 38.9557 158.266C42.0227 122.635 32.8465 87.705 47.0319 56.0367C48.6906 52.3339 50.321 48.4265 51.8988 44.2605C58.4511 26.9606 71.1046 19.032 84.7848 18.2624C108.764 16.9134 121.096 31.0782 125.207 51.6802Z" fill="#1A1A1A"/>
</mask>
<g mask="url(#mask1_550_39906)">
<path d="M61.9718 25.0248C66.6812 34.6166 100.32 38.7037 112.43 26.3951L122.522 39.4124C113.103 35.9868 104.557 39.2042 87.098 39.4124C75.2702 39.5535 64.6629 35.9868 53.8984 38.0422L61.9718 25.0248Z" fill="#363636"/>
</g>
<path d="M107.645 75.7091C107.788 75.719 107.933 75.7241 108.079 75.7241C111.863 75.7241 114.93 72.3419 114.93 68.1698C114.93 64.2526 112.227 61.0318 108.764 60.6528C107.394 60.6155 106.709 61.3023 106.709 61.3023" stroke="#79003A" stroke-width="0.584586" stroke-linecap="round"/>
<path d="M58.7505 54.4852L59.2759 65.5203L58.7611 72.8262C58.7541 73.0284 58.7505 73.2314 58.7505 73.4351C58.7505 84.5311 72.3455 95.5811 82.394 96.266C84.0333 96.3777 86.3491 95.6871 88.8959 94.4138" stroke="#79003A" stroke-width="0.584586" stroke-linecap="round"/>
<path d="M17.6426 135.687L47.4292 111.531L70.3971 103.129C70.3971 117.517 97.802 118.202 97.802 103.129L121.163 111.531L151.927 146.292L124.522 170.956L111.504 151.966L107.491 185.344H60.1252L54.2655 151.966L33.2684 168.77L17.6426 135.687Z" fill="#277A83"/>
<path d="M121.163 111.531L98.0215 103.365C98.0215 118.438 70.3818 117.752 70.3818 103.365" stroke="#79003A" stroke-width="0.757252" stroke-linecap="round" stroke-linejoin="round"/>
<path d="M60.1262 185.344L54.2665 151.966C53.2387 144.294 52.9371 140.383 53.27 134.645" stroke="#79003A" stroke-width="0.584586" stroke-linecap="round"/>
<path d="M110.608 65.3643C108.136 65.5409 108.162 69.8065 108.434 71.5758" stroke="#79003A" stroke-width="0.584586" stroke-linecap="round"/>
<path d="M84.181 135.147C83.8914 135.289 83.5742 135.4 83.2291 135.48C83.5742 135.56 83.8914 135.671 84.181 135.813L87.5357 137.541C87.6775 137.608 87.7791 137.695 87.8407 137.799C87.9023 137.904 87.9331 138.018 87.9331 138.141V139.768L80.6045 135.942V135.018L87.9331 131.201V132.827C87.9331 132.951 87.9023 133.065 87.8407 133.169C87.7791 133.268 87.6775 133.354 87.5357 133.428L84.181 135.147Z" fill="black"/>
<path d="M92.6478 141.736C92.5431 142.02 92.3737 142.232 92.1395 142.374C91.9116 142.516 91.6775 142.587 91.4372 142.587H90.4668L95.8639 128.78C95.9625 128.521 96.1135 128.324 96.3168 128.188C96.5201 128.046 96.7573 127.976 97.0284 127.976H98.008L92.6478 141.736Z" fill="black"/>
<path d="M107.866 135.018V135.942L100.537 139.768V138.141C100.537 138.018 100.568 137.904 100.629 137.799C100.691 137.695 100.793 137.608 100.934 137.541L104.289 135.813C104.579 135.671 104.896 135.56 105.241 135.48C104.896 135.4 104.579 135.289 104.289 135.147L100.934 133.428C100.793 133.354 100.691 133.268 100.629 133.169C100.568 133.065 100.537 132.951 100.537 132.827V131.201L107.866 135.018Z" fill="black"/>
</g>
</svg>
