<svg width="175" height="175" viewBox="0 0 175 175" fill="none" xmlns="http://www.w3.org/2000/svg">
<path d="M174.336 87.084C174.336 135.179 135.347 174.168 87.2519 174.168C39.1568 174.168 0.167969 135.179 0.167969 87.084C0.167969 38.9888 39.1568 0 87.2519 0C135.347 0 174.336 38.9888 174.336 87.084Z" fill="#D4B3FF"/>
<mask id="mask0_550_39867" style="mask-type:alpha" maskUnits="userSpaceOnUse" x="0" y="0" width="175" height="175">
<circle cx="87.2519" cy="87.084" r="87.084" fill="#D9D9D9"/>
</mask>
<g mask="url(#mask0_550_39867)">
<path d="M125.039 51.6802C133.21 92.6312 144.803 130.623 144.803 152.208C138.637 167.047 118.963 180.699 89.4126 179.838C75.507 179.433 61.1283 173.274 48.619 165.893C30.8853 155.429 33.2455 154.674 29.7007 152.208C33.1263 112.411 36.6581 84.057 51.7308 44.2605C58.2831 26.9606 70.9366 19.032 84.6168 18.2624C108.596 16.9134 120.928 31.0782 125.039 51.6802Z" fill="#1A1A1A"/>
<ellipse cx="57.8962" cy="68.1877" rx="6.85123" ry="7.53636" fill="#FAD4B8"/>
<ellipse cx="107.911" cy="68.1877" rx="6.85123" ry="7.53636" fill="#FEDDC6"/>
<rect x="70.2285" y="83.9455" width="27.4049" height="35.6264" fill="#FAD4B8"/>
<path fill-rule="evenodd" clip-rule="evenodd" d="M107.911 49.1259L71.5309 38.7274L58.582 50.9745L59.1301 65.1473L58.5931 72.5418C58.5858 72.7465 58.582 72.9519 58.582 73.158C58.582 84.3887 72.7641 95.5726 83.2465 96.2659C90.0292 96.7144 107.911 84.3887 107.911 73.158C107.911 72.9519 107.907 72.7465 107.9 72.5418C107.9 72.5418 107.531 68.068 107.363 65.1473C107.086 60.3205 107.911 52.8232 107.911 52.8232V49.1259Z" fill="#FEDDC6"/>
<path d="M63.5103 54.5169C63.5982 54.3797 63.7063 54.2597 63.8386 54.1646C64.5269 53.6698 66.9591 52.0492 69.9709 51.5198C70.816 51.3712 71.5723 51.9839 71.7294 52.8275V52.8275C71.9299 53.9035 71.0875 54.8795 70.0005 55.0077C68.1165 55.2299 66.7275 55.8007 65.0947 56.4776C63.8425 56.9967 62.7792 55.6583 63.5103 54.5169V54.5169Z" fill="black"/>
<ellipse cx="69.5432" cy="63.3918" rx="2.05537" ry="2.74049" fill="#1A1A1A"/>
<ellipse cx="69.5432" cy="63.3918" rx="2.05537" ry="2.74049" fill="#1A1A1A"/>
<ellipse cx="69.5432" cy="63.3918" rx="2.05537" ry="2.74049" fill="#1A1A1A"/>
<ellipse cx="69.5432" cy="63.3918" rx="2.05537" ry="2.74049" fill="#1A1A1A"/>
<ellipse cx="91.4675" cy="63.3918" rx="2.05537" ry="2.74049" fill="#1A1A1A"/>
<ellipse cx="91.4675" cy="63.3918" rx="2.05537" ry="2.74049" fill="#1A1A1A"/>
<ellipse cx="91.4675" cy="63.3918" rx="2.05537" ry="2.74049" fill="#1A1A1A"/>
<ellipse cx="91.4675" cy="63.3918" rx="2.05537" ry="2.74049" fill="#1A1A1A"/>
<ellipse cx="98.3189" cy="72.9835" rx="6.16611" ry="5.48099" fill="#FAC8B8" fill-opacity="0.8"/>
<ellipse cx="63.378" cy="73.6686" rx="5.48099" ry="4.79586" fill="#FAC8B8" fill-opacity="0.8"/>
<path d="M75.7524 81.7966C82.3812 85.6258 86.6983 83.0347 89.1852 80.7558" stroke="#79003A" stroke-width="0.818421" stroke-linecap="round"/>
<path d="M75.9852 68.8728C75.9852 68.8728 73.9247 71.7458 74.4154 73.4738C74.7901 74.7935 75.8621 75.3135 76.9141 75.6048C77.8405 75.8612 78.9386 75.6838 79.8208 75.2651" stroke="#79003A" stroke-width="0.586044" stroke-linecap="round"/>
<path fill-rule="evenodd" clip-rule="evenodd" d="M122.232 59.8713C121.778 60.1277 118.873 57.9108 116.132 58.5959C113.392 59.2811 108.596 60.6513 106.54 61.3364C104.485 62.0215 100.64 60.5432 98.432 59.2811C98.0911 59.2295 95.5783 56.5406 93.523 49.6893C94.2081 56.5406 97.3314 59.3424 96.9486 59.2811C95.3215 59.0205 92.8378 58.5959 90.0974 57.9108C88.2763 56.2558 85.3015 51.0596 83.9312 41.4678C83.9312 48.3191 86.6717 55.4681 88.042 57.2257C83.8997 56.3536 78.5672 54.7271 76.3949 53.1149C73.6544 51.7447 72.2841 47.634 72.07 42.8381C70.9735 44.5004 68.1866 49.5997 64.0627 52.0746C60.1074 54.4483 58.2098 54.3935 52.5352 54.9166C52.6548 52.0746 52.8028 50.2283 52.5352 54.9166C52.5352 36.0815 68.0593 23.6546 87.3569 23.6546C106.654 23.6546 122.298 38.9235 122.298 57.7586C122.298 58.4681 122.276 59.1725 122.232 59.8713Z" fill="#1A1A1A"/>
<mask id="mask1_550_39867" style="mask-type:alpha" maskUnits="userSpaceOnUse" x="49" y="18" width="78" height="59">
<path d="M125.039 51.6802C133.21 92.6312 114.137 71.1817 92.5524 71.1817C92.5524 71.1817 36.658 84.057 51.7307 44.2605C58.283 26.9606 70.9365 19.032 84.6167 18.2624C108.596 16.9134 120.928 31.0782 125.039 51.6802Z" fill="#1A1A1A"/>
</mask>
<g mask="url(#mask1_550_39867)">
<path d="M61.8038 25.0248C66.5133 34.6166 100.152 38.7037 112.262 26.3951L122.354 39.4124C112.935 35.9868 104.389 39.2042 86.9301 39.4124C75.1022 39.5535 64.4949 35.9868 53.7305 38.0422L61.8038 25.0248Z" fill="#363636"/>
</g>
<path d="M107.477 75.7091C107.621 75.719 107.765 75.724 107.911 75.724C111.695 75.724 114.762 72.3419 114.762 68.1697C114.762 64.2526 112.059 61.0318 108.596 60.6528C107.226 60.6155 106.541 61.3022 106.541 61.3022" stroke="#79003A" stroke-width="0.584586" stroke-linecap="round"/>
<path d="M58.582 54.4852L59.1074 65.5203L58.5927 72.8262C58.5856 73.0284 58.582 73.2314 58.582 73.4351C58.582 84.5311 72.177 95.5811 82.2255 96.266C83.8649 96.3777 86.1806 95.6871 88.7275 94.4138" stroke="#79003A" stroke-width="0.584586" stroke-linecap="round"/>
<path d="M17.4746 135.687L47.2613 111.531L70.2291 103.129C70.2291 117.517 97.634 118.202 97.634 103.129L120.995 111.531L151.759 146.292L124.354 170.956L111.337 151.966L107.323 185.344H59.9572L54.0976 151.966L33.1004 168.77L17.4746 135.687Z" fill="white"/>
<path d="M120.995 111.531L97.8536 103.365C97.8536 118.438 70.2139 117.752 70.2139 103.365" stroke="#79003A" stroke-width="0.757252" stroke-linecap="round" stroke-linejoin="round"/>
<path d="M59.9577 185.344L54.0981 151.966C53.0702 144.294 52.7687 140.383 53.1015 134.645" stroke="#79003A" stroke-width="0.584586" stroke-linecap="round"/>
<path d="M110.44 65.3643C107.967 65.5409 107.994 69.8065 108.266 71.5758" stroke="#79003A" stroke-width="0.584586" stroke-linecap="round"/>
<path d="M108.455 134.791H92.5527V147.285L100.504 153.344L108.455 147.285V134.791Z" fill="white" stroke="#79003A" stroke-width="0.757252"/>
<mask id="path-25-outside-1_550_39867" maskUnits="userSpaceOnUse" x="57.4766" y="55.0367" width="50" height="17" fill="black">
<rect fill="white" x="57.4766" y="55.0367" width="50" height="17"/>
<path fill-rule="evenodd" clip-rule="evenodd" d="M97.7367 63.6092C97.7367 67.296 94.3673 70.4244 90.0288 70.4244C85.6902 70.4244 82.3208 67.296 82.3208 63.6092C82.3208 59.9223 85.6902 56.7939 90.0288 56.7939C94.3673 56.7939 97.7367 59.9223 97.7367 63.6092ZM98.4632 64.2599C98.0943 68.1374 94.4589 71.1817 90.0288 71.1817C85.6324 71.1817 82.0187 68.1837 81.6034 64.3484H75.3672C74.9518 68.1837 71.3382 71.1817 66.9418 71.1817C62.2666 71.1817 58.4766 67.7914 58.4766 63.6092C58.4766 59.427 62.2666 56.0367 66.9418 56.0367C71.6103 56.0367 75.3961 59.4172 75.407 63.5911H81.5636C81.5745 59.4172 85.3603 56.0366 90.0288 56.0366C94.6488 56.0366 98.4045 59.3475 98.4924 63.4615L105.313 61.4431C105.513 61.3838 105.724 61.4982 105.783 61.6987C105.842 61.8992 105.728 62.1099 105.528 62.1692L98.4632 64.2599ZM74.6375 63.5911H74.6497C74.6387 59.9122 71.2733 56.7939 66.9418 56.7939C62.6032 56.7939 59.2338 59.9224 59.2338 63.6092C59.2338 67.296 62.6032 70.4244 66.9418 70.4244C71.129 70.4244 74.4136 67.5104 74.6375 63.9927V63.5911Z"/>
</mask>
<path fill-rule="evenodd" clip-rule="evenodd" d="M97.7367 63.6092C97.7367 67.296 94.3673 70.4244 90.0288 70.4244C85.6902 70.4244 82.3208 67.296 82.3208 63.6092C82.3208 59.9223 85.6902 56.7939 90.0288 56.7939C94.3673 56.7939 97.7367 59.9223 97.7367 63.6092ZM98.4632 64.2599C98.0943 68.1374 94.4589 71.1817 90.0288 71.1817C85.6324 71.1817 82.0187 68.1837 81.6034 64.3484H75.3672C74.9518 68.1837 71.3382 71.1817 66.9418 71.1817C62.2666 71.1817 58.4766 67.7914 58.4766 63.6092C58.4766 59.427 62.2666 56.0367 66.9418 56.0367C71.6103 56.0367 75.3961 59.4172 75.407 63.5911H81.5636C81.5745 59.4172 85.3603 56.0366 90.0288 56.0366C94.6488 56.0366 98.4045 59.3475 98.4924 63.4615L105.313 61.4431C105.513 61.3838 105.724 61.4982 105.783 61.6987C105.842 61.8992 105.728 62.1099 105.528 62.1692L98.4632 64.2599ZM74.6375 63.5911H74.6497C74.6387 59.9122 71.2733 56.7939 66.9418 56.7939C62.6032 56.7939 59.2338 59.9224 59.2338 63.6092C59.2338 67.296 62.6032 70.4244 66.9418 70.4244C71.129 70.4244 74.4136 67.5104 74.6375 63.9927V63.5911Z" fill="white"/>
<path d="M98.4632 64.2599L98.2483 63.5338L97.7578 63.6789L97.7093 64.1882L98.4632 64.2599ZM81.6034 64.3484L82.3562 64.2669L82.283 63.5911H81.6034V64.3484ZM75.3672 64.3484V63.5911H74.6875L74.6143 64.2669L75.3672 64.3484ZM75.407 63.5911L74.6497 63.5931L74.6517 64.3484H75.407V63.5911ZM81.5636 63.5911V64.3484H82.3189L82.3208 63.5931L81.5636 63.5911ZM98.4924 63.4615L97.7353 63.4777L97.7565 64.469L98.7073 64.1876L98.4924 63.4615ZM105.313 61.4431L105.528 62.1693L105.528 62.1693L105.313 61.4431ZM105.783 61.6987L105.057 61.9136L105.057 61.9136L105.783 61.6987ZM105.528 62.1693L105.742 62.8954L105.742 62.8954L105.528 62.1693ZM74.6497 63.5911V64.3484H75.4092L75.407 63.5889L74.6497 63.5911ZM74.6375 63.5911V62.8339H73.8803V63.5911H74.6375ZM74.6375 63.9928L75.3933 64.0409L75.3948 64.0168V63.9928H74.6375ZM90.0288 71.1817C94.7066 71.1817 98.494 67.789 98.494 63.6092H96.9795C96.9795 66.8029 94.0281 69.6672 90.0288 69.6672V71.1817ZM81.5636 63.6092C81.5636 67.789 85.351 71.1817 90.0288 71.1817V69.6672C86.0295 69.6672 83.0781 66.8029 83.0781 63.6092H81.5636ZM90.0288 56.0367C85.351 56.0367 81.5636 59.4293 81.5636 63.6092H83.0781C83.0781 60.4154 86.0295 57.5512 90.0288 57.5512V56.0367ZM98.494 63.6092C98.494 59.4293 94.7066 56.0367 90.0288 56.0367V57.5512C94.0281 57.5512 96.9795 60.4154 96.9795 63.6092H98.494ZM90.0288 71.9389C94.7825 71.9389 98.8051 68.661 99.217 64.3316L97.7093 64.1882C97.3834 67.6139 94.1354 70.4244 90.0288 70.4244V71.9389ZM80.8505 64.4299C81.3142 68.7109 85.3106 71.9389 90.0288 71.9389V70.4244C85.9541 70.4244 82.7233 67.6564 82.3562 64.2669L80.8505 64.4299ZM75.3672 65.1056H81.6034V63.5911H75.3672V65.1056ZM66.9418 71.939C71.6599 71.939 75.6564 68.7109 76.12 64.4299L74.6143 64.2669C74.2472 67.6564 71.0165 70.4244 66.9418 70.4244V71.939ZM57.7193 63.6092C57.7193 68.2867 61.9299 71.939 66.9418 71.939V70.4244C62.6032 70.4244 59.2338 67.296 59.2338 63.6092H57.7193ZM66.9418 55.2794C61.9299 55.2794 57.7193 58.9316 57.7193 63.6092H59.2338C59.2338 59.9224 62.6032 56.7939 66.9418 56.7939V55.2794ZM76.1642 63.5892C76.1521 58.9211 71.9466 55.2794 66.9418 55.2794V56.7939C71.274 56.7939 74.6401 59.9134 74.6497 63.5931L76.1642 63.5892ZM81.5636 62.8339H75.407V64.3484H81.5636V62.8339ZM90.0288 55.2794C85.024 55.2794 80.8185 58.9211 80.8063 63.5892L82.3208 63.5931C82.3304 59.9134 85.6966 56.7939 90.0288 56.7939V55.2794ZM99.2495 63.4453C99.1511 58.8455 94.9826 55.2794 90.0288 55.2794V56.7939C94.3151 56.7939 97.6578 59.8494 97.7353 63.4777L99.2495 63.4453ZM98.7073 64.1876L105.528 62.1693L105.098 60.717L98.2775 62.7354L98.7073 64.1876ZM105.528 62.1693C105.327 62.2286 105.116 62.1142 105.057 61.9136L106.509 61.4839C106.331 60.8823 105.699 60.539 105.098 60.717L105.528 62.1693ZM105.057 61.9136C104.998 61.7131 105.112 61.5025 105.313 61.4431L105.742 62.8954C106.344 62.7174 106.687 62.0854 106.509 61.4839L105.057 61.9136ZM105.313 61.4431L98.2483 63.5338L98.6781 64.986L105.742 62.8954L105.313 61.4431ZM74.6497 62.8339H74.6375V64.3484H74.6497V62.8339ZM66.9418 57.5512C70.9344 57.5512 73.883 60.4061 73.8925 63.5934L75.407 63.5889C75.3945 59.4182 71.6121 56.0367 66.9418 56.0367V57.5512ZM59.9911 63.6092C59.9911 60.4154 62.9425 57.5512 66.9418 57.5512V56.0367C62.264 56.0367 58.4766 59.4293 58.4766 63.6092H59.9911ZM66.9418 69.6672C62.9425 69.6672 59.9911 66.803 59.9911 63.6092H58.4766C58.4766 67.789 62.264 71.1817 66.9418 71.1817V69.6672ZM73.8818 63.9446C73.6874 66.9984 70.7983 69.6672 66.9418 69.6672V71.1817C71.4598 71.1817 75.1397 68.0224 75.3933 64.0409L73.8818 63.9446ZM73.8803 63.5911V63.9928H75.3948V63.5911H73.8803Z" fill="#7E7E7E" mask="url(#path-25-outside-1_550_39867)"/>
<path d="M102.397 131.005C102.397 130.586 102.736 130.247 103.154 130.247H105.426C105.844 130.247 106.183 130.586 106.183 131.005V134.412H102.397V131.005Z" fill="#3655A4"/>
<rect x="103.154" y="129.49" width="2.27176" height="11.3588" rx="0.757252" fill="#3655A4"/>
</g>
</svg>
