<?xml version="1.0" encoding="UTF-8" standalone="no"?>
<svg
   xmlns:dc="http://purl.org/dc/elements/1.1/"
   xmlns:cc="http://creativecommons.org/ns#"
   xmlns:rdf="http://www.w3.org/1999/02/22-rdf-syntax-ns#"
   xmlns:svg="http://www.w3.org/2000/svg"
   xmlns="http://www.w3.org/2000/svg"
   width="427"
   height="486"
   viewBox="0 0 427 486"
   fill="none"
   version="1.1"
   id="svg1014">
  <metadata
     id="metadata1020">
    <rdf:RDF>
      <cc:Work
         rdf:about="">
        <dc:format>image/svg+xml</dc:format>
        <dc:type
           rdf:resource="http://purl.org/dc/dcmitype/StillImage" />
        <dc:title></dc:title>
      </cc:Work>
    </rdf:RDF>
  </metadata>
  <defs
     id="defs1018" />
  <path
     d="M81.3417 13.8958L109.45 14.4153C109.47 25.5151 109.173 31.8712 107.944 43.5108L79.8359 41.9521C80.5945 31.6156 80.9204 25.4689 81.3417 13.8958Z"
     fill="#FFBBD8"
     fill-opacity="0.45"
     id="path833" />
  <path
     d="M103.906 163.381L132.014 163.901C132.034 175 131.738 181.356 130.509 192.996L102.4 191.437C103.159 181.101 103.485 174.954 103.906 163.381Z"
     fill="#FFF6A7"
     fill-opacity="0.8"
     id="path835" />
  <path
     d="M103.906 126.715L132.014 127.234C132.034 138.334 131.738 144.69 130.509 156.33L102.4 154.771C103.159 144.435 103.485 138.288 103.906 126.715Z"
     fill="#FFF6A7"
     fill-opacity="0.8"
     id="path837" />
  <path
     d="M65.8298 126.715L93.9381 127.234C93.9577 138.334 93.6613 144.69 92.4323 156.33L64.324 154.771C65.0825 144.435 65.4084 138.288 65.8298 126.715Z"
     fill="#FFF6A7"
     fill-opacity="0.8"
     id="path839" />
  <path
     d="M27.7534 88.6384L55.8617 89.1579C55.8813 100.258 55.5849 106.614 54.3559 118.253L26.2476 116.695C27.0061 106.358 27.332 100.211 27.7534 88.6384Z"
     fill="#FFF6A7"
     fill-opacity="0.8"
     id="path841" />
  <path
     d="M103.906 90.0486L132.014 90.5682C132.034 101.668 131.738 108.024 130.509 119.664L102.4 118.105C103.159 107.768 103.485 101.622 103.906 90.0486Z"
     fill="#FFF6A7"
     fill-opacity="0.8"
     id="path843" />
  <path
     d="M65.8298 90.0486L93.9381 90.5682C93.9577 101.668 93.6613 108.024 92.4323 119.664L64.324 118.105C65.0825 107.768 65.4084 101.622 65.8298 90.0486Z"
     fill="#FFF6A7"
     fill-opacity="0.8"
     id="path845" />
  <path
     d="M27.7534 51.9721L55.8617 52.4917C55.8813 63.5915 55.5849 69.9476 54.3559 81.5871L26.2476 80.0285C27.0061 69.6919 27.332 63.5452 27.7534 51.9721Z"
     fill="#A7EAFF"
     fill-opacity="0.6"
     id="path847" />
  <path
     d="M141.982 51.9721L170.091 52.4917C170.11 63.5915 169.814 69.9476 168.585 81.5871L140.477 80.0285C141.235 69.6919 141.561 63.5452 141.982 51.9721Z"
     fill="#A7EAFF"
     fill-opacity="0.6"
     id="path849" />
  <path
     d="M103.906 51.9721L132.014 52.4917C132.034 63.5915 131.738 69.9476 130.509 81.5871L102.4 80.0285C103.159 69.6919 103.485 63.5452 103.906 51.9721Z"
     fill="#A7EAFF"
     fill-opacity="0.6"
     id="path851" />
  <path
     d="M65.8298 51.9721L93.9381 52.4917C93.9577 63.5915 93.6613 69.9476 92.4323 81.5871L64.324 80.0285C65.0825 69.6919 65.4084 63.5452 65.8298 51.9721Z"
     fill="#A7EAFF"
     fill-opacity="0.6"
     id="path853" />
  <path
     d="M0 238.347C0 236.323 1.64045 234.683 3.66404 234.683H241.827C243.85 234.683 245.491 236.323 245.491 238.347V246.218H0V238.347Z"
     fill="#E4E4E4"
     id="path855" />
  <path
     id="rect857"
     style="fill:#f6f3ff"
     d="M 3.6640401,234.683 H 241.82696 c 2.02988,0 3.66404,1.63416 3.66404,3.66404 v 148.39392 c 0,2.02988 -1.63416,3.66404 -3.66404,3.66404 H 3.6640401 C 1.6341619,390.405 0,388.77084 0,386.74096 V 238.34704 C 0,236.31716 1.6341619,234.683 3.6640401,234.683 Z" />
  <path
     id="rect859"
     style="fill:#e7dffe"
     d="m 0,246.218 h 245.491 v 13.4574 H 0 Z" />
  <path
     id="rect861"
     style="fill:#f1ecfe"
     d="m 0,259.67499 h 29.2251 v 130.729 H 0 Z" />
  <path
     id="rect863"
     style="fill:#f1ecfe"
     d="m 151.97099,269.28799 h 79.8819 v 46.13981 h -79.8819 z" />
  <path
     id="rect865"
     style="fill:#f1ecfe"
     d="m 151.97099,321.19501 h 79.8819 v 46.1398 h -79.8819 z" />
  <path
     id="rect867"
     style="fill:#c7b5f9;fill-opacity:0.4"
     d="m 41.831012,267.36499 h 48.824777 c 0.50747,0 0.916011,0.40854 0.916011,0.91601 v 3.93545 c 0,0.50747 -0.408541,0.91601 -0.916011,0.91601 H 41.831012 c -0.50747,0 -0.916011,-0.40854 -0.916011,-0.91601 V 268.281 c 0,-0.50747 0.408541,-0.91601 0.916011,-0.91601 z" />
  <path
     id="rect869"
     style="fill:#c7b5f9;fill-opacity:0.4"
     d="m 41.831012,367.33499 h 89.739978 c 0.50747,0 0.91601,0.40854 0.91601,0.91601 v 0.0905 c 0,0.50747 -0.40854,0.91601 -0.91601,0.91601 H 41.831012 c -0.50747,0 -0.916011,-0.40854 -0.916011,-0.91601 v -0.0905 c 0,-0.50747 0.408541,-0.91601 0.916011,-0.91601 z" />
  <path
     id="rect871"
     style="fill:#c7b5f9;fill-opacity:0.2"
     d="M 41.831012,275.05499 H 80.91409 c 0.50747,0 0.916011,0.40854 0.916011,0.91601 v 2.01296 c 0,0.50747 -0.408541,0.91601 -0.916011,0.91601 H 41.831012 c -0.50747,0 -0.916011,-0.40854 -0.916011,-0.91601 V 275.971 c 0,-0.50747 0.408541,-0.91601 0.916011,-0.91601 z" />
  <path
     id="rect873"
     style="fill:#c7b5f9;fill-opacity:0.2"
     d="m 42.747021,288.513 h 9.97436 c 1.014939,0 1.83202,0.81708 1.83202,1.83202 v 71.31316 c 0,1.01494 -0.817081,1.83202 -1.83202,1.83202 h -9.97436 c -1.014939,0 -1.83202,-0.81708 -1.83202,-1.83202 v -71.31316 c 0,-1.01494 0.817081,-1.83202 1.83202,-1.83202 z" />
  <path
     id="rect875"
     style="fill:#c7b5f9;fill-opacity:0.2"
     d="m 62.230919,305.815 h 9.97436 c 1.014939,0 1.83202,0.81708 1.83202,1.83202 v 54.01066 c 0,1.01494 -0.817081,1.83202 -1.83202,1.83202 h -9.97436 c -1.014939,0 -1.83202,-0.81708 -1.83202,-1.83202 v -54.01066 c 0,-1.01494 0.817081,-1.83202 1.83202,-1.83202 z" />
  <path
     id="rect877"
     style="fill:#c7b5f9;fill-opacity:0.2"
     d="m 120.68102,305.815 h 9.97436 c 1.01494,0 1.83202,0.81708 1.83202,1.83202 v 54.01066 c 0,1.01494 -0.81708,1.83202 -1.83202,1.83202 h -9.97436 c -1.01494,0 -1.83202,-0.81708 -1.83202,-1.83202 v -54.01066 c 0,-1.01494 0.81708,-1.83202 1.83202,-1.83202 z" />
  <path
     id="rect879"
     style="fill:#c7b5f9;fill-opacity:0.2"
     d="m 81.714123,332.73001 h 9.97436 c 1.014939,0 1.83202,0.81708 1.83202,1.83202 v 27.09586 c 0,1.01494 -0.817081,1.83202 -1.83202,1.83202 h -9.97436 c -1.014939,0 -1.83202,-0.81708 -1.83202,-1.83202 v -27.09586 c 0,-1.01494 0.817081,-1.83202 1.83202,-1.83202 z" />
  <path
     id="rect881"
     style="fill:#c7b5f9;fill-opacity:0.2"
     d="m 101.19722,300.048 h 9.97436 c 1.01494,0 1.83202,0.81709 1.83202,1.83202 v 59.77816 c 0,1.01494 -0.81708,1.83202 -1.83202,1.83202 h -9.97436 c -1.01494,0 -1.832024,-0.81708 -1.832024,-1.83202 v -59.77816 c 0,-1.01493 0.817084,-1.83202 1.832024,-1.83202 z" />
  <path
     id="ellipse883"
     style="fill:#e4dbfc"
     d="m 7.7929202,240.451 a 1.9483401,1.92249 0 0 1 -1.94834,1.92249 1.9483401,1.92249 0 0 1 -1.9483401,-1.92249 1.9483401,1.92249 0 0 1 1.9483401,-1.92249 1.9483401,1.92249 0 0 1 1.94834,1.92249 z" />
  <path
     id="ellipse885"
     style="fill:#e4dbfc"
     d="M 13.63834,240.451 A 1.9483401,1.92249 0 0 1 11.69,242.37349 1.9483401,1.92249 0 0 1 9.7416595,240.451 1.9483401,1.92249 0 0 1 11.69,238.52851 1.9483401,1.92249 0 0 1 13.63834,240.451 Z" />
  <path
     id="ellipse887"
     style="fill:#e4dbfc"
     d="M 19.48334,240.451 A 1.9483401,1.92249 0 0 1 17.535,242.37349 1.9483401,1.92249 0 0 1 15.58666,240.451 1.9483401,1.92249 0 0 1 17.535,238.52851 1.9483401,1.92249 0 0 1 19.48334,240.451 Z" />
  <path
     id="rect889"
     style="fill:#efeaff"
     d="m 312.82938,0 h 82.72506 c 2.23559,0 4.03537,1.799775 4.03537,4.0353699 V 173.52063 c 0,2.23559 -1.79978,4.03537 -4.03537,4.03537 h -82.72506 c -2.2356,0 -4.03537,-1.79978 -4.03537,-4.03537 V 4.0353699 C 308.79401,1.799775 310.59378,0 312.82938,0 Z" />
  <path
     d="M308.794 4.03537C308.794 1.8067 310.601 0 312.829 0H395.554C397.783 0 399.59 1.8067 399.59 4.03537V11.3334H308.794V4.03537Z"
     fill="#F6F3FF"
     id="path891" />
  <path
     id="ellipse893"
     style="fill:#e4dbfc"
     d="m 317.37678,6.3519402 a 2.1457901,2.1173201 0 0 1 -2.14579,2.11732 2.1457901,2.1173201 0 0 1 -2.14579,-2.11732 2.1457901,2.1173201 0 0 1 2.14579,-2.1173201 2.1457901,2.1173201 0 0 1 2.14579,2.1173201 z" />
  <path
     id="ellipse895"
     style="fill:#e4dbfc"
     d="m 323.81379,6.3519402 a 2.1457901,2.1173201 0 0 1 -2.14579,2.11732 2.1457901,2.1173201 0 0 1 -2.14579,-2.11732 2.1457901,2.1173201 0 0 1 2.14579,-2.1173201 2.1457901,2.1173201 0 0 1 2.14579,2.1173201 z" />
  <path
     id="ellipse897"
     style="fill:#e4dbfc"
     d="m 330.25178,6.3519402 a 2.1457901,2.1173201 0 0 1 -2.14579,2.11732 2.1457901,2.1173201 0 0 1 -2.14579,-2.11732 2.1457901,2.1173201 0 0 1 2.14579,-2.1173201 2.1457901,2.1173201 0 0 1 2.14579,2.1173201 z" />
  <path
     id="rect899"
     style="fill:#c7b5f9;fill-opacity:0.2"
     d="m 320.47068,51.000198 h 69.37404 c 1.1178,0 2.01768,0.899886 2.01768,2.01768 v 75.298342 c 0,1.1178 -0.89988,2.01768 -2.01768,2.01768 h -69.37404 c -1.11779,0 -2.01768,-0.89988 -2.01768,-2.01768 V 53.017878 c 0,-1.117794 0.89989,-2.01768 2.01768,-2.01768 z" />
  <path
     id="rect901"
     style="fill:#c7b5f9;fill-opacity:0.4"
     d="m 315.59783,17.000099 h 48.20982 c 0.5589,0 1.00884,0.449943 1.00884,1.00884 v 3.64901 c 0,0.558897 -0.44994,1.00884 -1.00884,1.00884 h -48.20982 c -0.5589,0 -1.00884,-0.449943 -1.00884,-1.00884 v -3.64901 c 0,-0.558897 0.44994,-1.00884 1.00884,-1.00884 z" />
  <path
     id="rect903"
     style="fill:#c7b5f9;fill-opacity:0.2"
     d="m 315.59783,24.5557 h 38.55062 c 0.55889,0 1.00884,0.449943 1.00884,1.00884 v 1.76011 c 0,0.558898 -0.44995,1.00884 -1.00884,1.00884 h -38.55062 c -0.5589,0 -1.00884,-0.449942 -1.00884,-1.00884 v -1.76011 c 0,-0.558897 0.44994,-1.00884 1.00884,-1.00884 z" />
  <path
     id="ellipse905"
     style="fill:#f6f3ff"
     d="m 345.49784,151.112 a 1.93183,1.8889 0 0 1 -1.93183,1.8889 1.93183,1.8889 0 0 1 -1.93183,-1.8889 1.93183,1.8889 0 0 1 1.93183,-1.8889 1.93183,1.8889 0 0 1 1.93183,1.8889 z" />
  <path
     id="ellipse907"
     style="fill:#e2d9fb"
     d="m 359.02164,151.112 a 3.8636501,3.7777901 0 0 1 -3.86365,3.77779 3.8636501,3.7777901 0 0 1 -3.86365,-3.77779 3.8636501,3.7777901 0 0 1 3.86365,-3.77779 3.8636501,3.7777901 0 0 1 3.86365,3.77779 z" />
  <path
     id="ellipse909"
     style="fill:#f6f3ff"
     d="m 368.68082,151.112 a 1.93183,1.8889 0 0 1 -1.93183,1.8889 1.93183,1.8889 0 0 1 -1.93183,-1.8889 1.93183,1.8889 0 0 1 1.93183,-1.8889 1.93183,1.8889 0 0 1 1.93183,1.8889 z" />
  <path
     id="rect911"
     style="fill:#f6f3ff"
     d="m 332.14737,39.666801 h 46.02036 c 2.23559,0 4.03537,1.799775 4.03537,4.03537 v 90.151859 c 0,2.2356 -1.79978,4.03537 -4.03537,4.03537 h -46.02036 c -2.2356,0 -4.03537,-1.79977 -4.03537,-4.03537 V 43.702171 c 0,-2.235595 1.79977,-4.03537 4.03537,-4.03537 z" />
  <path
     id="rect913"
     style="fill:#c7b5f9;fill-opacity:0.2"
     d="m 341.71968,54.778 h 24.94204 c 1.11779,0 2.01768,0.899885 2.01768,2.01768 v 24.29814 c 0,1.117795 -0.89989,2.01768 -2.01768,2.01768 h -24.94204 c -1.1178,0 -2.01768,-0.899885 -2.01768,-2.01768 V 56.79568 c 0,-1.117795 0.89988,-2.01768 2.01768,-2.01768 z" />
  <path
     d="M366.748 81.2226L341.634 56.6669"
     stroke="#D2CDE2"
     stroke-width="1.00884"
     stroke-linecap="round"
     id="path915" />
  <path
     d="M341.634 81.2226L366.748 56.6669"
     stroke="#D2CDE2"
     stroke-width="1.00884"
     stroke-linecap="round"
     id="path917" />
  <path
     id="rect919"
     style="fill:#c7b5f9;fill-opacity:0.4"
     d="m 334.91585,103.889 h 40.48252 c 0.5589,0 1.00884,0.44994 1.00884,1.00884 v 1.76011 c 0,0.5589 -0.44994,1.00884 -1.00884,1.00884 h -40.48252 c -0.55889,0 -1.00884,-0.44994 -1.00884,-1.00884 v -1.76011 c 0,-0.5589 0.44995,-1.00884 1.00884,-1.00884 z" />
  <path
     id="rect921"
     style="fill:#c7b5f9;fill-opacity:0.2"
     d="m 334.85146,109.556 h 32.884 c 0.52323,0 0.94445,0.42122 0.94445,0.94445 v 0 c 0,0.52323 -0.42122,0.94445 -0.94445,0.94445 h -32.884 c -0.52322,0 -0.94445,-0.42122 -0.94445,-0.94445 v 0 c 0,-0.52323 0.42123,-0.94445 0.94445,-0.94445 z" />
  <path
     id="rect923"
     style="fill:#c7b5f9;fill-opacity:0.2"
     d="m 334.85146,113.334 h 13.56571 c 0.52322,0 0.94444,0.42122 0.94444,0.94445 v 0 c 0,0.52323 -0.42122,0.94445 -0.94444,0.94445 h -13.56571 c -0.52322,0 -0.94445,-0.42122 -0.94445,-0.94445 v 0 c 0,-0.52323 0.42123,-0.94445 0.94445,-0.94445 z" />
  <path
     id="rect925"
     style="fill:#c7b5f9;fill-opacity:0.2"
     d="m 352.23845,113.334 h 21.29301 c 0.52322,0 0.94445,0.42122 0.94445,0.94445 v 0 c 0,0.52323 -0.42123,0.94445 -0.94445,0.94445 h -21.29301 c -0.52322,0 -0.94444,-0.42122 -0.94444,-0.94445 v 0 c 0,-0.52323 0.42122,-0.94445 0.94444,-0.94445 z" />
  <path
     fill-rule="evenodd"
     clip-rule="evenodd"
     d="M291.942 66.5692L292.173 67.704C296.813 90.5415 308.666 110.066 319.556 126.998C320.426 128.352 321.291 129.69 322.146 131.012C326.621 137.934 330.819 144.428 334.086 150.49C337.972 157.703 340.243 163.53 340.445 169.836L338.515 172.924V170.838C338.331 165.083 335.887 158.716 332.047 151.589C328.828 145.615 324.691 139.215 320.215 132.291C319.357 130.964 318.486 129.618 317.608 128.251C306.717 111.317 294.638 91.4704 289.903 68.1651L289.672 67.0303L291.942 66.5692Z"
     fill="#1A1A1A"
     id="path927" />
  <path
     d="M227.889 469.631L229.549 444.105L231.595 418.415L209.526 416.099L209.525 447.215L193.442 457.585C193.442 457.585 192.595 458.16 191.295 459.055C187.394 461.74 179.415 467.301 178.002 468.838C176.589 470.374 175.769 472.71 177.154 474.179C177.615 474.669 178.322 475.062 179.333 475.298C183.376 476.24 227.889 469.631 227.889 469.631Z"
     fill="#FEDDC6"
     id="path929" />
  <path
     d="M227.888 469.631L228.86 454.698C228.86 454.698 225.055 457.796 222.331 459.33C214.037 464.002 200.716 466.176 196.856 463.19C194.361 461.26 193.442 457.585 193.442 457.585C193.442 457.585 179.886 466.789 178.002 468.838C176.118 470.886 175.288 474.356 179.332 475.298C183.376 476.24 227.888 469.631 227.888 469.631Z"
     fill="#79003A"
     id="path931" />
  <path
     d="M320.949 478.407C316.833 478.949 273.18 468.02 273.18 468.02L273.67 453.154L273.002 439.259L271.739 413.011L291.038 414.555L293.647 447.506L308.639 459.399C308.639 459.399 321.23 469.884 322.905 472.108C324.58 474.331 325.066 477.864 320.949 478.407Z"
     fill="#FEDDC6"
     id="path933" />
  <path
     d="M273.18 468.02L273.673 453.064C273.673 453.064 277.157 456.518 279.718 458.312C287.515 463.772 300.56 467.238 304.694 464.644C307.366 462.967 308.639 459.399 308.639 459.399C308.639 459.399 321.23 469.884 322.905 472.108C324.58 474.331 325.066 477.864 320.95 478.407C316.833 478.949 273.18 468.02 273.18 468.02Z"
     fill="#79003A"
     id="path935" />
  <path
     fill-rule="evenodd"
     clip-rule="evenodd"
     d="M250.123 37.0478L248.556 37.1329C240.824 37.5529 233.677 39.6727 227.424 43.9515C221.169 48.2313 215.719 54.7319 211.477 64.0489C204.189 80.059 196.02 92.5205 188.491 104.007C185.822 108.078 183.234 112.027 180.793 115.968C171.455 131.048 165.205 148.993 163.7 168.3L159.029 165.976C161.055 143.254 168.632 129.673 178.112 114.364C180.623 110.311 183.255 106.294 185.951 102.182C193.448 90.7441 201.43 78.5663 208.613 62.7886C213.045 53.0517 218.83 46.0725 225.631 41.4193C232.433 36.7652 240.162 34.4988 248.383 34.0523L249.95 33.9673L250.123 37.0478Z"
     fill="#1A1A1A"
     id="path937" />
  <path
     d="M292.582 70.1778C301.789 116.321 335.041 149.568 335.041 173.889C328.093 190.61 285.736 215.554 252.439 214.584C236.77 214.128 220.568 207.188 206.473 198.871C186.491 187.08 170.743 172.521 166.749 169.742C170.608 124.9 192.996 106.659 209.98 61.8175C217.363 42.3242 231.62 33.3905 247.035 32.5233C274.054 31.0033 287.95 46.964 292.582 70.1778Z"
     fill="#1A1A1A"
     id="path939" />
  <path
     id="ellipse941"
     style="fill:#fad4b8"
     d="m 224.64684,88.778099 a 7.71984,8.4918203 0 0 1 -7.71984,8.49182 7.71984,8.4918203 0 0 1 -7.71984,-8.49182 7.71984,8.4918203 0 0 1 7.71984,-8.49182 7.71984,8.4918203 0 0 1 7.71984,8.49182 z" />
  <path
     id="ellipse943"
     style="fill:#feddc6"
     d="m 281.00185,88.778099 a 7.71984,8.4918203 0 0 1 -7.71984,8.49182 7.71984,8.4918203 0 0 1 -7.71984,-8.49182 7.71984,8.4918203 0 0 1 7.71984,-8.49182 7.71984,8.4918203 0 0 1 7.71984,8.49182 z" />
  <path
     id="rect945"
     style="fill:#fad4b8"
     d="m 230.823,106.534 h 30.8794 v 40.1432 H 230.823 Z" />
  <path
     fill-rule="evenodd"
     clip-rule="evenodd"
     d="M273.282 67.2997L232.29 55.5829L217.699 69.3827L218.317 85.3523L217.712 93.6843C217.704 93.9149 217.699 94.1464 217.699 94.3787C217.699 107.033 233.68 119.635 245.491 120.416C253.134 120.922 273.282 107.033 273.282 94.3787C273.282 94.1464 273.278 93.9149 273.27 93.6843C273.27 93.6843 272.854 88.6433 272.665 85.3523C272.352 79.9135 273.282 71.4657 273.282 71.4657V67.2997Z"
     fill="#FEDDC6"
     id="path947" />
  <path
     d="M223.253 73.3742C223.352 73.2196 223.474 73.0844 223.623 72.9772C224.398 72.4196 227.139 70.5937 230.532 69.9971C231.485 69.8297 232.337 70.5201 232.514 71.4707C232.74 72.683 231.791 73.7828 230.566 73.9272C228.443 74.1776 226.878 74.8207 225.038 75.5835C223.627 76.1684 222.429 74.6603 223.253 73.3742Z"
     fill="black"
     id="path949" />
  <path
     id="ellipse951"
     style="fill:#1a1a1a"
     d="m 232.36694,83.374298 a 2.3159499,3.08794 0 0 1 -2.31595,3.08794 2.3159499,3.08794 0 0 1 -2.31595,-3.08794 2.3159499,3.08794 0 0 1 2.31595,-3.08794 2.3159499,3.08794 0 0 1 2.31595,3.08794 z" />
  <path
     id="ellipse953"
     style="fill:#1a1a1a"
     d="m 232.36694,83.374298 a 2.3159499,3.08794 0 0 1 -2.31595,3.08794 2.3159499,3.08794 0 0 1 -2.31595,-3.08794 2.3159499,3.08794 0 0 1 2.31595,-3.08794 2.3159499,3.08794 0 0 1 2.31595,3.08794 z" />
  <path
     id="ellipse955"
     style="fill:#1a1a1a"
     d="m 232.36694,83.374298 a 2.3159499,3.08794 0 0 1 -2.31595,3.08794 2.3159499,3.08794 0 0 1 -2.31595,-3.08794 2.3159499,3.08794 0 0 1 2.31595,-3.08794 2.3159499,3.08794 0 0 1 2.31595,3.08794 z" />
  <path
     id="ellipse957"
     style="fill:#1a1a1a"
     d="m 232.36694,83.374298 a 2.3159499,3.08794 0 0 1 -2.31595,3.08794 2.3159499,3.08794 0 0 1 -2.31595,-3.08794 2.3159499,3.08794 0 0 1 2.31595,-3.08794 2.3159499,3.08794 0 0 1 2.31595,3.08794 z" />
  <path
     id="ellipse959"
     style="fill:#1a1a1a"
     d="m 257.07095,83.374298 a 2.3159499,3.08794 0 0 1 -2.31595,3.08794 2.3159499,3.08794 0 0 1 -2.31595,-3.08794 2.3159499,3.08794 0 0 1 2.31595,-3.08794 2.3159499,3.08794 0 0 1 2.31595,3.08794 z" />
  <path
     id="ellipse961"
     style="fill:#1a1a1a"
     d="m 257.07095,83.374298 a 2.3159499,3.08794 0 0 1 -2.31595,3.08794 2.3159499,3.08794 0 0 1 -2.31595,-3.08794 2.3159499,3.08794 0 0 1 2.31595,-3.08794 2.3159499,3.08794 0 0 1 2.31595,3.08794 z" />
  <path
     id="ellipse963"
     style="fill:#1a1a1a"
     d="m 257.07095,83.374298 a 2.3159499,3.08794 0 0 1 -2.31595,3.08794 2.3159499,3.08794 0 0 1 -2.31595,-3.08794 2.3159499,3.08794 0 0 1 2.31595,-3.08794 2.3159499,3.08794 0 0 1 2.31595,3.08794 z" />
  <path
     id="ellipse965"
     style="fill:#1a1a1a"
     d="m 257.07095,83.374298 a 2.3159499,3.08794 0 0 1 -2.31595,3.08794 2.3159499,3.08794 0 0 1 -2.31595,-3.08794 2.3159499,3.08794 0 0 1 2.31595,-3.08794 2.3159499,3.08794 0 0 1 2.31595,3.08794 z" />
  <path
     id="ellipse967"
     style="fill:#fac8b8;fill-opacity:0.8"
     d="m 269.42185,94.181999 a 6.9478502,6.1758699 0 0 1 -6.94785,6.175871 6.9478502,6.1758699 0 0 1 -6.94785,-6.175871 6.9478502,6.1758699 0 0 1 6.94785,-6.17587 6.9478502,6.1758699 0 0 1 6.94785,6.17587 z" />
  <path
     id="ellipse969"
     style="fill:#fac8b8;fill-opacity:0.8"
     d="m 229.27987,94.954002 a 6.1758699,5.4038901 0 0 1 -6.17587,5.403888 6.1758699,5.4038901 0 0 1 -6.17587,-5.403888 6.1758699,5.4038901 0 0 1 6.17587,-5.40389 6.1758699,5.4038901 0 0 1 6.17587,5.40389 z" />
  <path
     d="M237.047 104.112C244.516 108.427 249.38 105.508 252.183 102.94"
     stroke="#79003A"
     stroke-width="1.08078"
     stroke-linecap="round"
     id="path971" />
  <path
     d="M237.309 89.5501C237.309 89.5501 234.988 92.7873 235.54 94.7345C235.963 96.2214 237.171 96.8074 238.356 97.1356C239.4 97.4246 240.637 97.2246 241.631 96.7528"
     stroke="#79003A"
     stroke-width="0.773908"
     stroke-linecap="round"
     id="path973" />
  <path
     fill-rule="evenodd"
     clip-rule="evenodd"
     d="M289.42 79.4074C288.908 79.6964 285.634 77.1984 282.546 77.9704C279.458 78.7424 274.054 80.2863 271.738 81.0583C269.422 81.8303 265.09 80.1645 262.602 78.7424C262.218 78.6842 259.387 75.6544 257.071 67.9346C257.843 75.6544 261.362 78.8115 260.931 78.7424C259.097 78.4487 256.299 77.9704 253.211 77.1984C251.159 75.3336 247.807 69.4786 246.263 58.6708C246.263 66.3906 249.351 74.446 250.895 76.4264C246.227 75.4438 240.219 73.611 237.771 71.7945C234.683 70.2505 233.139 65.6186 232.898 60.2148C231.662 62.0879 228.522 67.8336 223.875 70.6222C219.419 73.2969 217.281 73.2352 210.886 73.8245C211.021 70.6222 211.188 68.5419 210.886 73.8245C210.886 52.6015 228.379 38.5992 250.123 38.5992C271.867 38.5992 289.494 55.8038 289.494 77.0269C289.494 77.8263 289.469 78.6201 289.42 79.4074Z"
     fill="#1A1A1A"
     id="path975" />
  <mask
     id="mask0_3_1034"
     style="mask-type:alpha"
     maskUnits="userSpaceOnUse"
     x="166"
     y="32"
     width="170"
     height="183">
    <path
       d="M292.582 70.1778C301.789 116.321 335.041 149.568 335.041 173.889C328.093 190.61 285.736 215.554 252.439 214.584C236.77 214.128 220.568 207.188 206.473 198.871C186.491 187.08 170.743 172.521 166.749 169.742C170.608 124.9 192.996 106.659 209.98 61.8175C217.363 42.3242 231.62 33.3905 247.035 32.5233C274.054 31.0033 287.95 46.964 292.582 70.1778Z"
       fill="#1A1A1A"
       id="path977" />
  </mask>
  <g
     mask="url(#mask0_3_1034)"
     id="g982">
    <path
       d="M221.33 40.1431C226.636 50.9509 264.54 55.5562 278.185 41.6871L289.556 56.3548C278.943 52.4948 269.314 56.1202 249.642 56.3548C236.314 56.5137 224.362 52.4948 212.233 54.8108L221.33 40.1431Z"
       fill="#363636"
       id="path980" />
  </g>
  <path
     d="M272.793 97.2531C272.954 97.2643 273.118 97.27 273.282 97.27C277.546 97.27 281.002 93.459 281.002 88.7579C281.002 84.3442 277.955 80.715 274.054 80.288C272.51 80.246 271.738 81.0198 271.738 81.0198"
     stroke="#79003A"
     stroke-width="0.771984"
     stroke-linecap="round"
     id="path984" />
  <path
     d="M217.699 73.3385L218.291 85.7726L217.711 94.0048C217.703 94.2326 217.699 94.4613 217.699 94.6908C217.699 107.194 233.018 119.644 244.34 120.416C246.188 120.542 248.797 119.764 251.667 118.329"
     stroke="#79003A"
     stroke-width="0.771984"
     stroke-linecap="round"
     id="path986" />
  <path
     fill-rule="evenodd"
     clip-rule="evenodd"
     d="M219.243 220.787C209.332 253.562 202.534 287.636 185.276 435.176C214.484 442.724 215.804 441.809 246.534 441.143L249.945 308.782L263.708 441.143C296.112 441.644 295.758 442.149 321.145 435.176C300.139 293.483 274.826 223.875 272.51 220.787H219.243Z"
     fill="#FFBBD8"
     id="path988" />
  <path
     d="M247.035 284.09L264.019 441.575"
     stroke="#79003A"
     stroke-width="0.771984"
     id="path990" />
  <path
     d="M157.681 216.96C124.529 218.304 123.713 142.849 122.169 138.989C122.169 138.989 121.397 134.641 118.309 128.181C116.324 124.03 112.134 118.146 112.134 118.146C112.134 118.146 107.029 111.371 108.274 108.882C109.818 105.794 118.309 115.83 118.309 115.83C118.309 115.83 109.818 100.39 112.906 98.0741C115.132 96.404 122.941 113.514 122.941 113.514C122.941 113.514 119.081 93.2492 121.397 92.6702C125.257 91.7052 129.117 112.742 131.433 112.742C132.977 112.742 129.25 96.9403 132.205 95.7581C136.065 94.2142 137.609 107.338 139.925 119.69C143.013 116.602 143.058 111.652 145.329 111.198C149.189 110.426 147.645 122.006 146.873 124.322C146.101 126.638 141.469 135.901 141.469 135.901C141.469 135.901 141.82 140.041 143.785 145.937C147.581 157.324 153.681 172.398 158.434 183.732L189.136 154.397L195.312 183.732L170.804 210.012C170.804 210.012 166.163 216.616 157.681 216.96Z"
     fill="#FEDDC6"
     id="path992" />
  <path
     d="M141.469 135.901C141.469 135.901 146.101 126.638 146.873 124.322C147.645 122.006 149.189 110.426 145.329 111.198C143.058 111.652 143.013 116.602 139.925 119.69M118.309 128.181C116.324 124.03 112.134 118.146 112.134 118.146C112.134 118.146 107.029 111.371 108.274 108.882C109.818 105.794 118.309 115.83 118.309 115.83C118.309 115.83 109.818 100.39 112.906 98.0741C115.132 96.404 122.941 113.514 122.941 113.514C122.941 113.514 119.081 93.2492 121.397 92.6702C125.257 91.7052 129.117 112.742 131.433 112.742C132.977 112.742 129.25 96.9403 132.205 95.7581C136.065 94.2142 137.609 107.338 139.925 119.69M139.925 119.69C139.925 119.69 136.142 119.248 134.326 121.973C132.782 124.289 132.782 126.605 132.782 126.605"
     stroke="#79003A"
     stroke-width="0.771984"
     stroke-linecap="round"
     id="path994" />
  <path
     d="M149.765 162.117C152.081 166.748 156.944 179.646 158.257 183.732C158.867 185.632 161.345 195.312 161.345 196.856"
     stroke="#79003A"
     stroke-width="0.771984"
     stroke-linecap="round"
     id="path996" />
  <path
     d="M341.217 210.568C345.389 233.727 280.916 267.087 277.68 269.696C271.449 274.718 267.751 277.34 260.696 281.59C259.009 282.291 256.9 280.585 256.836 279.274C254.521 279.274 252.976 276.186 252.976 276.186C252.976 276.186 250.463 275.896 249.116 274.378C247.381 273.834 245.967 273.282 245.256 271.555C244.037 268.591 250.66 265.379 250.66 265.379C250.66 265.379 250.732 262.887 251.432 261.519C252.614 259.21 256.836 257.659 256.836 257.659L271.738 251.667L285.634 237.771C294.259 229.583 304.366 220.974 312.482 215.431L289.26 188.18L311.11 169.836C311.11 169.836 322.86 181.306 331.953 193.584C335.404 198.244 339.712 202.213 341.217 210.568Z"
     fill="#FEDDC6"
     id="path998" />
  <path
     d="M250.895 265.562C250.895 265.562 250.732 262.887 251.432 261.519C252.614 259.21 256.836 257.659 256.836 257.659M250.895 265.562C250.895 265.562 244.538 269.422 245.491 271.738C246.201 273.465 247.664 273.79 248.344 273.871M250.895 265.562L254.755 263.247M256.836 279.274C256.9 280.585 259.009 282.291 260.696 281.59C263.704 280.71 268.305 277.046 277.68 269.239M256.836 279.274C254.334 279.872 253.211 276.37 252.976 276.186M256.836 279.274L259.386 277.914M252.976 276.186C251.971 276.186 249.288 275.823 248.344 273.871M252.976 276.186C254.654 275.532 255.313 275.134 256.064 274.378M248.344 273.871C248.76 273.92 251.324 272.799 254.52 270.011"
     stroke="#79003A"
     stroke-width="0.771984"
     stroke-linecap="round"
     stroke-linejoin="round"
     id="path1000" />
  <path
     d="M327.041 211.542C325.465 211.542 325.158 211.5 323.583 211.542C320.946 211.613 316.505 213.332 314.319 214.706C312.538 215.574 309.32 217.917 305.705 220.787"
     stroke="#79003A"
     stroke-width="0.771984"
     stroke-linecap="round"
     id="path1002" />
  <path
     d="M171.38 164.835L204.943 137.617L230.823 128.149C230.823 144.361 261.702 145.133 261.702 128.149L288.025 137.617L322.689 176.784L291.81 204.576L277.142 183.177L272.619 220.787H219.249L212.646 183.177L188.987 202.112L171.38 164.835Z"
     fill="white"
     id="path1004" />
  <path
     d="M219.249 220.787L212.647 183.177C211.489 174.533 211.149 170.126 211.524 163.661"
     stroke="#79003A"
     stroke-width="0.771984"
     stroke-linecap="round"
     id="path1006" />
  <path
     d="M276.132 85.5968C273.346 85.7958 273.376 90.6022 273.682 92.5958"
     stroke="#79003A"
     stroke-width="0.771984"
     stroke-linecap="round"
     id="path1008" />
  <path
     d="M347.992 249.555L352.853 262.743C353.051 263.282 353.813 263.282 354.011 262.743L355.856 257.748C355.931 257.546 356.106 257.397 356.318 257.356L361.05 256.446C361.624 256.336 361.738 255.565 361.221 255.293L348.859 248.795C348.358 248.532 347.796 249.024 347.992 249.555Z"
     fill="#79003A"
     id="path1010" />
  <path
     d="M358.305 260.471C365.466 267.867 370.779 276.754 375.103 285.993C379.908 296.259 383.704 307.287 384.177 318.92C384.678 331.265 383.441 343.845 369.78 348.937C361.597 351.693 349.33 345.006 345.549 338.497C340.387 329.612 337.751 315.935 344.107 305.882C346.362 302.315 350.864 299.437 354.711 297.775C362.949 294.217 371.164 295.619 380.141 299.139C398.899 306.494 418.09 331.176 423.519 355.303"
     stroke="#79003A"
     stroke-width="0.771984"
     stroke-linecap="round"
     stroke-dasharray="7.72 7.72"
     id="path1012" />
</svg>
