<svg width="54" height="35" viewBox="0 0 54 35" fill="none" xmlns="http://www.w3.org/2000/svg">
<rect x="0.4" y="0.4" width="53.2" height="34.2" rx="3.6" fill="#F3F3F3" stroke="black" stroke-width="0.8"/>
<path d="M10.0548 18V9.28974H15.2775V10.2254H11.1095V13.1685H14.8862V14.1042H11.1095V18H10.0548ZM19.9931 9.28974V18H18.9383V10.3955H18.8873L16.7608 11.8075V10.7358L18.9383 9.28974H19.9931ZM22.4981 18V17.2344L25.3732 14.0872C25.7106 13.7186 25.9885 13.3982 26.2068 13.126C26.4251 12.851 26.5867 12.5929 26.6917 12.3519C26.7994 12.1081 26.8533 11.8529 26.8533 11.5864C26.8533 11.2802 26.7795 11.0151 26.6321 10.7911C26.4875 10.5671 26.289 10.3941 26.0367 10.2722C25.7843 10.1503 25.5008 10.0893 25.1861 10.0893C24.8515 10.0893 24.5595 10.1588 24.3099 10.2977C24.0633 10.4338 23.8719 10.6252 23.7358 10.8719C23.6025 11.1186 23.5359 11.4078 23.5359 11.7395H22.5322C22.5322 11.2291 22.6498 10.7811 22.8852 10.3955C23.1205 10.0099 23.4409 9.70937 23.8464 9.49389C24.2547 9.2784 24.7126 9.17065 25.2201 9.17065C25.7305 9.17065 26.1827 9.2784 26.5768 9.49389C26.9709 9.70937 27.28 10 27.504 10.3658C27.728 10.7315 27.84 11.1384 27.84 11.5864C27.84 11.9068 27.7819 12.2201 27.6656 12.5263C27.5522 12.8297 27.3537 13.1685 27.0702 13.5428C26.7895 13.9142 26.3996 14.3679 25.9006 14.9038L23.9442 16.9963V17.0643H27.9931V18H22.4981Z" fill="black"/>
</svg>
